<?xml version="1.0" standalone="no"?>
<!DOCTYPE svg PUBLIC "-//W3C//DTD SVG 1.1//EN" "http://www.w3.org/Graphics/SVG/1.1/DTD/svg11.dtd" >
<svg xmlns="http://www.w3.org/2000/svg" xmlns:xlink="http://www.w3.org/1999/xlink" version="1.1">
<metadata>
Created by FontForge 20161003 at Wed May  1 13:00:46 2019
 By www-data
Copyright (c) 1981, 2002 Heidelberger Druckmaschinen AG. All rights reserved.
</metadata>
<defs>
<font id="DINCondensed-Bold" horiz-adv-x="370" >
  <font-face 
    font-family="DIN Condensed"
    font-weight="700"
    font-stretch="condensed"
    units-per-em="1000"
    panose-1="0 0 5 0 0 0 0 0 0 0"
    ascent="712"
    descent="-288"
    x-height="507"
    cap-height="712"
    bbox="-716 -312 1000 1023"
    underline-thickness="50"
    underline-position="-125"
    unicode-range="U+0020-FB02"
  />
<missing-glyph horiz-adv-x="500" 
d="M0 0v700h500v-700h-500zM250 395l170 255h-340zM280 350l170 -255v510zM80 50h340l-170 255zM50 605v-510l170 255z" />
    <glyph glyph-name=".notdef" horiz-adv-x="500" 
d="M0 0v700h500v-700h-500zM250 395l170 255h-340zM280 350l170 -255v510zM80 50h340l-170 255zM50 605v-510l170 255z" />
    <glyph glyph-name="space" unicode=" " horiz-adv-x="186" 
 />
    <glyph glyph-name="exclam" unicode="!" horiz-adv-x="240" 
d="M95 176l-39 536h128l-39 -536h-50zM69 0v102h102v-102h-102z" />
    <glyph glyph-name="quotedbl" unicode="&#x22;" horiz-adv-x="278" 
d="M33 536v176h80v-176h-80zM165 536v176h80v-176h-80z" />
    <glyph glyph-name="numbersign" unicode="#" horiz-adv-x="372" 
d="M180 0l29 215h-84l-29 -215h-68l29 215h-51v60h59l22 162h-50v60h58l29 215h68l-29 -215h84l29 215h68l-29 -215h51v-60h-59l-22 -162h50v-60h-58l-29 -215h-68zM217 275l22 162h-84l-22 -162h84z" />
    <glyph glyph-name="dollar" unicode="$" horiz-adv-x="372" 
d="M161 616q-26 -10 -34.5 -35t-8.5 -57q0 -36 7 -54.5t36 -32.5v179zM212 96q32 8 39.5 34.5t7.5 71.5q0 25 -1.5 42t-6.5 28q-11 21 -39 32v-208zM161 -90v84q-33 4 -60.5 18t-47.5 36q-42 45 -42 113v40h102v-36q0 -23 11 -43t37 -26v230l-34 14q-66 27 -88.5 71.5
t-22.5 111.5q0 76 36 130.5t109 64.5v75h51v-75q34 -4 61.5 -18.5t47.5 -37.5t30 -50t10 -55v-50h-102v23q0 32 -10.5 55t-36.5 31v-201l42 -17q34 -13 55 -30.5t33 -40.5q11 -24 15 -54.5t4 -69.5q0 -43 -7.5 -79.5t-24.5 -63.5q-18 -28 -46.5 -45t-70.5 -21v-84h-51z" />
    <glyph glyph-name="percent" unicode="%" horiz-adv-x="352" 
d="M94 555q10 0 17.5 7.5t7.5 18.5v51q0 11 -7.5 18.5t-17.5 7.5t-17.5 -7.5t-7.5 -18.5v-51q0 -11 7.5 -18.5t17.5 -7.5zM94 495q-39 0 -62 21t-23 55v65q0 38 23 60t62 22t62 -22t23 -60v-65q0 -34 -23 -55t-62 -21zM233 80q0 -11 7.5 -18.5t17.5 -7.5t17.5 7.5t7.5 18.5
v51q0 11 -7.5 18.5t-17.5 7.5t-17.5 -7.5t-7.5 -18.5v-51zM258 -6q-39 0 -62 21t-23 55v65q0 38 23 60t62 22t62 -22t23 -60v-65q0 -34 -23 -55t-62 -21zM21 0l244 712h66l-244 -712h-66z" />
    <glyph glyph-name="ampersand" unicode="&#x26;" horiz-adv-x="481" 
d="M353 0l-34 54q-30 -30 -62 -45t-74 -15q-30 0 -57 12t-47 34q-20 21 -31.5 51.5t-11.5 67.5q0 59 28 103t70 82q-27 38 -44.5 78.5t-17.5 85.5q0 28 9 53.5t26 44.5q17 18 43 29t61 11q33 0 58 -10.5t42 -27.5q35 -37 35 -91q0 -51 -31 -96t-73 -83q10 -14 20.5 -32
t23.5 -38q25 -43 50 -79l55 75l63 -44l-76 -98l77 -122h-102zM126 164q0 -37 21.5 -63.5t54.5 -26.5q23 0 44 14.5t32 28.5l-98 156q-23 -23 -38.5 -49.5t-15.5 -59.5zM162 506q0 -23 11 -49.5t28 -53.5q9 9 20 20.5t20 25.5t15 30.5t6 35.5t-13 35t-36 16t-37 -18.5
t-14 -41.5z" />
    <glyph glyph-name="quoteright" unicode="&#x2019;" horiz-adv-x="186" 
d="M42 536v176h102v-102z" />
    <glyph glyph-name="parenleft" unicode="(" horiz-adv-x="222" 
d="M203 712q-29 -103 -40 -213t-11 -221q0 -103 13.5 -196.5t37.5 -181.5h-34q-30 43 -52.5 93.5t-36.5 104.5q-15 54 -22.5 107t-7.5 101q0 51 8 105t24 108q30 107 87 193h34z" />
    <glyph glyph-name="parenright" unicode=")" horiz-adv-x="222" 
d="M19 -100q29 103 40 213t11 221q0 103 -13.5 196.5t-37.5 181.5h34q30 -45 52.5 -94.5t37.5 -103.5q14 -54 21.5 -107t7.5 -101q0 -51 -8 -105t-23 -108q-32 -108 -88 -193h-34z" />
    <glyph glyph-name="asterisk" unicode="*" 
d="M31 604l28 52l98 -60l-4 116h64l-4 -116l98 60l28 -52l-100 -56l100 -55l-28 -53l-98 60l4 -116h-64l4 116l-98 -60l-28 53l100 55z" />
    <glyph glyph-name="plus" unicode="+" horiz-adv-x="600" 
d="M260 293v213h80v-213h213v-80h-213v-213h-80v213h-213v80h213z" />
    <glyph glyph-name="comma" unicode="," horiz-adv-x="186" 
d="M42 -74v176h102v-102z" />
    <glyph glyph-name="hyphen" unicode="-" horiz-adv-x="389" 
d="M44 226v102h301v-102h-301z" />
    <glyph glyph-name="period" unicode="." horiz-adv-x="186" 
d="M42 0v102h102v-102h-102z" />
    <glyph glyph-name="slash" unicode="/" horiz-adv-x="222" 
d="M5 -6l132 724h80l-132 -724h-80z" />
    <glyph glyph-name="zero" unicode="0" horiz-adv-x="372" 
d="M34 565q0 36 12.5 64t33.5 48t48.5 30.5t57.5 10.5t57.5 -10.5t48.5 -30.5t33.5 -48t12.5 -64v-418q0 -36 -12.5 -64t-33.5 -48t-48.5 -30.5t-57.5 -10.5t-57.5 10.5t-48.5 30.5t-33.5 48t-12.5 64v418zM136 147q0 -22 14 -36.5t36 -14.5t36 14.5t14 36.5v418
q0 22 -14 36.5t-36 14.5t-36 -14.5t-14 -36.5v-418z" />
    <glyph glyph-name="one" unicode="1" horiz-adv-x="372" 
d="M155 0v604l-102 -75v108l102 75h102v-712h-102z" />
    <glyph glyph-name="two" unicode="2" horiz-adv-x="372" 
d="M34 0v96l184 347q14 26 16 45.5t2 48.5q0 13 -0.5 27.5t-5.5 25.5t-15 18.5t-29 7.5q-23 0 -36.5 -13t-13.5 -38v-58h-102v56q0 32 12 60t33 49q20 21 48 33.5t60 12.5q40 0 68.5 -14.5t47.5 -39.5q18 -25 26.5 -57t8.5 -68q0 -26 -1 -43.5t-4 -33.5t-10 -32t-19 -39
l-150 -289h184v-102h-304z" />
    <glyph glyph-name="three" unicode="3" horiz-adv-x="372" 
d="M155 412q46 0 63.5 11t17.5 51v92q0 22 -13.5 36t-36.5 14q-27 0 -38.5 -17t-11.5 -33v-58h-102v59q0 31 12 59t33 48t49 32t60 12q42 0 69.5 -16.5t41.5 -33.5q10 -12 17.5 -24t12.5 -29q9 -33 9 -98q0 -37 -1.5 -60t-7.5 -38q-7 -16 -19.5 -27t-34.5 -24
q24 -15 36.5 -28t18.5 -30q6 -18 7 -42.5t1 -62.5q0 -35 -1.5 -58t-4.5 -38q-3 -16 -8 -27t-13 -23q-19 -28 -48.5 -46.5t-77.5 -18.5q-24 0 -51 8t-49 26t-36.5 47t-14.5 71v58h102v-53q0 -24 13.5 -39.5t36.5 -15.5t36.5 15.5t13.5 41.5v102q0 42 -16 55q-9 8 -24.5 10
t-40.5 2v90z" />
    <glyph glyph-name="four" unicode="4" horiz-adv-x="372" 
d="M212 0v106h-203v96l147 510h108l-153 -510h101v203h102v-203h49v-96h-49v-106h-102z" />
    <glyph glyph-name="five" unicode="5" horiz-adv-x="372" 
d="M338 712v-96h-202v-192q14 14 36 23.5t49 9.5q52 0 84.5 -31.5t32.5 -94.5v-184q0 -36 -12.5 -64t-33.5 -48t-48.5 -30.5t-57.5 -10.5t-57.5 10.5t-48.5 30.5t-33.5 48t-12.5 64v30h102v-26q0 -26 14.5 -40.5t37.5 -14.5t35.5 14t12.5 39v167q0 21 -13.5 36t-34.5 15
q-13 0 -22 -4.5t-15 -10.5t-9 -13q-5 -9 -6 -11h-90v384h292z" />
    <glyph glyph-name="six" unicode="6" horiz-adv-x="372" 
d="M301 712l-116 -299l2 -2q5 4 15.5 6.5t27.5 2.5q27 0 50 -13t36 -33q7 -11 11 -22t7 -29q2 -18 3 -45.5t1 -69.5q0 -35 -1 -57.5t-3 -37.5q-3 -16 -7.5 -27t-11.5 -23q-20 -33 -53.5 -51t-75.5 -18t-75 18.5t-53 50.5q-8 12 -12.5 23t-6.5 27q-3 15 -4 37.5t-1 57.5
q0 33 1 54.5t3 37.5q2 15 6 27.5t9 26.5l134 358h114zM236 279q0 23 -15 37t-35 14t-35 -14t-15 -37v-132q0 -23 15 -37t35 -14t35 14t15 37v132z" />
    <glyph glyph-name="seven" unicode="7" horiz-adv-x="372" 
d="M57 0l179 616h-112v-82h-90v178h304v-102l-173 -610h-108z" />
    <glyph glyph-name="eight" unicode="8" horiz-adv-x="372" 
d="M236 566q0 21 -15 35.5t-35 14.5t-35 -14.5t-15 -35.5v-104q0 -21 15 -35.5t35 -14.5t35 14.5t15 35.5v104zM34 526q0 29 2 49.5t7 35.5t11.5 27t16.5 25q20 26 50 40.5t65 14.5t65 -14.5t50 -40.5q10 -13 17 -25t12 -27t6.5 -35.5t1.5 -49.5q0 -32 -1 -54t-6 -39
t-15.5 -30.5t-28.5 -28.5q18 -14 28.5 -28t15.5 -33t6 -46.5t1 -67.5q0 -33 -1.5 -54.5t-4.5 -37.5t-8.5 -27t-13.5 -23q-17 -26 -48 -44.5t-76 -18.5t-76 18.5t-48 44.5q-8 12 -13.5 23t-8.5 27t-4.5 37.5t-1.5 54.5q0 40 1 67.5t6 46.5t15.5 33t28.5 28q-18 15 -28.5 28.5
t-15.5 30.5t-6 39t-1 54zM236 286q0 21 -15 35.5t-35 14.5t-35 -14.5t-15 -35.5v-140q0 -21 15 -35.5t35 -14.5t35 14.5t15 35.5v140z" />
    <glyph glyph-name="nine" unicode="9" horiz-adv-x="372" 
d="M71 0l116 299l-2 2q-5 -4 -15.5 -6.5t-27.5 -2.5q-27 0 -50 13t-36 33q-7 10 -11 21.5t-6 29.5q-3 18 -4 45.5t-1 69.5q0 35 1 57.5t4 38.5q2 15 6.5 26t11.5 23q20 33 53.5 51t75.5 18t75 -18.5t53 -50.5q7 -12 12 -23t8 -26q2 -16 3 -38.5t1 -57.5q0 -33 -1 -54.5
t-3 -36.5q-3 -16 -6.5 -28.5t-8.5 -26.5l-134 -358h-114zM136 433q0 -23 15 -37t35 -14t35 14t15 37v132q0 23 -15 37t-35 14t-35 -14t-15 -37v-132z" />
    <glyph glyph-name="colon" unicode=":" horiz-adv-x="186" 
d="M42 0v102h102v-102h-102zM42 227v102h102v-102h-102z" />
    <glyph glyph-name="semicolon" unicode=";" horiz-adv-x="186" 
d="M42 -74v176h102v-102zM42 227v102h102v-102h-102z" />
    <glyph glyph-name="less" unicode="&#x3c;" horiz-adv-x="600" 
d="M553 514v-80l-397 -181l397 -181v-80l-506 231v60z" />
    <glyph glyph-name="equal" unicode="=" horiz-adv-x="600" 
d="M47 313v80h506v-80h-506zM47 113v80h506v-80h-506z" />
    <glyph glyph-name="greater" unicode="&#x3e;" horiz-adv-x="600" 
d="M47 -8v80l397 181l-397 181v80l506 -231v-60z" />
    <glyph glyph-name="question" unicode="?" 
d="M32 507v59q0 31 12 59t33 49q21 20 49 32t60 12q37 0 67.5 -15t50.5 -42q10 -14 16.5 -25.5t10.5 -25.5q7 -25 7 -71q0 -26 -0.5 -43.5t-2.5 -30.5t-5 -22.5t-8 -17.5l-69 -118q-7 -12 -12 -24.5t-5 -26.5v-80h-102v93q0 22 7 42t18 39l64 104q8 13 10.5 28t2.5 30v53
q0 21 -14.5 36t-35.5 15q-18 0 -35 -13t-17 -38v-58h-102zM134 0v102h102v-102h-102z" />
    <glyph glyph-name="at" unicode="@" horiz-adv-x="800" 
d="M513 410q0 35 -19 59t-55 24q-33 0 -61 -18.5t-48 -47.5q-21 -29 -33 -63.5t-12 -65.5q0 -42 22.5 -64.5t60.5 -22.5q28 0 54.5 20t46.5 50q20 29 32 64t12 65zM639 548l-87 -275q-5 -14 -7.5 -26t-2.5 -19q0 -13 5 -21t18 -8q24 0 48 20t44 52t32 69.5t12 73.5
q0 52 -22 96t-59 76t-85 49t-102 17q-63 0 -117.5 -24.5t-96.5 -66.5t-65 -96t-23 -112q0 -61 23.5 -114.5t65.5 -92.5q42 -40 97 -63t121 -23q36 0 72 8.5t68 22.5t58.5 33.5t44.5 40.5h77q-24 -40 -59.5 -72t-77.5 -54q-43 -22 -91.5 -33.5t-99.5 -11.5q-78 0 -146.5 27.5
t-119.5 76.5q-51 48 -80.5 115t-29.5 145q0 75 30 140.5t82 114.5q51 49 119.5 77t146.5 28q70 0 133 -22t111 -62t75 -94.5t27 -120.5q0 -63 -23.5 -114.5t-58.5 -87.5q-35 -37 -74.5 -57.5t-71.5 -20.5q-34 0 -54 15.5t-24 47.5h-2q-11 -12 -22.5 -23t-25.5 -20
q-15 -9 -33 -14.5t-41 -5.5q-32 0 -58.5 12t-45.5 33q-39 44 -39 107q0 49 17 98t48 88q30 39 72.5 63.5t96.5 24.5q35 0 67.5 -18t47.5 -60h2l20 61h63z" />
    <glyph glyph-name="A" unicode="A" horiz-adv-x="407" 
d="M254 249l-50 258h-2l-50 -258h102zM2 0l159 712h85l159 -712h-102l-30 153h-139l-30 -153h-102z" />
    <glyph glyph-name="B" unicode="B" horiz-adv-x="426" 
d="M48 0v712h149q49 0 83.5 -15t56.5 -40t31.5 -57.5t9.5 -67.5v-26q0 -29 -4.5 -49t-13.5 -35q-17 -28 -52 -48q36 -17 53 -50t17 -90v-40q0 -94 -45.5 -144t-145.5 -50h-139zM150 330v-228h44q31 0 48.5 9t26.5 25t11 38t2 48q0 27 -3 47t-12 34q-10 14 -27 20.5t-45 6.5
h-45zM150 616v-196h46q51 0 68.5 25.5t17.5 74.5q0 48 -19.5 72t-70.5 24h-42z" />
    <glyph glyph-name="C" unicode="C" horiz-adv-x="407" 
d="M372 203v-44q0 -33 -12.5 -62.5t-34.5 -52.5t-51.5 -36.5t-63.5 -13.5q-29 0 -59 8t-54 28t-39.5 51.5t-15.5 80.5v392q0 35 12 65t34 52t52.5 34.5t67.5 12.5q72 0 117 -47q22 -23 34.5 -54.5t12.5 -68.5v-40h-102v34q0 30 -17 52t-46 22q-38 0 -50.5 -23.5t-12.5 -59.5
v-364q0 -31 13.5 -52t48.5 -21q10 0 21.5 3.5t21.5 11.5q9 8 15 22t6 35v35h102z" />
    <glyph glyph-name="D" unicode="D" horiz-adv-x="426" 
d="M48 0v712h151q88 0 133.5 -48t45.5 -136v-333q0 -100 -48.5 -147.5t-139.5 -47.5h-142zM150 616v-520h47q43 0 61 21.5t18 67.5v343q0 42 -17 65t-62 23h-47z" />
    <glyph glyph-name="E" unicode="E" 
d="M48 0v712h304v-96h-202v-209h176v-96h-176v-209h202v-102h-304z" />
    <glyph glyph-name="F" unicode="F" 
d="M48 0v712h304v-96h-202v-216h176v-96h-176v-304h-102z" />
    <glyph glyph-name="G" unicode="G" horiz-adv-x="426" 
d="M42 544q0 43 15 76t40 55q24 21 54.5 32t61.5 11t61.5 -11t55.5 -32q24 -22 39 -55t15 -76v-36h-102v36q0 37 -20.5 54.5t-48.5 17.5t-48.5 -17.5t-20.5 -54.5v-376q0 -37 20.5 -54.5t48.5 -17.5t48.5 17.5t20.5 54.5v134h-81v90h183v-224q0 -45 -15 -77t-39 -53
q-25 -22 -55.5 -33t-61.5 -11t-61.5 11t-54.5 33q-25 21 -40 53t-15 77v376z" />
    <glyph glyph-name="H" unicode="H" horiz-adv-x="426" 
d="M48 0v712h102v-305h126v305h102v-712h-102v317h-126v-317h-102z" />
    <glyph glyph-name="I" unicode="I" horiz-adv-x="204" 
d="M51 0v712h102v-712h-102z" />
    <glyph glyph-name="J" unicode="J" horiz-adv-x="333" 
d="M285 712v-544q0 -73 -46 -122q-23 -24 -54.5 -38t-73.5 -14q-49 0 -81.5 21.5t-51.5 42.5l80 64q11 -11 25.5 -18.5t30.5 -7.5q9 0 21 3.5t23 13.5q11 9 18 25.5t7 43.5v530h102z" />
    <glyph glyph-name="K" unicode="K" horiz-adv-x="426" 
d="M48 0v712h102v-325h2l149 325h102l-139 -285l165 -427h-108l-116 316l-55 -103v-213h-102z" />
    <glyph glyph-name="L" unicode="L" 
d="M48 0v712h102v-610h202v-102h-304z" />
    <glyph glyph-name="M" unicode="M" horiz-adv-x="556" 
d="M48 0v712h98l131 -377h2l130 377h99v-712h-102v433h-2l-101 -306h-51l-100 306h-2v-433h-102z" />
    <glyph glyph-name="N" unicode="N" horiz-adv-x="444" 
d="M44 0v712h98l154 -429h2v429h102v-712h-96l-156 428h-2v-428h-102z" />
    <glyph glyph-name="O" unicode="O" horiz-adv-x="426" 
d="M42 544q0 43 15 76t40 55q24 21 54.5 32t61.5 11t61.5 -11t55.5 -32q24 -22 39 -55t15 -76v-376q0 -45 -15 -77t-39 -53q-25 -22 -55.5 -33t-61.5 -11t-61.5 11t-54.5 33q-25 21 -40 53t-15 77v376zM144 168q0 -37 20.5 -54.5t48.5 -17.5t48.5 17.5t20.5 54.5v376
q0 37 -20.5 54.5t-48.5 17.5t-48.5 -17.5t-20.5 -54.5v-376z" />
    <glyph glyph-name="P" unicode="P" horiz-adv-x="407" 
d="M48 0v712h153q42 0 74 -11t58 -39t36 -65.5t10 -101.5q0 -48 -5.5 -81t-23.5 -62q-21 -35 -56 -54.5t-92 -19.5h-52v-278h-102zM150 616v-242h49q31 0 48 9t25 25q8 15 9.5 37t1.5 49q0 25 -1 47.5t-9 39.5t-24 26t-46 9h-53z" />
    <glyph glyph-name="Q" unicode="Q" horiz-adv-x="426" 
d="M144 168q0 -37 20.5 -54.5t48.5 -17.5q14 0 22 4l-46 37l52 62l41 -33v2v376q0 37 -20.5 54.5t-48.5 17.5t-48.5 -17.5t-20.5 -54.5v-376zM42 544q0 43 15 76t40 55q24 21 54.5 32t61.5 11t61.5 -11t55.5 -32q24 -22 39 -55t15 -76v-376q0 -42 -15 -73l63 -51l-52 -62
l-60 49q-46 -37 -107 -37q-31 0 -61.5 11t-54.5 33q-25 21 -40 53t-15 77v376z" />
    <glyph glyph-name="R" unicode="R" horiz-adv-x="426" 
d="M150 616v-222h58q27 0 43 7.5t25 21.5q8 14 11 34.5t3 47.5t-3 47.5t-12 35.5q-19 28 -72 28h-53zM48 0v712h164q180 0 180 -209q0 -63 -19.5 -107t-68.5 -71l110 -325h-108l-95 304h-61v-304h-102z" />
    <glyph glyph-name="S" unicode="S" horiz-adv-x="406" 
d="M378 507h-102v23q0 35 -16.5 60.5t-55.5 25.5q-21 0 -34 -8t-21 -20q-8 -13 -11 -29.5t-3 -34.5q0 -21 1.5 -35t7.5 -25t17.5 -19t31.5 -16l78 -31q34 -13 55 -30.5t33 -40.5q11 -24 15 -54.5t4 -69.5q0 -45 -9 -83.5t-29 -65.5q-21 -28 -55 -44t-83 -16q-37 0 -69 13
t-55 36t-36.5 53.5t-13.5 66.5v38h102v-32q0 -28 16.5 -50.5t55.5 -22.5q26 0 40.5 7.5t22.5 21.5t9.5 33.5t1.5 43.5q0 28 -2 46t-8 29q-7 11 -18.5 18t-30.5 15l-73 30q-66 27 -88.5 71.5t-22.5 111.5q0 40 11 76t33 62q21 26 53.5 41.5t77.5 15.5q38 0 69.5 -14t54.5 -37
q46 -48 46 -110v-50z" />
    <glyph glyph-name="T" unicode="T" horiz-adv-x="332" 
d="M115 0v616h-118v96h338v-96h-118v-616h-102z" />
    <glyph glyph-name="U" unicode="U" horiz-adv-x="426" 
d="M378 712v-552q0 -35 -12.5 -64.5t-35.5 -52.5t-53 -36t-64 -13t-63.5 13t-52.5 36t-36 52.5t-13 64.5v552h102v-542q0 -38 18 -56t45 -18t45 18t18 56v542h102z" />
    <glyph glyph-name="V" unicode="V" horiz-adv-x="407" 
d="M394 712l-146 -712h-90l-145 712h108l81 -497h2l82 497h108z" />
    <glyph glyph-name="W" unicode="W" horiz-adv-x="593" 
d="M577 712l-106 -712h-96l-78 462h-2l-77 -462h-96l-106 712h108l51 -452h2l80 452h78l83 -463h2l49 463h108z" />
    <glyph glyph-name="X" unicode="X" horiz-adv-x="389" 
d="M-2 0l144 373l-133 339h108l77 -211l78 211h108l-136 -339l147 -373h-108l-89 240l-88 -240h-108z" />
    <glyph glyph-name="Y" unicode="Y" horiz-adv-x="388" 
d="M143 0v301l-140 411h108l82 -283h2l82 283h108l-140 -411v-301h-102z" />
    <glyph glyph-name="Z" unicode="Z" horiz-adv-x="333" 
d="M15 0v90l192 526h-182v96h293v-81l-196 -535h196v-96h-303z" />
    <glyph glyph-name="bracketleft" unicode="[" horiz-adv-x="222" 
d="M214 712v-60h-66v-692h66v-60h-156v812h156z" />
    <glyph glyph-name="backslash" unicode="\" horiz-adv-x="222" 
d="M85 718l132 -724h-80l-132 724h80z" />
    <glyph glyph-name="bracketright" unicode="]" horiz-adv-x="222" 
d="M8 -100v60h66v692h-66v60h156v-812h-156z" />
    <glyph glyph-name="asciicircum" unicode="^" horiz-adv-x="600" 
d="M50 283l217 429h66l217 -429h-80l-170 339l-170 -339h-80z" />
    <glyph glyph-name="underscore" unicode="_" horiz-adv-x="500" 
d="M0 -125v50h500v-50h-500z" />
    <glyph glyph-name="quoteleft" unicode="&#x2018;" horiz-adv-x="186" 
d="M144 712v-176h-102v102z" />
    <glyph glyph-name="a" unicode="a" 
d="M235 0v52h-2q-20 -28 -40.5 -43t-57.5 -15q-18 0 -36.5 5.5t-35.5 20.5q-17 14 -27.5 40.5t-10.5 68.5q0 43 7 75.5t26 54.5q18 21 49 31.5t79 10.5h11t11 -1t12 -1t15 -1v53q0 26 -11 43t-40 17q-20 0 -36.5 -13t-21.5 -38h-99q4 68 46 110q20 20 48 31.5t63 11.5
q32 0 60 -10t49 -30q20 -20 32 -50t12 -70v-353h-102zM235 218q-17 3 -28 3q-33 0 -56.5 -15.5t-23.5 -56.5q0 -29 14 -47t39 -18q26 0 40.5 17t14.5 48v69z" />
    <glyph glyph-name="b" unicode="b" horiz-adv-x="389" 
d="M42 0v712h102v-251h2q17 25 40.5 38.5t53.5 13.5q37 0 57.5 -13t33.5 -33q10 -16 13 -42t3 -81v-193q0 -42 -4 -67t-13 -42q-26 -48 -89 -48q-38 0 -58 15t-39 37v-46h-102zM245 351q0 24 -10.5 42t-39.5 18q-22 0 -36.5 -15.5t-14.5 -39.5v-197q0 -28 14 -45.5t37 -17.5
q26 0 38 19t12 50v186z" />
    <glyph glyph-name="c" unicode="c" 
d="M150 146q0 -24 13.5 -37t36.5 -13q29 0 38.5 17t11.5 34h102q0 -67 -41 -108q-20 -21 -48 -33t-63 -12q-48 0 -81.5 20t-51.5 53q-11 20 -15 46t-4 57v167q0 31 4 57t15 46q18 33 51.5 53t81.5 20q35 0 63.5 -12t48.5 -33q40 -45 40 -117h-102q0 31 -13.5 45.5
t-36.5 14.5t-36.5 -14.5t-13.5 -43.5v-207z" />
    <glyph glyph-name="d" unicode="d" horiz-adv-x="389" 
d="M144 165q0 -31 12 -50t38 -19q23 0 37 17.5t14 45.5v197q0 24 -14.5 39.5t-36.5 15.5q-29 0 -39.5 -18t-10.5 -42v-186zM245 0v46q-10 -11 -19 -20.5t-20 -16.5t-25 -11t-33 -4q-64 0 -89 48q-9 17 -13 42t-4 67v193q0 55 3 81q6 50 47 75q19 13 57 13q30 0 53.5 -13.5
t40.5 -38.5h2v251h102v-712h-102z" />
    <glyph glyph-name="e" unicode="e" 
d="M337 215h-202v-69q0 -24 13.5 -37t36.5 -13q29 0 38.5 17t11.5 34h102q0 -67 -41 -108q-20 -21 -48 -33t-63 -12q-48 0 -81.5 20t-51.5 53q-11 20 -15 46t-4 57v167q0 31 4 57t15 46q18 33 51.5 53t81.5 20q35 0 63.5 -12t48.5 -33q40 -45 40 -113v-140zM135 295h100v58
q0 29 -13.5 43.5t-36.5 14.5t-36.5 -14.5t-13.5 -43.5v-58z" />
    <glyph glyph-name="f" unicode="f" horiz-adv-x="222" 
d="M55 0v427h-50v80h50v69q0 37 11 62.5t30 42.5q18 17 41.5 24t48.5 7h47v-96h-46q-30 0 -30 -35v-74h76v-80h-76v-427h-102z" />
    <glyph glyph-name="g" unicode="g" horiz-adv-x="389" 
d="M144 -59q1 -18 14.5 -34t39.5 -16q25 0 36 15.5t11 39.5v100h-2q-17 -25 -40.5 -38.5t-54.5 -13.5q-64 0 -89 48q-9 17 -13 42t-4 67v193q0 55 3 81q6 50 47 75q19 13 57 13q19 0 32.5 -4t24.5 -11t20 -16.5t19 -20.5v46h102v-569q0 -26 -8.5 -52.5t-27.5 -47.5
q-19 -22 -48 -35.5t-69 -13.5q-23 0 -48 7.5t-46 25.5q-22 17 -37.5 45.5t-20.5 73.5h102zM144 156q0 -24 10.5 -42t39.5 -18q22 0 36.5 15.5t14.5 39.5v197q0 28 -14 45.5t-37 17.5q-26 0 -38 -19t-12 -50v-186z" />
    <glyph glyph-name="h" unicode="h" horiz-adv-x="389" 
d="M42 0v712h102v-254h2q16 24 38.5 39.5t57.5 15.5q19 0 38 -6.5t34 -21.5t24 -38.5t9 -57.5v-389h-102v351q0 28 -13 44t-37 16q-29 0 -40 -18t-11 -52v-341h-102z" />
    <glyph glyph-name="i" unicode="i" horiz-adv-x="186" 
d="M42 0v507h102v-507h-102zM42 610v102h102v-102h-102z" />
    <glyph glyph-name="j" unicode="j" horiz-adv-x="186" 
d="M42 507h102v-561q0 -75 -47 -113t-119 -38v96q37 0 51 19q8 11 10.5 28.5t2.5 45.5v523zM42 610v102h102v-102h-102z" />
    <glyph glyph-name="k" unicode="k" horiz-adv-x="389" 
d="M42 0v712h102v-426h2l123 221h102l-121 -206l146 -301h-111l-92 219l-49 -77v-142h-102z" />
    <glyph glyph-name="l" unicode="l" horiz-adv-x="186" 
d="M36 712h102v-569q0 -29 10.5 -39.5t39.5 -13.5v-96q-35 0 -63 5.5t-48 21.5q-20 15 -30.5 42.5t-10.5 72.5v576z" />
    <glyph glyph-name="m" unicode="m" horiz-adv-x="592" 
d="M42 0v507h102v-49h2q16 24 38.5 39.5t57.5 15.5q33 0 55 -16t36 -35q19 21 42 36t64 15q19 0 39 -6.5t36 -21.5t26 -38.5t10 -57.5v-389h-102v351q0 28 -13 44t-37 16q-29 0 -40 -18t-11 -52v-341h-102v351q0 28 -13 44t-37 16q-29 0 -40 -18t-11 -52v-341h-102z" />
    <glyph glyph-name="n" unicode="n" horiz-adv-x="389" 
d="M42 0v507h102v-49h2q16 24 38.5 39.5t57.5 15.5q19 0 38 -6.5t34 -21.5t24 -38.5t9 -57.5v-389h-102v351q0 28 -13 44t-37 16q-29 0 -40 -18t-11 -52v-341h-102z" />
    <glyph glyph-name="o" unicode="o" 
d="M33 337q0 31 4 57t15 46q18 33 51.5 53t81.5 20t81.5 -20t51.5 -53q11 -20 15 -46t4 -57v-167q0 -31 -4 -57t-15 -46q-18 -33 -51.5 -53t-81.5 -20t-81.5 20t-51.5 53q-11 20 -15 46t-4 57v167zM135 154q0 -29 13.5 -43.5t36.5 -14.5t36.5 14.5t13.5 43.5v199
q0 29 -13.5 43.5t-36.5 14.5t-36.5 -14.5t-13.5 -43.5v-199z" />
    <glyph glyph-name="p" unicode="p" horiz-adv-x="389" 
d="M42 -205v712h102v-46q19 22 39 37t58 15q63 0 89 -48q9 -17 13 -42t4 -67v-193q0 -56 -3 -81q-6 -50 -46 -75q-20 -13 -58 -13q-30 0 -53.5 13.5t-40.5 38.5h-2v-251h-102zM245 342q0 31 -12 50t-38 19q-23 0 -37 -17.5t-14 -45.5v-197q0 -24 14.5 -39.5t36.5 -15.5
q29 0 39.5 18t10.5 42v186z" />
    <glyph glyph-name="q" unicode="q" horiz-adv-x="389" 
d="M245 -205v251h-2q-17 -25 -40.5 -38.5t-53.5 -13.5q-37 0 -57.5 13t-33.5 33q-10 16 -13 42q-3 25 -3 81v193q0 42 4 67t13 42q25 48 89 48q19 0 33 -4t25 -11t20 -16.5t19 -20.5v46h102v-712h-102zM144 156q0 -24 10.5 -42t39.5 -18q22 0 36.5 15.5t14.5 39.5v197
q0 28 -14 45.5t-37 17.5q-26 0 -38 -19t-12 -50v-186z" />
    <glyph glyph-name="r" unicode="r" horiz-adv-x="278" 
d="M42 0v507h102v-54q31 28 61 44t74 16v-108q-15 6 -31 6t-34.5 -5.5t-33.5 -18.5q-16 -13 -26 -34t-10 -52v-301h-102z" />
    <glyph glyph-name="s" unicode="s" horiz-adv-x="352" 
d="M227 365q-1 26 -16.5 39t-35.5 13q-24 0 -37 -15.5t-13 -35.5q0 -14 7 -27.5t36 -24.5l60 -24q57 -22 78.5 -60t21.5 -83q0 -32 -11.5 -59.5t-31.5 -48.5t-48 -33t-61 -12q-62 0 -104 39q-21 19 -34 47.5t-14 66.5h96q3 -21 14.5 -39t40.5 -18q22 0 39.5 14.5t17.5 40.5
q0 21 -11 36t-40 26l-49 18q-48 18 -75.5 53.5t-27.5 86.5q0 32 12 59.5t33 47.5q20 20 47 30.5t58 10.5t57.5 -11t45.5 -31t30 -47.5t11 -58.5h-96z" />
    <glyph glyph-name="t" unicode="t" horiz-adv-x="204" 
d="M42 507v154h102v-154h63v-80h-63v-281q0 -18 3.5 -28t11.5 -15t19.5 -6t28.5 -1v-96h-42q-35 0 -58.5 11t-37.5 28t-20.5 38.5t-6.5 41.5v308h-51v80h51z" />
    <glyph glyph-name="u" unicode="u" horiz-adv-x="389" 
d="M347 507v-507h-102v49h-2q-16 -24 -38.5 -39.5t-57.5 -15.5q-19 0 -38 6.5t-34 21.5t-24 38.5t-9 57.5v389h102v-351q0 -28 13 -44t37 -16q29 0 40 18t11 52v341h102z" />
    <glyph glyph-name="v" unicode="v" horiz-adv-x="352" 
d="M353 507l-132 -507h-90l-132 507h108l68 -324h2l68 324h108z" />
    <glyph glyph-name="w" unicode="w" horiz-adv-x="536" 
d="M535 507l-120 -507h-90l-56 301h-2l-56 -301h-90l-120 507h108l62 -315h2l57 315h80l54 -315h2l61 315h108z" />
    <glyph glyph-name="x" unicode="x" horiz-adv-x="332" 
d="M-11 0l125 259l-119 248h108l63 -144l63 144h108l-121 -248l127 -259h-108l-69 155l-69 -155h-108z" />
    <glyph glyph-name="y" unicode="y" horiz-adv-x="352" 
d="M-1 507h108l70 -316h2l69 316h105l-146 -595q-8 -34 -22.5 -56t-33.5 -36t-40.5 -19.5t-44.5 -5.5h-28v96h23q15 0 26 4t20 18q8 14 15 39.5t16 70.5z" />
    <glyph glyph-name="z" unicode="z" horiz-adv-x="315" 
d="M17 0v81l165 336h-152v90h268v-81l-165 -330h165v-96h-281z" />
    <glyph glyph-name="braceleft" unicode="{" horiz-adv-x="222" 
d="M3 337q28 0 46 31.5t18 80.5v152q0 54 29 82.5t69 28.5h54v-60h-18q-24 0 -34 -17.5t-10 -48.5v-151q0 -33 -7 -56.5t-17 -38.5t-22.5 -23t-22.5 -10v-2q10 -2 22.5 -9.5t22.5 -22.5t17 -39t7 -58v-149q0 -32 10 -49.5t34 -17.5h18v-60h-54q-40 0 -69 28.5t-29 82.5v151
q0 51 -18 83t-46 32v60z" />
    <glyph glyph-name="bar" unicode="|" horiz-adv-x="222" 
d="M71 -250v1000h80v-1000h-80z" />
    <glyph glyph-name="braceright" unicode="}" horiz-adv-x="222" 
d="M219 277q-28 0 -46 -32t-18 -83v-151q0 -54 -29 -82.5t-69 -28.5h-54v60h18q24 0 34 17.5t10 49.5v149q0 34 7 58t17 39t22 22.5t23 9.5v2q-11 2 -23 10t-22 23t-17 38.5t-7 56.5v151q0 31 -10 48.5t-34 17.5h-18v60h54q40 0 69 -28.5t29 -82.5v-152q0 -49 18 -80.5
t46 -31.5v-60z" />
    <glyph glyph-name="asciitilde" unicode="~" horiz-adv-x="600" 
d="M531 265q-8 -16 -19.5 -31.5t-26.5 -27.5q-15 -13 -34.5 -20.5t-44.5 -7.5q-26 0 -54 9.5t-57 23.5q-14 6 -27.5 12t-27.5 12q-27 12 -47 12q-15 0 -27 -6.5t-23 -16.5t-20 -22.5t-18 -25.5l-36 64q8 16 19.5 31.5t26.5 28.5q15 12 34.5 19.5t44.5 7.5q26 0 54 -9.5
t57 -23.5q14 -6 27.5 -12t27.5 -12q27 -12 47 -12q15 0 27.5 6.5t23.5 16.5q11 11 19 23q5 7 9 13t9 13z" />
    <glyph glyph-name="exclamdown" unicode="&#xa1;" horiz-adv-x="240" 
d="M56 -205l39 536h50l39 -536h-128zM69 405v102h102v-102h-102z" />
    <glyph glyph-name="cent" unicode="&#xa2;" horiz-adv-x="372" 
d="M164 411q-12 -4 -20 -18.5t-8 -35.5v-215q0 -36 28 -46v315zM164 -90v84q-38 3 -66.5 22t-44.5 48q-11 20 -15 46t-4 57v172q0 31 4 57t15 46q16 29 44.5 48t66.5 23v75h41v-75q63 -5 98 -49t35 -113h-102q0 26 -8 40.5t-23 19.5v-315q17 6 23 20.5t8 30.5h102
q0 -33 -10.5 -61.5t-30.5 -48.5q-17 -18 -40 -29.5t-52 -13.5v-84h-41z" />
    <glyph glyph-name="sterling" unicode="&#xa3;" horiz-adv-x="372" 
d="M13 298v71h55q-19 35 -28.5 68t-9.5 84q0 39 9 75t29 63t50.5 43t73.5 16q25 0 51 -9.5t48 -29.5q21 -20 35 -50.5t14 -73.5v-45h-96v40q0 27 -11.5 49.5t-43.5 22.5q-35 0 -49 -30t-14 -72q0 -39 10 -79t22 -72h116v-71h-93q7 -19 12.5 -37.5t5.5 -50.5q0 -30 -9 -57
t-23 -52q16 -2 39 -6q11 -2 21.5 -3.5t21.5 -1.5q17 0 32.5 5t33.5 27l68 -69q-23 -32 -49.5 -45.5t-61.5 -13.5q-14 0 -36 3t-46 7q-24 3 -47.5 6t-40.5 3q-22 0 -45.5 -5.5t-33.5 -10.5v86q8 5 27.5 11.5t36.5 8.5q13 19 20 41.5t7 45.5q0 22 -6 51.5t-17 56.5h-78z" />
    <glyph glyph-name="fraction" unicode="&#x2044;" horiz-adv-x="167" 
d="M-165 -17l437 746h60l-437 -746h-60z" />
    <glyph glyph-name="yen" unicode="&#xa5;" horiz-adv-x="372" 
d="M138 0v172h-114v66h114v49h-114v66h98l-118 359h102l79 -283h2l79 283h102l-118 -359h98v-66h-114v-49h114v-66h-114v-172h-96z" />
    <glyph glyph-name="florin" unicode="&#x192;" horiz-adv-x="372" 
d="M45 371l11 80h84l23 128q8 43 21.5 70t31.5 43q18 15 40 20.5t46 5.5q14 0 29 -1t35 -3l-14 -92q-5 1 -9.5 2t-9.5 2t-10 1.5t-10 0.5q-26 0 -39 -15.5t-20 -58.5l-18 -103h77l-13 -80h-78l-71 -398q-7 -38 -17.5 -70.5t-28.5 -55.5t-45 -36t-67 -13q-17 0 -28.5 2
t-24.5 6l11 94q18 -6 40 -6q26 0 40 16t19 44l75 417h-80z" />
    <glyph glyph-name="section" unicode="&#xa7;" 
d="M325 535h-85v42q0 23 -12.5 42t-37.5 19q-32 0 -42 -21.5t-10 -51.5q0 -18 1 -29.5t6 -19.5q5 -9 14 -17t26 -18l97 -63q18 -12 29 -23.5t17 -28.5q5 -17 7 -42.5t2 -64.5q0 -36 -2 -60.5t-11 -42.5t-26.5 -31t-47.5 -27q25 -13 40 -25t23 -28t10 -37t2 -51q0 -42 -5 -67
t-20 -47q-17 -25 -48.5 -39.5t-65.5 -14.5q-42 0 -68.5 14t-43.5 36q-17 21 -24 46t-7 47v42h85v-41q0 -26 15.5 -45t39.5 -19q31 0 44 19t13 59q0 19 -1.5 31t-4.5 21q-4 8 -10 14t-16 12l-118 72q-38 23 -48 58q-6 19 -7.5 44t-1.5 60q0 43 4 72t15 48t28 30.5t45 20.5
q-25 12 -38.5 25t-21.5 29q-8 15 -10 34.5t-2 45.5q0 39 11 68t30 48q18 19 43 28.5t53 9.5q25 0 49 -8.5t43 -25.5t31 -43t12 -60v-46zM135 213q0 -22 14.5 -37.5t35.5 -15.5q20 0 35 15.5t15 37.5v99q0 22 -15 37.5t-35 15.5q-21 0 -35.5 -15.5t-14.5 -37.5v-99z" />
    <glyph glyph-name="currency" unicode="&#xa4;" horiz-adv-x="372" 
d="M4 214l42 42q-16 17 -25.5 43.5t-9.5 56.5t9 56.5t25 43.5l-41 42l41 41l41 -42q17 15 43.5 24.5t56.5 9.5t56.5 -9t44.5 -25l41 42l40 -41l-41 -41q16 -18 25 -44.5t9 -56.5q0 -31 -9.5 -57t-24.5 -43l41 -41l-41 -41l-41 41q-17 -16 -43.5 -25t-56.5 -9t-56.5 9.5
t-43.5 25.5l-41 -42zM77 356q0 -45 32 -77q15 -15 34.5 -23.5t42.5 -8.5q22 0 42 8.5t35 23.5q32 32 32 77q0 22 -8.5 42t-23.5 35q-32 32 -77 32t-77 -32q-15 -15 -23.5 -35t-8.5 -42z" />
    <glyph glyph-name="quotesingle" unicode="'" horiz-adv-x="186" 
d="M53 536v176h80v-176h-80z" />
    <glyph glyph-name="quotedblleft" unicode="&#x201c;" horiz-adv-x="278" 
d="M260 712v-176h-102v102zM120 712v-176h-102v102z" />
    <glyph glyph-name="guillemotleft" unicode="&#xab;" horiz-adv-x="426" 
d="M398 479v-102l-101 -100l101 -100v-102l-203 202zM213 479v-102l-101 -100l101 -100v-102l-203 202z" />
    <glyph glyph-name="guilsinglleft" unicode="&#x2039;" horiz-adv-x="241" 
d="M213 479v-102l-101 -100l101 -100v-102l-203 202z" />
    <glyph glyph-name="guilsinglright" unicode="&#x203a;" horiz-adv-x="241" 
d="M28 75v102l101 100l-101 100v102l203 -202z" />
    <glyph glyph-name="endash" unicode="&#x2013;" horiz-adv-x="500" 
d="M0 229v96h500v-96h-500z" />
    <glyph glyph-name="dagger" unicode="&#x2020;" 
d="M140 -205v601h-134v90h134v226h90v-226h134v-90h-134v-601h-90z" />
    <glyph glyph-name="daggerdbl" unicode="&#x2021;" 
d="M140 494v218h90v-218h134v-80h-134v-321h134v-80h-134v-218h-90v218h-134v80h134v321h-134v80h134z" />
    <glyph glyph-name="periodcentered" unicode="&#xb7;" horiz-adv-x="186" 
d="M29 298q0 26 19 45t45 19t45 -19t19 -45t-19 -45t-45 -19t-45 19t-19 45z" />
    <glyph glyph-name="paragraph" unicode="&#xb6;" horiz-adv-x="444" 
d="M182 -205v539q-33 0 -64 14.5t-55 39.5q-25 25 -40 59t-15 73q0 49 16 85t45 60t68.5 35.5t88.5 11.5h172v-917h-72v866h-72v-866h-72z" />
    <glyph glyph-name="bullet" unicode="&#x2022;" horiz-adv-x="500" 
d="M72 356q0 37 14 69.5t38 56.5t56.5 38t69.5 14t69.5 -14t56.5 -38t38 -56.5t14 -69.5t-14 -69.5t-38 -56.5t-56.5 -38t-69.5 -14t-69.5 14t-56.5 38t-38 56.5t-14 69.5z" />
    <glyph glyph-name="quotesinglbase" unicode="&#x201a;" horiz-adv-x="186" 
d="M42 -74v176h102v-102z" />
    <glyph glyph-name="quotedblbase" unicode="&#x201e;" horiz-adv-x="278" 
d="M18 -74v176h102v-102zM158 -74v176h102v-102z" />
    <glyph glyph-name="quotedblright" unicode="&#x201d;" horiz-adv-x="278" 
d="M18 536v176h102v-102zM158 536v176h102v-102z" />
    <glyph glyph-name="guillemotright" unicode="&#xbb;" horiz-adv-x="426" 
d="M213 75v102l101 100l-101 100v102l203 -202zM28 75v102l101 100l-101 100v102l203 -202z" />
    <glyph glyph-name="ellipsis" unicode="&#x2026;" horiz-adv-x="1000" 
d="M116 0v102h102v-102h-102zM449 0v102h102v-102h-102zM782 0v102h102v-102h-102z" />
    <glyph glyph-name="perthousand" unicode="&#x2030;" horiz-adv-x="537" 
d="M418 80q0 -11 7.5 -18.5t17.5 -7.5t17.5 7.5t7.5 18.5v51q0 11 -7.5 18.5t-17.5 7.5t-17.5 -7.5t-7.5 -18.5v-51zM358 135q0 38 23 60t62 22t62 -22t23 -60v-65q0 -34 -23 -55t-62 -21t-62 21t-23 55v65zM69 581q0 -11 7.5 -18.5t17.5 -7.5t17.5 7.5t7.5 18.5v51
q0 11 -7.5 18.5t-17.5 7.5t-17.5 -7.5t-7.5 -18.5v-51zM9 636q0 38 23 60t62 22t62 -22t23 -60v-65q0 -34 -23 -55t-62 -21t-62 21t-23 55v65zM225 80q0 -11 7.5 -18.5t17.5 -7.5t17.5 7.5t7.5 18.5v51q0 11 -7.5 18.5t-17.5 7.5t-17.5 -7.5t-7.5 -18.5v-51zM165 135
q0 38 23 60t62 22t62 -22t23 -60v-65q0 -34 -23 -55t-62 -21t-62 21t-23 55v65zM20 0l244 712h66l-244 -712h-66z" />
    <glyph glyph-name="questiondown" unicode="&#xbf;" 
d="M338 0v-59q0 -32 -12 -59.5t-33 -47.5q-21 -21 -49 -33t-60 -12q-37 0 -67.5 15t-50.5 42q-20 26 -27 52q-7 25 -7 70q0 25 0.5 43t2.5 31t5 22.5t8 17.5l69 118q7 12 12 24.5t5 26.5v80h102v-93q0 -22 -7 -42t-18 -39l-64 -104q-8 -13 -10.5 -28t-2.5 -30v-53
q0 -21 14.5 -36t35.5 -15q18 0 35 13t17 38v58h102zM236 507v-102h-102v102h102z" />
    <glyph glyph-name="grave" unicode="`" horiz-adv-x="186" 
d="M68 715l90 -141h-66l-132 141h108z" />
    <glyph glyph-name="acute" unicode="&#xb4;" horiz-adv-x="186" 
d="M28 574l90 141h108l-132 -141h-66z" />
    <glyph glyph-name="acute" unicode="&#x308;" horiz-adv-x="186" 
d="M28 574l90 141h108l-132 -141h-66z" />
    <glyph glyph-name="circumflex" unicode="&#x2c6;" horiz-adv-x="186" 
d="M-52 574l98 141h94l98 -141h-78l-67 95l-67 -95h-78z" />
    <glyph glyph-name="tilde" unicode="&#x2dc;" horiz-adv-x="186" 
d="M263 699q-5 -23 -12 -43t-19 -35t-29 -24t-41 -9q-12 0 -32.5 6t-42.5 14q-11 4 -21 7t-20 7q-20 6 -28 6q-21 0 -32 -12.5t-12 -32.5h-51q8 49 31 78q12 15 29 24t41 9q12 0 32.5 -6t42.5 -14t41.5 -14t27.5 -6q21 0 32 12.5t12 32.5h51z" />
    <glyph glyph-name="macron" unicode="&#xaf;" horiz-adv-x="186" 
d="M-44 607v60h274v-60h-274z" />
    <glyph glyph-name="breve" unicode="&#x2d8;" horiz-adv-x="186" 
d="M247 715q-21 -136 -154 -136t-154 136h51q2 -14 7.5 -27.5t17.5 -24.5t31 -17.5t47 -6.5t47 6.5t31 17.5t17.5 24.5t7.5 27.5h51z" />
    <glyph glyph-name="dotaccent" unicode="&#x2d9;" horiz-adv-x="186" 
d="M48 586v102h90v-102h-90z" />
    <glyph glyph-name="dieresis" unicode="&#xa8;" horiz-adv-x="186" 
d="M-33 586v102h90v-102h-90zM129 586v102h90v-102h-90z" />
    <glyph glyph-name="dieresis" unicode="&#x301;" horiz-adv-x="186" 
d="M-33 586v102h90v-102h-90zM129 586v102h90v-102h-90z" />
    <glyph glyph-name="ring" unicode="&#x2da;" horiz-adv-x="186" 
d="M-9 660q0 42 30 72t72 30t72 -30t30 -72t-30 -72t-72 -30t-72 30t-30 72zM32 660q0 -26 17.5 -43.5t43.5 -17.5t43.5 17.5t17.5 43.5t-17.5 43.5t-43.5 17.5t-43.5 -17.5t-17.5 -43.5z" />
    <glyph glyph-name="cedilla" unicode="&#xb8;" horiz-adv-x="186" 
d="M20 -86l65 86h46l-46 -60q8 1 15.5 1.5t15.5 0.5q25 0 41 -7t26 -18q10 -12 14 -25t4 -25q0 -24 -11.5 -41.5t-29.5 -28.5t-39.5 -16t-42.5 -5q-29 0 -54 7t-39 12l17 42q16 -6 32 -10.5t33 -4.5q8 0 17.5 1.5t17.5 6.5q19 10 19 33q0 17 -14 27.5t-31 10.5q-22 0 -39 -7
z" />
    <glyph glyph-name="hungarumlaut" unicode="&#x2dd;" horiz-adv-x="186" 
d="M-54 574l90 141h108l-132 -141h-66zM108 574l90 141h108l-132 -141h-66z" />
    <glyph glyph-name="ogonek" unicode="&#x2db;" horiz-adv-x="186" 
d="M195 -202q-15 -8 -39.5 -15t-57.5 -7q-42 0 -70.5 24.5t-28.5 66.5q0 24 7 43t20 35q13 15 29.5 28t36.5 27h51q-30 -29 -47 -62t-17 -64q0 -24 14.5 -38t34.5 -14q17 0 29.5 3.5t23.5 9.5z" />
    <glyph glyph-name="caron" unicode="&#x2c7;" horiz-adv-x="186" 
d="M238 715l-98 -141h-94l-98 141h78l67 -95l67 95h78z" />
    <glyph glyph-name="emdash" unicode="&#x2014;" horiz-adv-x="1000" 
d="M0 229v96h1000v-96h-1000z" />
    <glyph glyph-name="AE" unicode="&#xc6;" horiz-adv-x="611" 
d="M2 0l202 712h389v-96h-202v-209h176v-96h-176v-209h202v-102h-304v153h-140l-39 -153h-108zM289 249v367h-24l-92 -367h116z" />
    <glyph glyph-name="ordfeminine" unicode="&#xaa;" horiz-adv-x="240" 
d="M154 410v31h-2q-13 -17 -26 -26t-37 -9q-12 0 -25 3t-24 12t-18.5 25t-7.5 42q0 52 23 79t85 27q7 0 14 -0.5t18 -1.5v24q0 15 -7.5 25.5t-25.5 10.5q-13 0 -24 -6.5t-13 -23.5h-66q3 45 30.5 70.5t72.5 25.5q44 0 74 -24q14 -12 22.5 -30t8.5 -42v-212h-72zM154 541
q-5 1 -9.5 1.5t-8.5 0.5q-22 0 -36 -9.5t-14 -34.5q0 -29 32 -29q17 0 26.5 10t9.5 24v37z" />
    <glyph glyph-name="Lslash" unicode="&#x141;" 
d="M48 0v265l-48 -38v90l48 38v357h102v-277l120 96v-90l-120 -96v-243h202v-102h-304z" />
    <glyph glyph-name="Oslash" unicode="&#xd8;" horiz-adv-x="426" 
d="M10 -16l50 103q-18 34 -18 81v376q0 43 15 76t40 55q24 21 54.5 32t61.5 11q34 0 66.5 -13t58.5 -39l40 84l38 -22l-50 -103q8 -16 13 -36.5t5 -44.5v-376q0 -45 -15 -77t-39 -53q-25 -22 -55.5 -33t-61.5 -11q-35 0 -68 13t-57 39l-40 -84zM146 262l136 287
q-2 35 -22.5 51t-46.5 16q-28 0 -48.5 -17.5t-20.5 -54.5v-282h2zM280 449l-136 -286q2 -34 22 -50.5t47 -16.5q28 0 48.5 17.5t20.5 54.5v281h-2z" />
    <glyph glyph-name="OE" unicode="&#x152;" horiz-adv-x="610" 
d="M592 712v-96h-202v-209h176v-96h-176v-209h202v-102h-304v34h-2q-13 -17 -36.5 -28.5t-48.5 -11.5q-36 0 -64 13.5t-48 37.5q-20 23 -30.5 53.5t-10.5 64.5v386q0 34 10.5 64.5t30.5 53.5t48 37t64 14q33 0 53.5 -12.5t31.5 -29.5h2v36h304zM288 554q0 30 -18.5 52
t-50.5 22t-50.5 -22t-18.5 -52v-396q0 -30 18.5 -52t50.5 -22t50.5 22t18.5 52v396z" />
    <glyph glyph-name="ordmasculine" unicode="&#xba;" horiz-adv-x="240" 
d="M18 619q0 43 27 71t75 28t75 -28t27 -71v-114q0 -43 -27 -71t-75 -28t-75 28t-27 71v114zM90 506q0 -34 30 -34t30 34v111q0 35 -30 35t-30 -35v-111z" />
    <glyph glyph-name="ae" unicode="&#xe6;" horiz-adv-x="572" 
d="M337 295h100v58q0 29 -13.5 43.5t-36.5 14.5t-36.5 -14.5t-13.5 -43.5v-58zM539 215h-202v-69q0 -24 13.5 -37t36.5 -13q29 0 38.5 17t11.5 34h102q0 -67 -42 -109q-21 -20 -49 -32t-61 -12q-51 -1 -84.5 21t-48.5 51q-18 -36 -49.5 -54t-69.5 -18q-18 0 -36.5 5.5
t-35.5 20.5q-17 14 -27.5 40.5t-10.5 68.5q0 43 7 75.5t26 54.5q18 21 49 31.5t79 10.5h11t11 -1t12 -1t15 -1v53q0 26 -11 43t-40 17q-20 0 -36.5 -13t-21.5 -38h-99q5 69 46 110q20 20 48 31.5t63 11.5q32 0 56.5 -9.5t44.5 -26.5q19 17 46 26.5t56 9.5q35 0 63.5 -12
t48.5 -33q40 -45 40 -113v-140zM235 218q-17 3 -28 3q-33 0 -56.5 -15.5t-23.5 -56.5q0 -29 14 -47t39 -18q26 0 40.5 17t14.5 48v69z" />
    <glyph glyph-name="dotlessi" unicode="&#x131;" horiz-adv-x="186" 
d="M42 0v507h102v-507h-102z" />
    <glyph glyph-name="lslash" unicode="&#x142;" horiz-adv-x="186" 
d="M36 308l-50 -44v72l50 44v332h102v-242l50 43v-72l-50 -43v-255q0 -29 10.5 -39.5t39.5 -13.5v-96q-35 0 -63 5.5t-48 21.5q-20 15 -30.5 42.5t-10.5 72.5v172z" />
    <glyph glyph-name="oslash" unicode="&#xf8;" 
d="M137 209l95 163q-6 39 -47 39q-23 0 -36.5 -14.5t-13.5 -43.5v-144h2zM233 298l-95 -163q6 -39 47 -39q23 0 36.5 14.5t13.5 43.5v144h-2zM4 -12l49 83q-20 42 -20 87v191q0 36 10.5 66t30.5 52q20 21 48 33.5t63 12.5q65 0 106 -42l41 69l34 -21l-49 -83q20 -42 20 -87
v-191q0 -74 -40 -117q-20 -22 -48.5 -34.5t-63.5 -12.5q-66 0 -106 42l-41 -69z" />
    <glyph glyph-name="oe" unicode="&#x153;" horiz-adv-x="572" 
d="M33 337q0 31 4 57t15 46q18 33 51.5 53t81.5 20q32 0 58 -10t43 -24q40 34 101 34q35 0 63.5 -12t48.5 -33q40 -45 40 -113v-140h-202v-69q0 -24 13.5 -37t36.5 -13q29 0 38.5 17t11.5 34h102q0 -67 -41 -108q-20 -21 -48 -33t-63 -12q-28 0 -58 8.5t-47 26.5
q-17 -16 -42.5 -25.5t-54.5 -9.5q-48 0 -81.5 20t-51.5 53q-11 20 -15 46t-4 57v167zM135 154q0 -29 13.5 -43.5t36.5 -14.5t36.5 14.5t13.5 43.5v199q0 29 -13.5 43.5t-36.5 14.5t-36.5 -14.5t-13.5 -43.5v-199zM337 295h100v58q0 29 -13.5 43.5t-36.5 14.5t-36.5 -14.5
t-13.5 -43.5v-58z" />
    <glyph glyph-name="germandbls" unicode="&#xdf;" horiz-adv-x="389" 
d="M42 0v552q0 33 9 63t28 53q18 23 46.5 36.5t67.5 13.5q43 0 72.5 -14t47.5 -38q18 -25 26 -58.5t8 -71.5q0 -27 -2.5 -45t-8.5 -32q-7 -14 -18.5 -24.5t-29.5 -22.5q29 -16 44 -40t15 -62v-176q0 -48 -12.5 -75t-32.5 -41q-20 -15 -46.5 -19.5t-54.5 -4.5v96q22 0 33 9.5
t11 41.5v190q0 20 -11.5 26.5t-32.5 6.5v90q23 0 33.5 7.5t10.5 31.5v80q0 21 -9.5 35t-38.5 14t-41 -18.5t-12 -69.5v-534h-102z" />
    <glyph glyph-name="logicalnot" unicode="&#xac;" horiz-adv-x="600" 
d="M473 113v200h-426v80h506v-280h-80z" />
    <glyph glyph-name="uni00B5" unicode="&#xb5;" horiz-adv-x="389" 
d="M347 507v-507h-102v49h-2q-7 -14 -15.5 -24.5t-16.5 -17.5q-16 -13 -34 -13q-21 0 -31 10h-2v-209h-102v712h102v-351q0 -28 13 -44t37 -16q29 0 40 18t11 52v341h102z" />
    <glyph glyph-name="trademark" unicode="&#x2122;" horiz-adv-x="990" 
d="M166 300v346h-127v66h326v-66h-127v-346h-72zM805 300v346h-2l-137 -346h-41l-136 346h-2v-346h-72v412h114l117 -301l117 301h114v-412h-72z" />
    <glyph glyph-name="Eth" unicode="&#xd0;" horiz-adv-x="426" 
d="M150 616v-200h70v-66h-70v-254h47q43 0 61 21.5t18 67.5v343q0 42 -17 65t-62 23h-47zM48 0v350h-48v66h48v296h151q88 0 133.5 -48t45.5 -136v-333q0 -100 -48.5 -147.5t-139.5 -47.5h-142z" />
    <glyph glyph-name="onehalf" unicode="&#xbd;" horiz-adv-x="555" 
d="M18 -17l437 746h60l-437 -746h-60zM77 287v353l-66 -43v72l66 43h80v-425h-80zM322 0v54l130 212q5 9 8.5 18.5t3.5 20.5v23q0 15 -10 23t-21 8q-13 0 -22 -8t-9 -23v-31h-80v36q0 42 32 70t80 28q22 0 42 -7t35 -19t24 -28.5t9 -36.5v-33q0 -26 -6 -42t-17 -33l-95 -160
h118v-72h-222z" />
    <glyph glyph-name="plusminus" unicode="&#xb1;" horiz-adv-x="600" 
d="M260 104v161h-213v80h213v161h80v-161h213v-80h-213v-161h-80zM47 0v80h506v-80h-506z" />
    <glyph glyph-name="Thorn" unicode="&#xde;" horiz-adv-x="407" 
d="M48 0v712h102v-124h51q42 0 74 -11t58 -39t36 -65.5t10 -101.5q0 -48 -5.5 -81t-23.5 -62q-21 -35 -56 -54.5t-92 -19.5h-52v-154h-102zM150 492v-242h49q31 0 48 9t25 25q8 15 9.5 37t1.5 49q0 25 -1 47.5t-9 39.5t-24 26t-46 9h-53z" />
    <glyph glyph-name="onequarter" unicode="&#xbc;" horiz-adv-x="555" 
d="M18 -17l437 746h60l-437 -746h-60zM77 287v353l-66 -43v72l66 43h80v-425h-80zM434 0v62h-143v62l98 303h80l-94 -299h59v115h80v-115h30v-66h-30v-62h-80z" />
    <glyph glyph-name="divide" unicode="&#xf7;" horiz-adv-x="600" 
d="M47 213v80h506v-80h-506zM236 46q0 26 19 45t45 19t45 -19t19 -45t-19 -45t-45 -19t-45 19t-19 45zM236 460q0 26 19 45t45 19t45 -19t19 -45t-19 -45t-45 -19t-45 19t-19 45z" />
    <glyph glyph-name="brokenbar" unicode="&#xa6;" horiz-adv-x="222" 
d="M71 -175v350h80v-350h-80zM71 325v350h80v-350h-80z" />
    <glyph glyph-name="degree" unicode="&#xb0;" horiz-adv-x="260" 
d="M69 606q0 -26 17.5 -43.5t43.5 -17.5t43.5 17.5t17.5 43.5t-17.5 43.5t-43.5 17.5t-43.5 -17.5t-17.5 -43.5zM18 606q0 23 9 43.5t24 35.5t35.5 24t43.5 9t43.5 -9t35.5 -24t24 -35.5t9 -43.5t-9 -43.5t-24 -35.5t-35.5 -24t-43.5 -9t-43.5 9t-35.5 24t-24 35.5t-9 43.5z
" />
    <glyph glyph-name="thorn" unicode="&#xfe;" horiz-adv-x="389" 
d="M42 -205v917h102v-251q19 22 39 37t58 15q63 0 89 -48q9 -17 13 -42t4 -67v-193q0 -56 -3 -81q-6 -50 -46 -75q-20 -13 -58 -13q-30 0 -53.5 13.5t-40.5 38.5h-2v-251h-102zM245 342q0 31 -12 50t-38 19q-23 0 -37 -17.5t-14 -45.5v-197q0 -24 14.5 -39.5t36.5 -15.5
q29 0 39.5 18t10.5 42v186z" />
    <glyph glyph-name="threequarters" unicode="&#xbe;" horiz-adv-x="555" 
d="M37 -17l437 746h60l-437 -746h-60zM100 540q29 0 39.5 6.5t11.5 27.5v42q0 13 -8 21.5t-22 8.5q-16 0 -23 -10.5t-7 -19.5v-26h-80v32q0 42 30.5 69t81.5 27q28 0 48 -8.5t34 -22.5q14 -15 20 -33t6 -36v-41q0 -22 -7 -38.5t-34 -30.5q24 -14 32.5 -31t8.5 -42v-51
q0 -18 -5.5 -36.5t-19.5 -32.5t-35 -23t-50 -9q-20 0 -40 5t-35 16q-16 11 -25.5 29t-9.5 44v34h80v-23q0 -15 8 -24t22 -9q13 0 21.5 9.5t8.5 20.5v52q0 23 -10 30t-41 7v66zM434 0v62h-143v62l98 303h80l-94 -299h59v115h80v-115h30v-66h-30v-62h-80z" />
    <glyph glyph-name="registered" unicode="&#xae;" horiz-adv-x="800" 
d="M329 507v-119h75q49 0 73.5 14.5t24.5 48.5q0 29 -21.5 42.5t-55.5 13.5h-96zM263 145v422h160q145 0 145 -119q0 -30 -8.5 -51t-23.5 -35t-34.5 -21.5t-41.5 -10.5l121 -185h-80l-121 183h-51v-183h-66zM690 356q0 61 -23 115t-62 94t-92 63.5t-113 23.5t-113 -23.5
t-92 -63.5t-62 -94t-23 -115t23 -115t62 -94t92 -63.5t113 -23.5t113 23.5t92 63.5t62 94t23 115zM38 356q0 75 28.5 141t77.5 115t115 77.5t141 28.5t141 -28.5t115 -77.5t77.5 -115t28.5 -141t-28.5 -141t-77.5 -115t-115 -77.5t-141 -28.5t-141 28.5t-115 77.5t-77.5 115
t-28.5 141z" />
    <glyph glyph-name="minus" unicode="&#x2212;" horiz-adv-x="600" 
d="M47 213v80h506v-80h-506z" />
    <glyph glyph-name="eth" unicode="&#xf0;" 
d="M135 154q0 -29 13.5 -43.5t36.5 -14.5t36.5 14.5t13.5 43.5v199q0 29 -13.5 43.5t-36.5 14.5t-36.5 -14.5t-13.5 -43.5v-199zM86 608l69 32q-27 23 -77 43l83 44q47 -17 80 -47l68 32l28 -40l-63 -29q19 -25 31 -53.5t19 -59.5t10 -62t3 -60v-238q0 -31 -4 -57t-15 -46
q-18 -33 -51.5 -53t-81.5 -20t-81.5 20t-51.5 53q-11 20 -15 46t-4 57v167q0 31 4 57t15 46q18 33 51.5 53t81.5 20q14 0 27 -6.5t21 -16.5l2 2q-8 35 -19 62.5t-28 48.5l-74 -35z" />
    <glyph glyph-name="multiply" unicode="&#xd7;" horiz-adv-x="600" 
d="M67 77l177 176l-177 177l57 56l176 -176l177 176l56 -56l-176 -177l176 -176l-56 -57l-177 177l-176 -177z" />
    <glyph glyph-name="copyright" unicode="&#xa9;" horiz-adv-x="800" 
d="M590 287q-14 -71 -62 -113q-49 -43 -115 -43q-49 0 -88.5 17.5t-67.5 48.5q-28 30 -43 70.5t-15 88.5q0 49 14.5 90.5t41.5 71.5t65.5 47t89.5 17q69 0 119 -39t61 -112h-66q-7 36 -39 61q-32 24 -74 24q-33 0 -59 -12.5t-44 -33.5q-37 -45 -37 -112q0 -64 39 -111
q18 -23 44.5 -36.5t58.5 -13.5q43 0 73.5 26t37.5 64h66zM690 356q0 61 -23 115t-62 94t-92 63.5t-113 23.5t-113 -23.5t-92 -63.5t-62 -94t-23 -115t23 -115t62 -94t92 -63.5t113 -23.5t113 23.5t92 63.5t62 94t23 115zM38 356q0 75 28.5 141t77.5 115t115 77.5t141 28.5
t141 -28.5t115 -77.5t77.5 -115t28.5 -141t-28.5 -141t-77.5 -115t-115 -77.5t-141 -28.5t-141 28.5t-115 77.5t-77.5 115t-28.5 141z" />
    <glyph glyph-name="Aacute" unicode="&#xc1;" horiz-adv-x="407" 
d="M254 249l-50 258h-2l-50 -258h102zM2 0l159 712h85l159 -712h-102l-30 153h-139l-30 -153h-102zM139 744l90 141h108l-132 -141h-66z" />
    <glyph glyph-name="Acircumflex" unicode="&#xc2;" horiz-adv-x="407" 
d="M254 249l-50 258h-2l-50 -258h102zM2 0l159 712h85l159 -712h-102l-30 153h-139l-30 -153h-102zM59 744l98 141h94l98 -141h-78l-67 95l-67 -95h-78z" />
    <glyph glyph-name="Adieresis" unicode="&#xc4;" horiz-adv-x="407" 
d="M254 249l-50 258h-2l-50 -258h102zM2 0l159 712h85l159 -712h-102l-30 153h-139l-30 -153h-102zM78 756v102h90v-102h-90zM240 756v102h90v-102h-90z" />
    <glyph glyph-name="Agrave" unicode="&#xc0;" horiz-adv-x="407" 
d="M254 249l-50 258h-2l-50 -258h102zM2 0l159 712h85l159 -712h-102l-30 153h-139l-30 -153h-102zM179 885l90 -141h-66l-132 141h108z" />
    <glyph glyph-name="Aring" unicode="&#xc5;" horiz-adv-x="407" 
d="M254 249l-50 258h-2l-50 -258h102zM2 0l159 712h85l159 -712h-102l-30 153h-139l-30 -153h-102zM102 835q0 42 30 72t72 30t72 -30t30 -72t-30 -72t-72 -30t-72 30t-30 72zM143 835q0 -26 17.5 -43.5t43.5 -17.5t43.5 17.5t17.5 43.5t-17.5 43.5t-43.5 17.5t-43.5 -17.5
t-17.5 -43.5z" />
    <glyph glyph-name="Atilde" unicode="&#xc3;" horiz-adv-x="407" 
d="M254 249l-50 258h-2l-50 -258h102zM2 0l159 712h85l159 -712h-102l-30 153h-139l-30 -153h-102zM374 869q-5 -23 -12 -43t-19 -35t-29 -24t-41 -9q-12 0 -32.5 6t-42.5 14q-11 4 -21 7t-20 7q-20 6 -28 6q-21 0 -32 -12.5t-12 -32.5h-51q8 49 31 78q12 15 29 24t41 9
q12 0 32.5 -6t42.5 -14t41.5 -14t27.5 -6q21 0 32 12.5t12 32.5h51z" />
    <glyph glyph-name="Ccedilla" unicode="&#xc7;" horiz-adv-x="407" 
d="M131 -86l61 80q-27 2 -54 12t-48 30q-22 20 -35 50.5t-13 75.5v392q0 35 12 65t34 52t52.5 34.5t67.5 12.5q72 0 117 -47q22 -23 34.5 -54.5t12.5 -68.5v-40h-102v34q0 30 -17 52t-46 22q-38 0 -50.5 -23.5t-12.5 -59.5v-364q0 -31 13.5 -52t48.5 -21q10 0 21.5 3.5
t21.5 11.5q9 8 15 22t6 35v35h102v-44q0 -29 -10 -56t-27 -49q-18 -22 -42.5 -37t-53.5 -21l-43 -56q8 1 15.5 1.5t15.5 0.5q25 0 41 -7t26 -18q10 -12 14 -25t4 -25q0 -24 -11.5 -41.5t-29.5 -28.5t-39.5 -16t-42.5 -5q-29 0 -54 7t-39 12l17 42q16 -6 32 -10.5t33 -4.5
q8 0 17.5 1.5t17.5 6.5q19 10 19 33q0 17 -14 27.5t-31 10.5q-22 0 -39 -7z" />
    <glyph glyph-name="Eacute" unicode="&#xc9;" 
d="M48 0v712h304v-96h-202v-209h176v-96h-176v-209h202v-102h-304zM130 744l90 141h108l-132 -141h-66z" />
    <glyph glyph-name="Ecircumflex" unicode="&#xca;" 
d="M48 0v712h304v-96h-202v-209h176v-96h-176v-209h202v-102h-304zM50 744l98 141h94l98 -141h-78l-67 95l-67 -95h-78z" />
    <glyph glyph-name="Edieresis" unicode="&#xcb;" 
d="M48 0v712h304v-96h-202v-209h176v-96h-176v-209h202v-102h-304zM69 756v102h90v-102h-90zM231 756v102h90v-102h-90z" />
    <glyph glyph-name="Egrave" unicode="&#xc8;" 
d="M48 0v712h304v-96h-202v-209h176v-96h-176v-209h202v-102h-304zM170 885l90 -141h-66l-132 141h108z" />
    <glyph glyph-name="Iacute" unicode="&#xcd;" horiz-adv-x="204" 
d="M51 0v712h102v-712h-102zM37 744l90 141h108l-132 -141h-66z" />
    <glyph glyph-name="Icircumflex" unicode="&#xce;" horiz-adv-x="204" 
d="M51 0v712h102v-712h-102zM-43 744l98 141h94l98 -141h-78l-67 95l-67 -95h-78z" />
    <glyph glyph-name="Idieresis" unicode="&#xcf;" horiz-adv-x="204" 
d="M51 0v712h102v-712h-102zM-24 756v102h90v-102h-90zM138 756v102h90v-102h-90z" />
    <glyph glyph-name="Igrave" unicode="&#xcc;" horiz-adv-x="204" 
d="M51 0v712h102v-712h-102zM77 885l90 -141h-66l-132 141h108z" />
    <glyph glyph-name="Ntilde" unicode="&#xd1;" horiz-adv-x="444" 
d="M44 0v712h98l154 -429h2v429h102v-712h-96l-156 428h-2v-428h-102zM392 869q-5 -23 -12 -43t-19 -35t-29 -24t-41 -9q-12 0 -32.5 6t-42.5 14q-11 4 -21 7t-20 7q-20 6 -28 6q-21 0 -32 -12.5t-12 -32.5h-51q8 49 31 78q12 15 29 24t41 9q12 0 32.5 -6t42.5 -14t41.5 -14
t27.5 -6q21 0 32 12.5t12 32.5h51z" />
    <glyph glyph-name="Oacute" unicode="&#xd3;" horiz-adv-x="426" 
d="M42 544q0 43 15 76t40 55q24 21 54.5 32t61.5 11t61.5 -11t55.5 -32q24 -22 39 -55t15 -76v-376q0 -45 -15 -77t-39 -53q-25 -22 -55.5 -33t-61.5 -11t-61.5 11t-54.5 33q-25 21 -40 53t-15 77v376zM144 168q0 -37 20.5 -54.5t48.5 -17.5t48.5 17.5t20.5 54.5v376
q0 37 -20.5 54.5t-48.5 17.5t-48.5 -17.5t-20.5 -54.5v-376zM148 744l90 141h108l-132 -141h-66z" />
    <glyph glyph-name="Ocircumflex" unicode="&#xd4;" horiz-adv-x="426" 
d="M42 544q0 43 15 76t40 55q24 21 54.5 32t61.5 11t61.5 -11t55.5 -32q24 -22 39 -55t15 -76v-376q0 -45 -15 -77t-39 -53q-25 -22 -55.5 -33t-61.5 -11t-61.5 11t-54.5 33q-25 21 -40 53t-15 77v376zM144 168q0 -37 20.5 -54.5t48.5 -17.5t48.5 17.5t20.5 54.5v376
q0 37 -20.5 54.5t-48.5 17.5t-48.5 -17.5t-20.5 -54.5v-376zM68 744l98 141h94l98 -141h-78l-67 95l-67 -95h-78z" />
    <glyph glyph-name="Odieresis" unicode="&#xd6;" horiz-adv-x="426" 
d="M42 544q0 43 15 76t40 55q24 21 54.5 32t61.5 11t61.5 -11t55.5 -32q24 -22 39 -55t15 -76v-376q0 -45 -15 -77t-39 -53q-25 -22 -55.5 -33t-61.5 -11t-61.5 11t-54.5 33q-25 21 -40 53t-15 77v376zM144 168q0 -37 20.5 -54.5t48.5 -17.5t48.5 17.5t20.5 54.5v376
q0 37 -20.5 54.5t-48.5 17.5t-48.5 -17.5t-20.5 -54.5v-376zM87 756v102h90v-102h-90zM249 756v102h90v-102h-90z" />
    <glyph glyph-name="Ograve" unicode="&#xd2;" horiz-adv-x="426" 
d="M42 544q0 43 15 76t40 55q24 21 54.5 32t61.5 11t61.5 -11t55.5 -32q24 -22 39 -55t15 -76v-376q0 -45 -15 -77t-39 -53q-25 -22 -55.5 -33t-61.5 -11t-61.5 11t-54.5 33q-25 21 -40 53t-15 77v376zM144 168q0 -37 20.5 -54.5t48.5 -17.5t48.5 17.5t20.5 54.5v376
q0 37 -20.5 54.5t-48.5 17.5t-48.5 -17.5t-20.5 -54.5v-376zM188 885l90 -141h-66l-132 141h108z" />
    <glyph glyph-name="Otilde" unicode="&#xd5;" horiz-adv-x="426" 
d="M42 544q0 43 15 76t40 55q24 21 54.5 32t61.5 11t61.5 -11t55.5 -32q24 -22 39 -55t15 -76v-376q0 -45 -15 -77t-39 -53q-25 -22 -55.5 -33t-61.5 -11t-61.5 11t-54.5 33q-25 21 -40 53t-15 77v376zM144 168q0 -37 20.5 -54.5t48.5 -17.5t48.5 17.5t20.5 54.5v376
q0 37 -20.5 54.5t-48.5 17.5t-48.5 -17.5t-20.5 -54.5v-376zM383 869q-5 -23 -12 -43t-19 -35t-29 -24t-41 -9q-12 0 -32.5 6t-42.5 14q-11 4 -21 7t-20 7q-20 6 -28 6q-21 0 -32 -12.5t-12 -32.5h-51q8 49 31 78q12 15 29 24t41 9q12 0 32.5 -6t42.5 -14t41.5 -14t27.5 -6
q21 0 32 12.5t12 32.5h51z" />
    <glyph glyph-name="Scaron" unicode="&#x160;" horiz-adv-x="406" 
d="M378 507h-102v23q0 35 -16.5 60.5t-55.5 25.5q-21 0 -34 -8t-21 -20q-8 -13 -11 -29.5t-3 -34.5q0 -21 1.5 -35t7.5 -25t17.5 -19t31.5 -16l78 -31q34 -13 55 -30.5t33 -40.5q11 -24 15 -54.5t4 -69.5q0 -45 -9 -83.5t-29 -65.5q-21 -28 -55 -44t-83 -16q-37 0 -69 13
t-55 36t-36.5 53.5t-13.5 66.5v38h102v-32q0 -28 16.5 -50.5t55.5 -22.5q26 0 40.5 7.5t22.5 21.5t9.5 33.5t1.5 43.5q0 28 -2 46t-8 29q-7 11 -18.5 18t-30.5 15l-73 30q-66 27 -88.5 71.5t-22.5 111.5q0 40 11 76t33 62q21 26 53.5 41.5t77.5 15.5q38 0 69.5 -14t54.5 -37
q46 -48 46 -110v-50zM348 885l-98 -141h-94l-98 141h78l67 -95l67 95h78z" />
    <glyph glyph-name="Uacute" unicode="&#xda;" horiz-adv-x="426" 
d="M378 712v-552q0 -35 -12.5 -64.5t-35.5 -52.5t-53 -36t-64 -13t-63.5 13t-52.5 36t-36 52.5t-13 64.5v552h102v-542q0 -38 18 -56t45 -18t45 18t18 56v542h102zM148 744l90 141h108l-132 -141h-66z" />
    <glyph glyph-name="Ucircumflex" unicode="&#xdb;" horiz-adv-x="426" 
d="M378 712v-552q0 -35 -12.5 -64.5t-35.5 -52.5t-53 -36t-64 -13t-63.5 13t-52.5 36t-36 52.5t-13 64.5v552h102v-542q0 -38 18 -56t45 -18t45 18t18 56v542h102zM68 744l98 141h94l98 -141h-78l-67 95l-67 -95h-78z" />
    <glyph glyph-name="Udieresis" unicode="&#xdc;" horiz-adv-x="426" 
d="M378 712v-552q0 -35 -12.5 -64.5t-35.5 -52.5t-53 -36t-64 -13t-63.5 13t-52.5 36t-36 52.5t-13 64.5v552h102v-542q0 -38 18 -56t45 -18t45 18t18 56v542h102zM87 756v102h90v-102h-90zM249 756v102h90v-102h-90z" />
    <glyph glyph-name="Ugrave" unicode="&#xd9;" horiz-adv-x="426" 
d="M378 712v-552q0 -35 -12.5 -64.5t-35.5 -52.5t-53 -36t-64 -13t-63.5 13t-52.5 36t-36 52.5t-13 64.5v552h102v-542q0 -38 18 -56t45 -18t45 18t18 56v542h102zM188 885l90 -141h-66l-132 141h108z" />
    <glyph glyph-name="Yacute" unicode="&#xdd;" horiz-adv-x="388" 
d="M143 0v301l-140 411h108l82 -283h2l82 283h108l-140 -411v-301h-102zM129 744l90 141h108l-132 -141h-66z" />
    <glyph glyph-name="Ydieresis" unicode="&#x178;" horiz-adv-x="388" 
d="M143 0v301l-140 411h108l82 -283h2l82 283h108l-140 -411v-301h-102zM68 756v102h90v-102h-90zM230 756v102h90v-102h-90z" />
    <glyph glyph-name="Zcaron" unicode="&#x17d;" horiz-adv-x="333" 
d="M15 0v90l192 526h-182v96h293v-81l-196 -535h196v-96h-303zM312 885l-98 -141h-94l-98 141h78l67 -95l67 95h78z" />
    <glyph glyph-name="aacute" unicode="&#xe1;" 
d="M235 0v52h-2q-20 -28 -40.5 -43t-57.5 -15q-18 0 -36.5 5.5t-35.5 20.5q-17 14 -27.5 40.5t-10.5 68.5q0 43 7 75.5t26 54.5q18 21 49 31.5t79 10.5h11t11 -1t12 -1t15 -1v53q0 26 -11 43t-40 17q-20 0 -36.5 -13t-21.5 -38h-99q4 68 46 110q20 20 48 31.5t63 11.5
q32 0 60 -10t49 -30q20 -20 32 -50t12 -70v-353h-102zM235 218q-17 3 -28 3q-33 0 -56.5 -15.5t-23.5 -56.5q0 -29 14 -47t39 -18q26 0 40.5 17t14.5 48v69zM120 574l90 141h108l-132 -141h-66z" />
    <glyph glyph-name="acircumflex" unicode="&#xe2;" 
d="M235 0v52h-2q-20 -28 -40.5 -43t-57.5 -15q-18 0 -36.5 5.5t-35.5 20.5q-17 14 -27.5 40.5t-10.5 68.5q0 43 7 75.5t26 54.5q18 21 49 31.5t79 10.5h11t11 -1t12 -1t15 -1v53q0 26 -11 43t-40 17q-20 0 -36.5 -13t-21.5 -38h-99q4 68 46 110q20 20 48 31.5t63 11.5
q32 0 60 -10t49 -30q20 -20 32 -50t12 -70v-353h-102zM235 218q-17 3 -28 3q-33 0 -56.5 -15.5t-23.5 -56.5q0 -29 14 -47t39 -18q26 0 40.5 17t14.5 48v69zM40 574l98 141h94l98 -141h-78l-67 95l-67 -95h-78z" />
    <glyph glyph-name="adieresis" unicode="&#xe4;" 
d="M235 0v52h-2q-20 -28 -40.5 -43t-57.5 -15q-18 0 -36.5 5.5t-35.5 20.5q-17 14 -27.5 40.5t-10.5 68.5q0 43 7 75.5t26 54.5q18 21 49 31.5t79 10.5h11t11 -1t12 -1t15 -1v53q0 26 -11 43t-40 17q-20 0 -36.5 -13t-21.5 -38h-99q4 68 46 110q20 20 48 31.5t63 11.5
q32 0 60 -10t49 -30q20 -20 32 -50t12 -70v-353h-102zM235 218q-17 3 -28 3q-33 0 -56.5 -15.5t-23.5 -56.5q0 -29 14 -47t39 -18q26 0 40.5 17t14.5 48v69zM59 586v102h90v-102h-90zM221 586v102h90v-102h-90z" />
    <glyph glyph-name="agrave" unicode="&#xe0;" 
d="M235 0v52h-2q-20 -28 -40.5 -43t-57.5 -15q-18 0 -36.5 5.5t-35.5 20.5q-17 14 -27.5 40.5t-10.5 68.5q0 43 7 75.5t26 54.5q18 21 49 31.5t79 10.5h11t11 -1t12 -1t15 -1v53q0 26 -11 43t-40 17q-20 0 -36.5 -13t-21.5 -38h-99q4 68 46 110q20 20 48 31.5t63 11.5
q32 0 60 -10t49 -30q20 -20 32 -50t12 -70v-353h-102zM235 218q-17 3 -28 3q-33 0 -56.5 -15.5t-23.5 -56.5q0 -29 14 -47t39 -18q26 0 40.5 17t14.5 48v69zM160 715l90 -141h-66l-132 141h108z" />
    <glyph glyph-name="aring" unicode="&#xe5;" 
d="M235 0v52h-2q-20 -28 -40.5 -43t-57.5 -15q-18 0 -36.5 5.5t-35.5 20.5q-17 14 -27.5 40.5t-10.5 68.5q0 43 7 75.5t26 54.5q18 21 49 31.5t79 10.5h11t11 -1t12 -1t15 -1v53q0 26 -11 43t-40 17q-20 0 -36.5 -13t-21.5 -38h-99q4 68 46 110q20 20 48 31.5t63 11.5
q32 0 60 -10t49 -30q20 -20 32 -50t12 -70v-353h-102zM235 218q-17 3 -28 3q-33 0 -56.5 -15.5t-23.5 -56.5q0 -29 14 -47t39 -18q26 0 40.5 17t14.5 48v69zM83 660q0 42 30 72t72 30t72 -30t30 -72t-30 -72t-72 -30t-72 30t-30 72zM124 660q0 -26 17.5 -43.5t43.5 -17.5
t43.5 17.5t17.5 43.5t-17.5 43.5t-43.5 17.5t-43.5 -17.5t-17.5 -43.5z" />
    <glyph glyph-name="atilde" unicode="&#xe3;" 
d="M235 0v52h-2q-20 -28 -40.5 -43t-57.5 -15q-18 0 -36.5 5.5t-35.5 20.5q-17 14 -27.5 40.5t-10.5 68.5q0 43 7 75.5t26 54.5q18 21 49 31.5t79 10.5h11t11 -1t12 -1t15 -1v53q0 26 -11 43t-40 17q-20 0 -36.5 -13t-21.5 -38h-99q4 68 46 110q20 20 48 31.5t63 11.5
q32 0 60 -10t49 -30q20 -20 32 -50t12 -70v-353h-102zM235 218q-17 3 -28 3q-33 0 -56.5 -15.5t-23.5 -56.5q0 -29 14 -47t39 -18q26 0 40.5 17t14.5 48v69zM355 699q-5 -23 -12 -43t-19 -35t-29 -24t-41 -9q-12 0 -32.5 6t-42.5 14q-11 4 -21 7t-20 7q-20 6 -28 6
q-21 0 -32 -12.5t-12 -32.5h-51q8 49 31 78q12 15 29 24t41 9q12 0 32.5 -6t42.5 -14t41.5 -14t27.5 -6q21 0 32 12.5t12 32.5h51z" />
    <glyph glyph-name="ccedilla" unicode="&#xe7;" 
d="M112 -86l63 82q-38 5 -65.5 24t-42.5 47q-11 20 -15 46t-4 57v167q0 31 4 57t15 46q18 33 51.5 53t81.5 20q35 0 63.5 -12t48.5 -33q40 -45 40 -117h-102q0 31 -13.5 45.5t-36.5 14.5t-36.5 -14.5t-13.5 -43.5v-207q0 -24 13.5 -37t36.5 -13q29 0 38.5 17t11.5 34h102
q0 -67 -41 -108q-36 -37 -91 -43l-43 -56q8 1 15.5 1.5t15.5 0.5q25 0 41 -7t26 -18q10 -12 14 -25t4 -25q0 -24 -11.5 -41.5t-29.5 -28.5t-39.5 -16t-42.5 -5q-29 0 -54 7t-39 12l17 42q16 -6 32 -10.5t33 -4.5q8 0 17.5 1.5t17.5 6.5q19 10 19 33q0 17 -14 27.5t-31 10.5
q-22 0 -39 -7z" />
    <glyph glyph-name="eacute" unicode="&#xe9;" 
d="M337 215h-202v-69q0 -24 13.5 -37t36.5 -13q29 0 38.5 17t11.5 34h102q0 -67 -41 -108q-20 -21 -48 -33t-63 -12q-48 0 -81.5 20t-51.5 53q-11 20 -15 46t-4 57v167q0 31 4 57t15 46q18 33 51.5 53t81.5 20q35 0 63.5 -12t48.5 -33q40 -45 40 -113v-140zM135 295h100v58
q0 29 -13.5 43.5t-36.5 14.5t-36.5 -14.5t-13.5 -43.5v-58zM120 574l90 141h108l-132 -141h-66z" />
    <glyph glyph-name="ecircumflex" unicode="&#xea;" 
d="M337 215h-202v-69q0 -24 13.5 -37t36.5 -13q29 0 38.5 17t11.5 34h102q0 -67 -41 -108q-20 -21 -48 -33t-63 -12q-48 0 -81.5 20t-51.5 53q-11 20 -15 46t-4 57v167q0 31 4 57t15 46q18 33 51.5 53t81.5 20q35 0 63.5 -12t48.5 -33q40 -45 40 -113v-140zM135 295h100v58
q0 29 -13.5 43.5t-36.5 14.5t-36.5 -14.5t-13.5 -43.5v-58zM40 574l98 141h94l98 -141h-78l-67 95l-67 -95h-78z" />
    <glyph glyph-name="edieresis" unicode="&#xeb;" 
d="M337 215h-202v-69q0 -24 13.5 -37t36.5 -13q29 0 38.5 17t11.5 34h102q0 -67 -41 -108q-20 -21 -48 -33t-63 -12q-48 0 -81.5 20t-51.5 53q-11 20 -15 46t-4 57v167q0 31 4 57t15 46q18 33 51.5 53t81.5 20q35 0 63.5 -12t48.5 -33q40 -45 40 -113v-140zM135 295h100v58
q0 29 -13.5 43.5t-36.5 14.5t-36.5 -14.5t-13.5 -43.5v-58zM59 586v102h90v-102h-90zM221 586v102h90v-102h-90z" />
    <glyph glyph-name="egrave" unicode="&#xe8;" 
d="M337 215h-202v-69q0 -24 13.5 -37t36.5 -13q29 0 38.5 17t11.5 34h102q0 -67 -41 -108q-20 -21 -48 -33t-63 -12q-48 0 -81.5 20t-51.5 53q-11 20 -15 46t-4 57v167q0 31 4 57t15 46q18 33 51.5 53t81.5 20q35 0 63.5 -12t48.5 -33q40 -45 40 -113v-140zM135 295h100v58
q0 29 -13.5 43.5t-36.5 14.5t-36.5 -14.5t-13.5 -43.5v-58zM160 715l90 -141h-66l-132 141h108z" />
    <glyph glyph-name="iacute" unicode="&#xed;" horiz-adv-x="186" 
d="M42 0v507h102v-507h-102zM28 574l90 141h108l-132 -141h-66z" />
    <glyph glyph-name="icircumflex" unicode="&#xee;" horiz-adv-x="186" 
d="M42 0v507h102v-507h-102zM-52 574l98 141h94l98 -141h-78l-67 95l-67 -95h-78z" />
    <glyph glyph-name="idieresis" unicode="&#xef;" horiz-adv-x="186" 
d="M42 0v507h102v-507h-102zM-33 586v102h90v-102h-90zM129 586v102h90v-102h-90z" />
    <glyph glyph-name="igrave" unicode="&#xec;" horiz-adv-x="186" 
d="M42 0v507h102v-507h-102zM68 715l90 -141h-66l-132 141h108z" />
    <glyph glyph-name="ntilde" unicode="&#xf1;" horiz-adv-x="389" 
d="M42 0v507h102v-49h2q16 24 38.5 39.5t57.5 15.5q19 0 38 -6.5t34 -21.5t24 -38.5t9 -57.5v-389h-102v351q0 28 -13 44t-37 16q-29 0 -40 -18t-11 -52v-341h-102zM365 699q-5 -23 -12 -43t-19 -35t-29 -24t-41 -9q-12 0 -32.5 6t-42.5 14q-11 4 -21 7t-20 7q-20 6 -28 6
q-21 0 -32 -12.5t-12 -32.5h-51q8 49 31 78q12 15 29 24t41 9q12 0 32.5 -6t42.5 -14t41.5 -14t27.5 -6q21 0 32 12.5t12 32.5h51z" />
    <glyph glyph-name="oacute" unicode="&#xf3;" 
d="M33 337q0 31 4 57t15 46q18 33 51.5 53t81.5 20t81.5 -20t51.5 -53q11 -20 15 -46t4 -57v-167q0 -31 -4 -57t-15 -46q-18 -33 -51.5 -53t-81.5 -20t-81.5 20t-51.5 53q-11 20 -15 46t-4 57v167zM135 154q0 -29 13.5 -43.5t36.5 -14.5t36.5 14.5t13.5 43.5v199
q0 29 -13.5 43.5t-36.5 14.5t-36.5 -14.5t-13.5 -43.5v-199zM120 574l90 141h108l-132 -141h-66z" />
    <glyph glyph-name="ocircumflex" unicode="&#xf4;" 
d="M33 337q0 31 4 57t15 46q18 33 51.5 53t81.5 20t81.5 -20t51.5 -53q11 -20 15 -46t4 -57v-167q0 -31 -4 -57t-15 -46q-18 -33 -51.5 -53t-81.5 -20t-81.5 20t-51.5 53q-11 20 -15 46t-4 57v167zM135 154q0 -29 13.5 -43.5t36.5 -14.5t36.5 14.5t13.5 43.5v199
q0 29 -13.5 43.5t-36.5 14.5t-36.5 -14.5t-13.5 -43.5v-199zM40 574l98 141h94l98 -141h-78l-67 95l-67 -95h-78z" />
    <glyph glyph-name="odieresis" unicode="&#xf6;" 
d="M33 337q0 31 4 57t15 46q18 33 51.5 53t81.5 20t81.5 -20t51.5 -53q11 -20 15 -46t4 -57v-167q0 -31 -4 -57t-15 -46q-18 -33 -51.5 -53t-81.5 -20t-81.5 20t-51.5 53q-11 20 -15 46t-4 57v167zM135 154q0 -29 13.5 -43.5t36.5 -14.5t36.5 14.5t13.5 43.5v199
q0 29 -13.5 43.5t-36.5 14.5t-36.5 -14.5t-13.5 -43.5v-199zM59 586v102h90v-102h-90zM221 586v102h90v-102h-90z" />
    <glyph glyph-name="ograve" unicode="&#xf2;" 
d="M33 337q0 31 4 57t15 46q18 33 51.5 53t81.5 20t81.5 -20t51.5 -53q11 -20 15 -46t4 -57v-167q0 -31 -4 -57t-15 -46q-18 -33 -51.5 -53t-81.5 -20t-81.5 20t-51.5 53q-11 20 -15 46t-4 57v167zM135 154q0 -29 13.5 -43.5t36.5 -14.5t36.5 14.5t13.5 43.5v199
q0 29 -13.5 43.5t-36.5 14.5t-36.5 -14.5t-13.5 -43.5v-199zM160 715l90 -141h-66l-132 141h108z" />
    <glyph glyph-name="otilde" unicode="&#xf5;" 
d="M33 337q0 31 4 57t15 46q18 33 51.5 53t81.5 20t81.5 -20t51.5 -53q11 -20 15 -46t4 -57v-167q0 -31 -4 -57t-15 -46q-18 -33 -51.5 -53t-81.5 -20t-81.5 20t-51.5 53q-11 20 -15 46t-4 57v167zM135 154q0 -29 13.5 -43.5t36.5 -14.5t36.5 14.5t13.5 43.5v199
q0 29 -13.5 43.5t-36.5 14.5t-36.5 -14.5t-13.5 -43.5v-199zM355 699q-5 -23 -12 -43t-19 -35t-29 -24t-41 -9q-12 0 -32.5 6t-42.5 14q-11 4 -21 7t-20 7q-20 6 -28 6q-21 0 -32 -12.5t-12 -32.5h-51q8 49 31 78q12 15 29 24t41 9q12 0 32.5 -6t42.5 -14t41.5 -14t27.5 -6
q21 0 32 12.5t12 32.5h51z" />
    <glyph glyph-name="scaron" unicode="&#x161;" horiz-adv-x="352" 
d="M227 365q-1 26 -16.5 39t-35.5 13q-24 0 -37 -15.5t-13 -35.5q0 -14 7 -27.5t36 -24.5l60 -24q57 -22 78.5 -60t21.5 -83q0 -32 -11.5 -59.5t-31.5 -48.5t-48 -33t-61 -12q-62 0 -104 39q-21 19 -34 47.5t-14 66.5h96q3 -21 14.5 -39t40.5 -18q22 0 39.5 14.5t17.5 40.5
q0 21 -11 36t-40 26l-49 18q-48 18 -75.5 53.5t-27.5 86.5q0 32 12 59.5t33 47.5q20 20 47 30.5t58 10.5t57.5 -11t45.5 -31t30 -47.5t11 -58.5h-96zM321 715l-98 -141h-94l-98 141h78l67 -95l67 95h78z" />
    <glyph glyph-name="uacute" unicode="&#xfa;" horiz-adv-x="389" 
d="M347 507v-507h-102v49h-2q-16 -24 -38.5 -39.5t-57.5 -15.5q-19 0 -38 6.5t-34 21.5t-24 38.5t-9 57.5v389h102v-351q0 -28 13 -44t37 -16q29 0 40 18t11 52v341h102zM130 574l90 141h108l-132 -141h-66z" />
    <glyph glyph-name="ucircumflex" unicode="&#xfb;" horiz-adv-x="389" 
d="M347 507v-507h-102v49h-2q-16 -24 -38.5 -39.5t-57.5 -15.5q-19 0 -38 6.5t-34 21.5t-24 38.5t-9 57.5v389h102v-351q0 -28 13 -44t37 -16q29 0 40 18t11 52v341h102zM50 574l98 141h94l98 -141h-78l-67 95l-67 -95h-78z" />
    <glyph glyph-name="udieresis" unicode="&#xfc;" horiz-adv-x="389" 
d="M347 507v-507h-102v49h-2q-16 -24 -38.5 -39.5t-57.5 -15.5q-19 0 -38 6.5t-34 21.5t-24 38.5t-9 57.5v389h102v-351q0 -28 13 -44t37 -16q29 0 40 18t11 52v341h102zM69 586v102h90v-102h-90zM231 586v102h90v-102h-90z" />
    <glyph glyph-name="ugrave" unicode="&#xf9;" horiz-adv-x="389" 
d="M347 507v-507h-102v49h-2q-16 -24 -38.5 -39.5t-57.5 -15.5q-19 0 -38 6.5t-34 21.5t-24 38.5t-9 57.5v389h102v-351q0 -28 13 -44t37 -16q29 0 40 18t11 52v341h102zM170 715l90 -141h-66l-132 141h108z" />
    <glyph glyph-name="yacute" unicode="&#xfd;" horiz-adv-x="352" 
d="M-1 507h108l70 -316h2l69 316h105l-146 -595q-8 -34 -22.5 -56t-33.5 -36t-40.5 -19.5t-44.5 -5.5h-28v96h23q15 0 26 4t20 18q8 14 15 39.5t16 70.5zM111 574l90 141h108l-132 -141h-66z" />
    <glyph glyph-name="ydieresis" unicode="&#xff;" horiz-adv-x="352" 
d="M-1 507h108l70 -316h2l69 316h105l-146 -595q-8 -34 -22.5 -56t-33.5 -36t-40.5 -19.5t-44.5 -5.5h-28v96h23q15 0 26 4t20 18q8 14 15 39.5t16 70.5zM50 586v102h90v-102h-90zM212 586v102h90v-102h-90z" />
    <glyph glyph-name="zcaron" unicode="&#x17e;" horiz-adv-x="315" 
d="M17 0v81l165 336h-152v90h268v-81l-165 -330h165v-96h-281zM303 715l-98 -141h-94l-98 141h78l67 -95l67 95h78z" />
    <glyph glyph-name="f_i" unicode="&#xfb01;" horiz-adv-x="407" 
d="M55 0v427h-50v80h50v69q0 37 11 62.5t30 42.5q18 17 41.5 24t48.5 7h47v-96h-46q-30 0 -30 -35v-74h76v-80h-76v-427h-102zM263 0v507h102v-507h-102zM263 610v102h102v-102h-102z" />
    <glyph glyph-name="f_l" unicode="&#xfb02;" horiz-adv-x="407" 
d="M55 0v427h-50v80h50v69q0 37 11 62.5t30 42.5q18 17 41.5 24t48.5 7h47v-96h-46q-30 0 -30 -35v-74h76v-80h-76v-427h-102zM263 712h102v-569q0 -29 10.5 -39.5t39.5 -13.5v-96q-35 0 -63 5.5t-48 21.5q-20 15 -30.5 42.5t-10.5 72.5v576z" />
    <glyph glyph-name="one.superior" unicode="&#xb9;" horiz-adv-x="242" 
d="M93 287v353l-66 -43v72l66 43h80v-425h-80z" />
    <glyph glyph-name="two.superior" unicode="&#xb2;" horiz-adv-x="242" 
d="M11 584v36q0 43 32 70q15 13 35 20.5t43 7.5q22 0 42 -7t35 -19t24 -28.5t9 -36.5v-33q0 -26 -6 -42t-17 -33l-95 -160h118v-72h-220v54l128 212q5 9 8.5 18.5t3.5 20.5v23q0 15 -10 23t-21 8t-20 -8t-9 -23v-31h-80z" />
    <glyph glyph-name="three.superior" unicode="&#xb3;" horiz-adv-x="242" 
d="M100 540q29 0 39.5 6.5t11.5 27.5v42q0 13 -8 21.5t-22 8.5q-16 0 -23 -10.5t-7 -19.5v-26h-80v32q0 42 30.5 69t81.5 27q28 0 48 -8.5t34 -22.5q14 -15 20 -33t6 -36v-41q0 -22 -7 -38.5t-34 -30.5q24 -14 32.5 -31t8.5 -42v-51q0 -18 -5.5 -36.5t-19.5 -32.5t-35 -23
t-50 -9q-20 0 -40 5t-35 16q-16 11 -25.5 29t-9.5 44v34h80v-23q0 -15 8 -24t22 -9q13 0 21.5 9.5t8.5 20.5v52q0 23 -10 30t-41 7v66z" />
    <glyph glyph-name="Delta" unicode="&#x2206;" horiz-adv-x="451" 
d="M22 0v64l152 648h111l143 -645v-67h-406zM117 86h215l-67 296q-4 22 -9.5 46.5t-10.5 48.5q-6 24 -10.5 46.5t-7.5 39.5h-1q-2 -17 -6.5 -36t-10.5 -42t-11 -46t-9 -46z" />
    <glyph glyph-name="uni2126" unicode="&#x2126;" horiz-adv-x="455" 
d="M110 89v3q-31 51 -54 127t-23 170q0 69 14 127.5t40 101.5q26 42 62.5 66.5t81.5 24.5q49 0 84.5 -27t58.5 -72t34 -100.5t11 -110.5q0 -48 -6.5 -93t-17.5 -85t-25 -72.5t-29 -56.5v-3h88v-89h-172v63q25 32 44.5 111t19.5 197q0 46 -5 90t-16 78t-29 54.5t-43 20.5
q-24 0 -42.5 -18t-30.5 -51t-18.5 -78t-6.5 -99t5.5 -102.5t14.5 -88.5t20.5 -69t23.5 -45v-63h-172v89h88z" />
    <glyph glyph-name="pi.alt" horiz-adv-x="422" 
d="M403 430h-46v-302q0 -48 2 -77.5t7 -50.5h-91q-13 30 -13 129v301h-88q-2 -39 -5.5 -94t-8.5 -115q-6 -60 -14.5 -118t-18.5 -103h-91q10 48 18 105t14 116q5 59 8.5 113t3.5 96q-25 0 -38.5 -2t-22.5 -5l-12 72q14 12 43 21t74 9h285z" />
    <glyph glyph-name="Euro" unicode="&#x20ac;" horiz-adv-x="372" 
d="M341 599q-11 11 -28.5 18t-47.5 7q-42 0 -64 -37t-27 -118h143l-20 -78h-128v-33v-34h111l-20 -79h-86q5 -85 28 -121.5t63 -36.5q30 0 47.5 6.5t28.5 17.5v-97q-12 -9 -33 -13q-23 -6 -62 -6q-72 0 -115.5 57.5t-54.5 192.5h-60l20 79h32q-1 5 -1 16v18v16v8t1 9h-52
l20 78h38q10 128 53.5 188t119.5 60q36 0 60 -7.5t34 -15.5v-95z" />
    <glyph glyph-name="afii61289" unicode="&#x2113;" horiz-adv-x="358" 
d="M348 114q-25 -63 -60.5 -89.5t-77.5 -26.5q-39 0 -64.5 14.5t-40.5 38.5q-16 24 -22 56t-6 68v15l-19 -19q-5 -5 -10 -10.5t-10 -10.5l-22 56q18 19 32.5 35t28.5 35v265q0 61 10.5 105t28.5 73t42 42t50 13q48 0 70 -45t22 -121q0 -85 -35 -170.5t-95 -166.5v-60
q0 -73 16 -102q15 -30 44 -30q26 0 46 24t35 52zM170 374q35 60 57 123t22 120q0 38 -8 59q-9 18 -29 18q-7 0 -15 -8t-14 -28t-9.5 -53t-3.5 -84v-147z" />
    <glyph glyph-name="estimated" unicode="&#x212e;" horiz-adv-x="873" 
d="M838 346h-651q-5 0 -5 -4v-197q0 -12 8 -23q48 -49 111 -78t135 -29q78 0 145 32.5t115 87.5h57q-54 -64 -136.5 -102t-181.5 -38q-84 0 -156.5 28.5t-126.5 77.5q-55 48 -86.5 113.5t-31.5 140.5t31.5 141.5t86.5 115.5q54 49 126.5 77.5t156.5 28.5q85 0 157.5 -28.5
t127.5 -77.5t86.5 -115.5t31.5 -141.5v-9zM690 570q0 14 -9 23q-48 48 -110.5 75.5t-134.5 27.5t-134.5 -29t-110.5 -77q-9 -9 -9 -25v-193q0 -7 5 -7h499q4 0 4 7v198z" />
    <glyph glyph-name="partialdiff" unicode="&#x2202;" horiz-adv-x="410" 
d="M54 746q19 17 48 34t77 17q36 0 70.5 -19.5t61.5 -64.5t44 -115.5t17 -173.5q0 -212 -51 -318t-146 -106q-34 0 -60.5 18t-44.5 50q-38 64 -38 161q0 64 13.5 113.5t35.5 83.5t50.5 52t58.5 18q35 0 56.5 -18t30.5 -36h1v29q0 45 -8 87t-22 75q-15 33 -35.5 53t-46.5 20
q-29 0 -50 -14.5t-37 -32.5zM186 93q19 0 34 21.5t26 56.5t17.5 79.5t8.5 90.5q-6 23 -22.5 44.5t-43.5 21.5q-18 0 -32.5 -15.5t-24.5 -41.5t-15.5 -59.5t-5.5 -68.5q0 -60 15 -94q14 -35 41 -35h2z" />
    <glyph glyph-name="product" unicode="&#x220f;" horiz-adv-x="513" 
d="M489 599h-64v-696h-97v696h-144v-696h-97v696h-64v100h466v-100z" />
    <glyph glyph-name="summation" unicode="&#x2211;" horiz-adv-x="391" 
d="M376 -97h-355v75l170 326l-166 318v77h338v-88h-215v-3l149 -281l-170 -318v-3h249v-103z" />
    <glyph glyph-name="uni2219" unicode="&#x2219;" horiz-adv-x="186" 
d="M29 298q0 26 19 45t45 19t45 -19t19 -45t-19 -45t-45 -19t-45 19t-19 45z" />
    <glyph glyph-name="radical" unicode="&#x221a;" horiz-adv-x="439" 
d="M433 842l-156 -979h-78l-103 443l-54 -21l-15 63l131 51l64 -294q5 -28 9 -55t6 -42l1 -1q1 8 2 19t2 25t3 28.5t4 28.5l119 734h65z" />
    <glyph glyph-name="infinity" unicode="&#x221e;" horiz-adv-x="635" 
d="M597 289q0 -34 -11 -60.5t-29 -44.5q-19 -19 -43 -29t-49 -10q-18 0 -35.5 4t-35.5 14.5t-36 28.5t-38 45q-32 -40 -67.5 -66t-85.5 -26q-53 0 -90 39q-18 18 -28.5 44t-10.5 57t10 57.5t28 45.5t43 29.5t55 10.5q46 0 80 -24.5t66 -66.5q7 7 13.5 14.5t14.5 15.5
q14 16 31.5 29.5t39.5 22.5t50 9q55 0 91 -38q17 -18 27 -43.5t10 -56.5v-1zM176 202q17 0 31.5 6.5t28 18t26.5 26t26 29.5q-13 18 -25 34t-26 28t-29.5 19.5t-35.5 7.5q-37 0 -56 -25t-19 -62q0 -35 23 -58.5t55 -23.5h1zM463 371q-19 0 -35 -9t-30 -21q-17 -15 -26 -27
q-6 -8 -11.5 -14.5t-10.5 -11.5q35 -46 60 -66q24 -20 57 -20q17 0 30 8t22 20q19 25 19 55q0 38 -20 62t-54 24h-1z" />
    <glyph glyph-name="integral" unicode="&#x222b;" horiz-adv-x="327" 
d="M285 776q-5 3 -10.5 5t-13.5 2q-22 0 -35 -22.5t-17 -64.5q-2 -21 -3 -48t-1 -61q0 -61 1.5 -119.5t3.5 -118.5t3.5 -122t1.5 -128q0 -75 -7 -124t-22 -80q-16 -35 -44.5 -49.5t-58.5 -14.5q-19 0 -33 4t-22 9l14 80q2 -1 5 -2t7 -3q6 -3 16 -3q9 0 17.5 5t14.5 16
q4 8 7.5 21.5t5.5 32.5q2 18 3 44t1 60q0 67 -1.5 130t-3.5 124t-3.5 122t-1.5 124q0 45 2.5 78.5t8.5 60.5q5 26 14 46t21 37q16 21 42 33t53 12q14 0 26 -2.5t20 -6.5z" />
    <glyph glyph-name="approxequal" unicode="&#x2248;" horiz-adv-x="401" 
d="M372 394q-14 -38 -40 -65t-61 -27q-20 0 -37.5 7.5t-42.5 24.5q-19 14 -32.5 22t-30.5 8q-24 0 -37.5 -19.5t-25.5 -42.5l-37 29q15 39 42.5 65t63.5 26q29 0 48 -11.5t32 -19.5q18 -12 32.5 -21t28.5 -9q21 0 34 18t26 44zM372 242q-14 -38 -40 -65t-61 -27
q-20 0 -37.5 7.5t-42.5 24.5q-19 14 -32.5 22t-30.5 8q-24 0 -38 -19.5t-25 -42.5l-37 28q15 40 42.5 65.5t63.5 25.5q29 0 48 -11t32 -19q19 -12 33 -21q13 -10 28 -10q21 0 34 18.5t26 44.5z" />
    <glyph glyph-name="notequal" unicode="&#x2260;" horiz-adv-x="401" 
d="M296 471l-28 -71h95v-62h-114l-44 -111h158v-61h-178l-34 -86l-46 15l28 71h-96v61h116l43 111h-159v62h179l34 87z" />
    <glyph glyph-name="lessequal" unicode="&#x2264;" horiz-adv-x="401" 
d="M360 108l-319 193v67l319 193v-75l-264 -150v-2l264 -151v-75zM365 10h-327v64h327v-64z" />
    <glyph glyph-name="greaterequal" unicode="&#x2265;" horiz-adv-x="401" 
d="M44 561l319 -193v-66l-319 -194v75l263 151v2l-263 150v75zM365 10h-326v64h326v-64z" />
    <glyph glyph-name="lozenge" unicode="&#x25ca;" horiz-adv-x="438" 
d="M399 349l-142 -387h-83l-134 387l142 388h83zM310 347l-72 224q-5 17 -9 36.5t-6 34.5h-3q-3 -16 -6.5 -34t-8.5 -37l-76 -219l73 -230q2 -8 4 -17t4 -19t3 -17.5t2 -12.5h5l2.5 15t3.5 19q1 5 2 9l2 8q2 10 3 13z" />
    <glyph glyph-name="uni00A0" unicode="&#xa0;" horiz-adv-x="186" 
 />
    <glyph glyph-name="uni00AD" unicode="&#xad;" horiz-adv-x="389" 
d="M44 226v102h301v-102h-301z" />
    <glyph glyph-name="uni02C9" unicode="&#x2c9;" horiz-adv-x="186" 
d="M-44 607v60h274v-60h-274z" />
    <glyph glyph-name="six.alt" unicode="&#xe001;" horiz-adv-x="372" 
d="M34 565q0 36 12.5 64t33.5 48t48.5 30.5t57.5 10.5t57.5 -10.5t48.5 -30.5t33.5 -48t12.5 -64h-102q0 22 -14 36.5t-36 14.5t-36 -14.5t-14 -36.5v-96q24 11 46 17t48 6q27 0 50 -13t36 -33q14 -21 18 -42t4 -52v-205q0 -36 -12.5 -64t-33.5 -48t-48.5 -30.5t-57.5 -10.5
t-57.5 10.5t-48.5 30.5t-33.5 48t-12.5 64v418zM136 147q0 -23 15 -37t35 -14t35 14t15 37v204q0 23 -15 37t-35 14t-35 -14t-15 -37v-204z" />
    <glyph glyph-name="nine.alt" unicode="&#xe000;" horiz-adv-x="372" 
d="M34 565q0 36 12.5 64t33.5 48t48.5 30.5t57.5 10.5t57.5 -10.5t48.5 -30.5t33.5 -48t12.5 -64v-418q0 -36 -12.5 -64t-33.5 -48t-48.5 -30.5t-57.5 -10.5t-57.5 10.5t-48.5 30.5t-33.5 48t-12.5 64h102q0 -22 14 -36.5t36 -14.5t36 14.5t14 36.5v96q-24 -11 -46 -17
t-48 -6q-27 0 -50 13t-36 33q-14 21 -18 42t-4 52v205zM136 361q0 -23 15 -37t35 -14t35 14t15 37v204q0 23 -15 37t-35 14t-35 -14t-15 -37v-204z" />
    <glyph glyph-name="uni2215" unicode="&#x2215;" horiz-adv-x="167" 
d="M-165 -17l437 746h60l-437 -746h-60z" />
    <glyph glyph-name="abreve" unicode="&#x103;" 
d="M235 0v52h-2q-20 -28 -40.5 -43t-57.5 -15q-18 0 -36.5 5.5t-35.5 20.5q-17 14 -27.5 40.5t-10.5 68.5q0 43 7 75.5t26 54.5q18 21 49 31.5t79 10.5h11t11 -1t12 -1t15 -1v53q0 26 -11 43t-40 17q-20 0 -36.5 -13t-21.5 -38h-99q4 68 46 110q20 20 48 31.5t63 11.5
q32 0 60 -10t49 -30q20 -20 32 -50t12 -70v-353h-102zM235 218q-17 3 -28 3q-33 0 -56.5 -15.5t-23.5 -56.5q0 -29 14 -47t39 -18q26 0 40.5 17t14.5 48v69zM339 715q-21 -136 -154 -136t-154 136h51q2 -14 7.5 -27.5t17.5 -24.5t31 -17.5t47 -6.5t47 6.5t31 17.5t17.5 24.5
t7.5 27.5h51z" />
    <glyph glyph-name="u0457" unicode="&#x457;" horiz-adv-x="186" 
d="M42 0v507h102v-507h-102zM-4 610v102h83v-102h-83zM106 610v102h83v-102h-83z" />
    <glyph glyph-name="amacron" unicode="&#x101;" 
d="M235 0v52h-2q-20 -28 -40.5 -43t-57.5 -15q-18 0 -36.5 5.5t-35.5 20.5q-17 14 -27.5 40.5t-10.5 68.5q0 43 7 75.5t26 54.5q18 21 49 31.5t79 10.5h11t11 -1t12 -1t15 -1v53q0 26 -11 43t-40 17q-20 0 -36.5 -13t-21.5 -38h-99q4 68 46 110q20 20 48 31.5t63 11.5
q32 0 60 -10t49 -30q20 -20 32 -50t12 -70v-353h-102zM235 218q-17 3 -28 3q-33 0 -56.5 -15.5t-23.5 -56.5q0 -29 14 -47t39 -18q26 0 40.5 17t14.5 48v69zM48 607v60h274v-60h-274z" />
    <glyph glyph-name="cacute" unicode="&#x107;" 
d="M150 146q0 -24 13.5 -37t36.5 -13q29 0 38.5 17t11.5 34h102q0 -67 -41 -108q-20 -21 -48 -33t-63 -12q-48 0 -81.5 20t-51.5 53q-11 20 -15 46t-4 57v167q0 31 4 57t15 46q18 33 51.5 53t81.5 20q35 0 63.5 -12t48.5 -33q40 -45 40 -117h-102q0 31 -13.5 45.5
t-36.5 14.5t-36.5 -14.5t-13.5 -43.5v-207zM120 574l90 141h108l-132 -141h-66z" />
    <glyph glyph-name="ccaron" unicode="&#x10d;" 
d="M150 146q0 -24 13.5 -37t36.5 -13q29 0 38.5 17t11.5 34h102q0 -67 -41 -108q-20 -21 -48 -33t-63 -12q-48 0 -81.5 20t-51.5 53q-11 20 -15 46t-4 57v167q0 31 4 57t15 46q18 33 51.5 53t81.5 20q35 0 63.5 -12t48.5 -33q40 -45 40 -117h-102q0 31 -13.5 45.5
t-36.5 14.5t-36.5 -14.5t-13.5 -43.5v-207zM330 715l-98 -141h-94l-98 141h78l67 -95l67 95h78z" />
    <glyph glyph-name="cdotaccent" unicode="&#x10b;" 
d="M150 146q0 -24 13.5 -37t36.5 -13q29 0 38.5 17t11.5 34h102q0 -67 -41 -108q-20 -21 -48 -33t-63 -12q-48 0 -81.5 20t-51.5 53q-11 20 -15 46t-4 57v167q0 31 4 57t15 46q18 33 51.5 53t81.5 20q35 0 63.5 -12t48.5 -33q40 -45 40 -117h-102q0 31 -13.5 45.5
t-36.5 14.5t-36.5 -14.5t-13.5 -43.5v-207zM140 586v102h90v-102h-90z" />
    <glyph glyph-name="ecaron" unicode="&#x11b;" 
d="M337 215h-202v-69q0 -24 13.5 -37t36.5 -13q29 0 38.5 17t11.5 34h102q0 -67 -41 -108q-20 -21 -48 -33t-63 -12q-48 0 -81.5 20t-51.5 53q-11 20 -15 46t-4 57v167q0 31 4 57t15 46q18 33 51.5 53t81.5 20q35 0 63.5 -12t48.5 -33q40 -45 40 -113v-140zM135 295h100v58
q0 29 -13.5 43.5t-36.5 14.5t-36.5 -14.5t-13.5 -43.5v-58zM329 715l-98 -141h-94l-98 141h78l67 -95l67 95h78z" />
    <glyph glyph-name="edotaccent" unicode="&#x117;" 
d="M337 215h-202v-69q0 -24 13.5 -37t36.5 -13q29 0 38.5 17t11.5 34h102q0 -67 -41 -108q-20 -21 -48 -33t-63 -12q-48 0 -81.5 20t-51.5 53q-11 20 -15 46t-4 57v167q0 31 4 57t15 46q18 33 51.5 53t81.5 20q35 0 63.5 -12t48.5 -33q40 -45 40 -113v-140zM135 295h100v58
q0 29 -13.5 43.5t-36.5 14.5t-36.5 -14.5t-13.5 -43.5v-58zM140 586v102h90v-102h-90z" />
    <glyph glyph-name="emacron" unicode="&#x113;" 
d="M337 215h-202v-69q0 -24 13.5 -37t36.5 -13q29 0 38.5 17t11.5 34h102q0 -67 -41 -108q-20 -21 -48 -33t-63 -12q-48 0 -81.5 20t-51.5 53q-11 20 -15 46t-4 57v167q0 31 4 57t15 46q18 33 51.5 53t81.5 20q35 0 63.5 -12t48.5 -33q40 -45 40 -113v-140zM135 295h100v58
q0 29 -13.5 43.5t-36.5 14.5t-36.5 -14.5t-13.5 -43.5v-58zM47 607v60h274v-60h-274z" />
    <glyph glyph-name="gbreve" unicode="&#x11f;" horiz-adv-x="389" 
d="M144 -59q1 -18 14.5 -34t39.5 -16q25 0 36 15.5t11 39.5v100h-2q-17 -25 -40.5 -38.5t-54.5 -13.5q-64 0 -89 48q-9 17 -13 42t-4 67v193q0 55 3 81q6 50 47 75q19 13 57 13q19 0 32.5 -4t24.5 -11t20 -16.5t19 -20.5v46h102v-569q0 -26 -8.5 -52.5t-27.5 -47.5
q-19 -22 -48 -35.5t-69 -13.5q-23 0 -48 7.5t-46 25.5q-22 17 -37.5 45.5t-20.5 73.5h102zM144 156q0 -24 10.5 -42t39.5 -18q22 0 36.5 15.5t14.5 39.5v197q0 28 -14 45.5t-37 17.5q-26 0 -38 -19t-12 -50v-186zM348 715q-21 -136 -154 -136t-154 136h51q2 -14 7.5 -27.5
t17.5 -24.5t31 -17.5t47 -6.5t47 6.5t31 17.5t17.5 24.5t7.5 27.5h51z" />
    <glyph glyph-name="gdotaccent" unicode="&#x121;" horiz-adv-x="389" 
d="M144 -59q1 -18 14.5 -34t39.5 -16q25 0 36 15.5t11 39.5v100h-2q-17 -25 -40.5 -38.5t-54.5 -13.5q-64 0 -89 48q-9 17 -13 42t-4 67v193q0 55 3 81q6 50 47 75q19 13 57 13q19 0 32.5 -4t24.5 -11t20 -16.5t19 -20.5v46h102v-569q0 -26 -8.5 -52.5t-27.5 -47.5
q-19 -22 -48 -35.5t-69 -13.5q-23 0 -48 7.5t-46 25.5q-22 17 -37.5 45.5t-20.5 73.5h102zM144 156q0 -24 10.5 -42t39.5 -18q22 0 36.5 15.5t14.5 39.5v197q0 28 -14 45.5t-37 17.5q-26 0 -38 -19t-12 -50v-186zM149 586v102h90v-102h-90z" />
    <glyph glyph-name="imacron" unicode="&#x12b;" horiz-adv-x="186" 
d="M42 0v507h102v-507h-102zM-44 607v60h274v-60h-274z" />
    <glyph glyph-name="lacute" unicode="&#x13a;" horiz-adv-x="186" 
d="M36 712h102v-569q0 -29 10.5 -39.5t39.5 -13.5v-96q-35 0 -63 5.5t-48 21.5q-20 15 -30.5 42.5t-10.5 72.5v576zM28 754l90 141h108l-132 -141h-66z" />
    <glyph glyph-name="Ldot" unicode="&#x13f;" 
d="M48 0v712h102v-610h202v-102h-304zM232 313v102h90v-102h-90z" />
    <glyph glyph-name="ldot" unicode="&#x140;" horiz-adv-x="295" 
d="M36 712h102v-569q0 -29 10.5 -39.5t39.5 -13.5v-96q-35 0 -63 5.5t-48 21.5q-20 15 -30.5 42.5t-10.5 72.5v576zM182 302v102h90v-102h-90z" />
    <glyph glyph-name="nacute" unicode="&#x144;" horiz-adv-x="389" 
d="M42 0v507h102v-49h2q16 24 38.5 39.5t57.5 15.5q19 0 38 -6.5t34 -21.5t24 -38.5t9 -57.5v-389h-102v351q0 28 -13 44t-37 16q-29 0 -40 -18t-11 -52v-341h-102zM129 574l90 141h108l-132 -141h-66z" />
    <glyph glyph-name="ncaron" unicode="&#x148;" horiz-adv-x="389" 
d="M42 0v507h102v-49h2q16 24 38.5 39.5t57.5 15.5q19 0 38 -6.5t34 -21.5t24 -38.5t9 -57.5v-389h-102v351q0 28 -13 44t-37 16q-29 0 -40 -18t-11 -52v-341h-102zM339 715l-98 -141h-94l-98 141h78l67 -95l67 95h78z" />
    <glyph glyph-name="ohungarumlaut" unicode="&#x151;" 
d="M33 337q0 31 4 57t15 46q18 33 51.5 53t81.5 20t81.5 -20t51.5 -53q11 -20 15 -46t4 -57v-167q0 -31 -4 -57t-15 -46q-18 -33 -51.5 -53t-81.5 -20t-81.5 20t-51.5 53q-11 20 -15 46t-4 57v167zM135 154q0 -29 13.5 -43.5t36.5 -14.5t36.5 14.5t13.5 43.5v199
q0 29 -13.5 43.5t-36.5 14.5t-36.5 -14.5t-13.5 -43.5v-199zM38 574l90 141h108l-132 -141h-66zM200 574l90 141h108l-132 -141h-66z" />
    <glyph glyph-name="omacron" unicode="&#x14d;" 
d="M33 337q0 31 4 57t15 46q18 33 51.5 53t81.5 20t81.5 -20t51.5 -53q11 -20 15 -46t4 -57v-167q0 -31 -4 -57t-15 -46q-18 -33 -51.5 -53t-81.5 -20t-81.5 20t-51.5 53q-11 20 -15 46t-4 57v167zM135 154q0 -29 13.5 -43.5t36.5 -14.5t36.5 14.5t13.5 43.5v199
q0 29 -13.5 43.5t-36.5 14.5t-36.5 -14.5t-13.5 -43.5v-199zM48 607v60h274v-60h-274z" />
    <glyph glyph-name="racute" unicode="&#x155;" horiz-adv-x="278" 
d="M42 0v507h102v-54q31 28 61 44t74 16v-108q-15 6 -31 6t-34.5 -5.5t-33.5 -18.5q-16 -13 -26 -34t-10 -52v-301h-102zM74 574l90 141h108l-132 -141h-66z" />
    <glyph glyph-name="rcaron" unicode="&#x159;" horiz-adv-x="278" 
d="M42 0v507h102v-54q31 28 61 44t74 16v-108q-15 6 -31 6t-34.5 -5.5t-33.5 -18.5q-16 -13 -26 -34t-10 -52v-301h-102zM284 715l-98 -141h-94l-98 141h78l67 -95l67 95h78z" />
    <glyph glyph-name="sacute" unicode="&#x15b;" horiz-adv-x="352" 
d="M227 365q-1 26 -16.5 39t-35.5 13q-24 0 -37 -15.5t-13 -35.5q0 -14 7 -27.5t36 -24.5l60 -24q57 -22 78.5 -60t21.5 -83q0 -32 -11.5 -59.5t-31.5 -48.5t-48 -33t-61 -12q-62 0 -104 39q-21 19 -34 47.5t-14 66.5h96q3 -21 14.5 -39t40.5 -18q22 0 39.5 14.5t17.5 40.5
q0 21 -11 36t-40 26l-49 18q-48 18 -75.5 53.5t-27.5 86.5q0 32 12 59.5t33 47.5q20 20 47 30.5t58 10.5t57.5 -11t45.5 -31t30 -47.5t11 -58.5h-96zM111 574l90 141h108l-132 -141h-66z" />
    <glyph glyph-name="Scedilla" unicode="&#x15e;" horiz-adv-x="406" 
d="M130 -86l60 81q-33 2 -62 14.5t-50 33.5q-23 23 -36.5 53.5t-13.5 66.5v38h102v-32q0 -28 16.5 -50.5t55.5 -22.5q26 0 40.5 7.5t22.5 21.5t9.5 33.5t1.5 43.5q0 28 -2 46t-8 29q-7 11 -18.5 18t-30.5 15l-73 30q-66 27 -88.5 71.5t-22.5 111.5q0 40 11 76t33 62
q21 26 53.5 41.5t77.5 15.5q38 0 69.5 -14t54.5 -37q46 -48 46 -110v-50h-102v23q0 35 -16.5 60.5t-55.5 25.5q-21 0 -34 -8t-21 -20q-8 -13 -11 -29.5t-3 -34.5q0 -21 1.5 -35t7.5 -25t17.5 -19t31.5 -16l78 -31q34 -13 55 -30.5t33 -40.5q11 -24 15 -54.5t4 -69.5
q0 -45 -9 -83.5t-29 -65.5q-17 -23 -42 -37.5t-60 -19.5l-43 -57q8 1 15.5 1.5t15.5 0.5q25 0 41 -7t26 -18q10 -12 14 -25t4 -25q0 -24 -11.5 -41.5t-29.5 -28.5t-39.5 -16t-42.5 -5q-29 0 -54 7t-39 12l17 42q16 -6 32 -10.5t33 -4.5q8 0 17.5 1.5t17.5 6.5q19 10 19 33
q0 17 -14 27.5t-31 10.5q-22 0 -39 -7z" />
    <glyph glyph-name="scedilla" unicode="&#x15f;" horiz-adv-x="352" 
d="M93 -86l61 82q-23 3 -44 12t-38 25q-21 19 -34 47.5t-14 66.5h96q3 -21 14.5 -39t40.5 -18q22 0 39.5 14.5t17.5 40.5q0 21 -11 36t-40 26l-49 18q-48 18 -75.5 53.5t-27.5 86.5q0 32 12 59.5t33 47.5q20 20 47 30.5t58 10.5t57.5 -11t45.5 -31t30 -47.5t11 -58.5h-96
q-1 26 -16.5 39t-35.5 13q-24 0 -37 -15.5t-13 -35.5q0 -14 7 -27.5t36 -24.5l60 -24q57 -22 78.5 -60t21.5 -83q0 -32 -11.5 -59.5t-31.5 -48.5q-34 -35 -84 -43l-43 -56q8 1 15.5 1.5t15.5 0.5q25 0 41 -7t26 -18q10 -12 14 -25t4 -25q0 -24 -11.5 -41.5t-29.5 -28.5
t-39.5 -16t-42.5 -5q-29 0 -54 7t-39 12l17 42q16 -6 32 -10.5t33 -4.5q8 0 17.5 1.5t17.5 6.5q19 10 19 33q0 17 -14 27.5t-31 10.5q-22 0 -39 -7z" />
    <glyph glyph-name="tcedilla" unicode="&#x163;" horiz-adv-x="204" 
d="M42 507v154h102v-154h63v-80h-63v-281q0 -18 3.5 -28t11.5 -15t19.5 -6t28.5 -1v-96h-42q-35 0 -58.5 11t-37.5 28t-20.5 38.5t-6.5 41.5v308h-51v80h51zM29 -86l65 86h46l-46 -60q8 1 15.5 1.5t15.5 0.5q25 0 41 -7t26 -18q10 -12 14 -25t4 -25q0 -24 -11.5 -41.5
t-29.5 -28.5t-39.5 -16t-42.5 -5q-29 0 -54 7t-39 12l17 42q16 -6 32 -10.5t33 -4.5q8 0 17.5 1.5t17.5 6.5q19 10 19 33q0 17 -14 27.5t-31 10.5q-22 0 -39 -7z" />
    <glyph glyph-name="uhungarumlaut" unicode="&#x171;" horiz-adv-x="389" 
d="M347 507v-507h-102v49h-2q-16 -24 -38.5 -39.5t-57.5 -15.5q-19 0 -38 6.5t-34 21.5t-24 38.5t-9 57.5v389h102v-351q0 -28 13 -44t37 -16q29 0 40 18t11 52v341h102zM47 574l90 141h108l-132 -141h-66zM209 574l90 141h108l-132 -141h-66z" />
    <glyph glyph-name="umacron" unicode="&#x16b;" horiz-adv-x="389" 
d="M347 507v-507h-102v49h-2q-16 -24 -38.5 -39.5t-57.5 -15.5q-19 0 -38 6.5t-34 21.5t-24 38.5t-9 57.5v389h102v-351q0 -28 13 -44t37 -16q29 0 40 18t11 52v341h102zM57 607v60h274v-60h-274z" />
    <glyph glyph-name="uring" unicode="&#x16f;" horiz-adv-x="389" 
d="M347 507v-507h-102v49h-2q-16 -24 -38.5 -39.5t-57.5 -15.5q-19 0 -38 6.5t-34 21.5t-24 38.5t-9 57.5v389h102v-351q0 -28 13 -44t37 -16q29 0 40 18t11 52v341h102zM92 660q0 42 30 72t72 30t72 -30t30 -72t-30 -72t-72 -30t-72 30t-30 72zM133 660q0 -26 17.5 -43.5
t43.5 -17.5t43.5 17.5t17.5 43.5t-17.5 43.5t-43.5 17.5t-43.5 -17.5t-17.5 -43.5z" />
    <glyph glyph-name="zacute" unicode="&#x17a;" horiz-adv-x="315" 
d="M17 0v81l165 336h-152v90h268v-81l-165 -330h165v-96h-281zM92 574l90 141h108l-132 -141h-66z" />
    <glyph glyph-name="zdotaccent" unicode="&#x17c;" horiz-adv-x="315" 
d="M17 0v81l165 336h-152v90h268v-81l-165 -330h165v-96h-281zM112 586v102h90v-102h-90z" />
    <glyph glyph-name="Abreve" unicode="&#x102;" horiz-adv-x="407" 
d="M254 249l-50 258h-2l-50 -258h102zM2 0l159 712h85l159 -712h-102l-30 153h-139l-30 -153h-102zM357 885q-21 -136 -154 -136t-154 136h51q2 -14 7.5 -27.5t17.5 -24.5t31 -17.5t47 -6.5t47 6.5t31 17.5t17.5 24.5t7.5 27.5h51z" />
    <glyph glyph-name="Amacron" unicode="&#x100;" horiz-adv-x="407" 
d="M254 249l-50 258h-2l-50 -258h102zM2 0l159 712h85l159 -712h-102l-30 153h-139l-30 -153h-102zM66 777v60h274v-60h-274z" />
    <glyph glyph-name="Cacute" unicode="&#x106;" horiz-adv-x="407" 
d="M372 203v-44q0 -33 -12.5 -62.5t-34.5 -52.5t-51.5 -36.5t-63.5 -13.5q-29 0 -59 8t-54 28t-39.5 51.5t-15.5 80.5v392q0 35 12 65t34 52t52.5 34.5t67.5 12.5q72 0 117 -47q22 -23 34.5 -54.5t12.5 -68.5v-40h-102v34q0 30 -17 52t-46 22q-38 0 -50.5 -23.5t-12.5 -59.5
v-364q0 -31 13.5 -52t48.5 -21q10 0 21.5 3.5t21.5 11.5q9 8 15 22t6 35v35h102zM138 744l90 141h108l-132 -141h-66z" />
    <glyph glyph-name="Ccaron" unicode="&#x10c;" horiz-adv-x="407" 
d="M372 203v-44q0 -33 -12.5 -62.5t-34.5 -52.5t-51.5 -36.5t-63.5 -13.5q-29 0 -59 8t-54 28t-39.5 51.5t-15.5 80.5v392q0 35 12 65t34 52t52.5 34.5t67.5 12.5q72 0 117 -47q22 -23 34.5 -54.5t12.5 -68.5v-40h-102v34q0 30 -17 52t-46 22q-38 0 -50.5 -23.5t-12.5 -59.5
v-364q0 -31 13.5 -52t48.5 -21q10 0 21.5 3.5t21.5 11.5q9 8 15 22t6 35v35h102zM348 885l-98 -141h-94l-98 141h78l67 -95l67 95h78z" />
    <glyph glyph-name="Cdotaccent" unicode="&#x10a;" horiz-adv-x="407" 
d="M372 203v-44q0 -33 -12.5 -62.5t-34.5 -52.5t-51.5 -36.5t-63.5 -13.5q-29 0 -59 8t-54 28t-39.5 51.5t-15.5 80.5v392q0 35 12 65t34 52t52.5 34.5t67.5 12.5q72 0 117 -47q22 -23 34.5 -54.5t12.5 -68.5v-40h-102v34q0 30 -17 52t-46 22q-38 0 -50.5 -23.5t-12.5 -59.5
v-364q0 -31 13.5 -52t48.5 -21q10 0 21.5 3.5t21.5 11.5q9 8 15 22t6 35v35h102zM158 756v102h90v-102h-90z" />
    <glyph glyph-name="Dcaron" unicode="&#x10e;" horiz-adv-x="426" 
d="M48 0v712h151q88 0 133.5 -48t45.5 -136v-333q0 -100 -48.5 -147.5t-139.5 -47.5h-142zM150 616v-520h47q43 0 61 21.5t18 67.5v343q0 42 -17 65t-62 23h-47zM328 885l-98 -141h-94l-98 141h78l67 -95l67 95h78z" />
    <glyph glyph-name="Ecaron" unicode="&#x11a;" 
d="M48 0v712h304v-96h-202v-209h176v-96h-176v-209h202v-102h-304zM347 885l-98 -141h-94l-98 141h78l67 -95l67 95h78z" />
    <glyph glyph-name="Edotaccent" unicode="&#x116;" 
d="M48 0v712h304v-96h-202v-209h176v-96h-176v-209h202v-102h-304zM160 756v102h90v-102h-90z" />
    <glyph glyph-name="Emacron" unicode="&#x112;" 
d="M48 0v712h304v-96h-202v-209h176v-96h-176v-209h202v-102h-304zM60 777v60h274v-60h-274z" />
    <glyph glyph-name="Gbreve" unicode="&#x11e;" horiz-adv-x="426" 
d="M42 544q0 43 15 76t40 55q24 21 54.5 32t61.5 11t61.5 -11t55.5 -32q24 -22 39 -55t15 -76v-36h-102v36q0 37 -20.5 54.5t-48.5 17.5t-48.5 -17.5t-20.5 -54.5v-376q0 -37 20.5 -54.5t48.5 -17.5t48.5 17.5t20.5 54.5v134h-81v90h183v-224q0 -45 -15 -77t-39 -53
q-25 -22 -55.5 -33t-61.5 -11t-61.5 11t-54.5 33q-25 21 -40 53t-15 77v376zM367 885q-21 -136 -154 -136t-154 136h51q2 -14 7.5 -27.5t17.5 -24.5t31 -17.5t47 -6.5t47 6.5t31 17.5t17.5 24.5t7.5 27.5h51z" />
    <glyph glyph-name="Gdotaccent" unicode="&#x120;" horiz-adv-x="426" 
d="M42 544q0 43 15 76t40 55q24 21 54.5 32t61.5 11t61.5 -11t55.5 -32q24 -22 39 -55t15 -76v-36h-102v36q0 37 -20.5 54.5t-48.5 17.5t-48.5 -17.5t-20.5 -54.5v-376q0 -37 20.5 -54.5t48.5 -17.5t48.5 17.5t20.5 54.5v134h-81v90h183v-224q0 -45 -15 -77t-39 -53
q-25 -22 -55.5 -33t-61.5 -11t-61.5 11t-54.5 33q-25 21 -40 53t-15 77v376zM168 756v102h90v-102h-90z" />
    <glyph glyph-name="Idotaccent" unicode="&#x130;" horiz-adv-x="204" 
d="M51 0v712h102v-712h-102zM57 756v102h90v-102h-90z" />
    <glyph glyph-name="Imacron" unicode="&#x12a;" horiz-adv-x="204" 
d="M51 0v712h102v-712h-102zM-35 777v60h274v-60h-274z" />
    <glyph glyph-name="Lacute" unicode="&#x139;" 
d="M48 0v712h102v-610h202v-102h-304zM64 744l90 141h108l-132 -141h-66z" />
    <glyph glyph-name="Nacute" unicode="&#x143;" horiz-adv-x="444" 
d="M44 0v712h98l154 -429h2v429h102v-712h-96l-156 428h-2v-428h-102zM187 744l90 141h108l-132 -141h-66z" />
    <glyph glyph-name="Ncaron" unicode="&#x147;" horiz-adv-x="444" 
d="M44 0v712h98l154 -429h2v429h102v-712h-96l-156 428h-2v-428h-102zM367 885l-98 -141h-94l-98 141h78l67 -95l67 95h78z" />
    <glyph glyph-name="Ohungarumlaut" unicode="&#x150;" horiz-adv-x="426" 
d="M42 544q0 43 15 76t40 55q24 21 54.5 32t61.5 11t61.5 -11t55.5 -32q24 -22 39 -55t15 -76v-376q0 -45 -15 -77t-39 -53q-25 -22 -55.5 -33t-61.5 -11t-61.5 11t-54.5 33q-25 21 -40 53t-15 77v376zM144 168q0 -37 20.5 -54.5t48.5 -17.5t48.5 17.5t20.5 54.5v376
q0 37 -20.5 54.5t-48.5 17.5t-48.5 -17.5t-20.5 -54.5v-376zM86 744l90 141h108l-132 -141h-66zM248 744l90 141h108l-132 -141h-66z" />
    <glyph glyph-name="Omacron" unicode="&#x14c;" horiz-adv-x="426" 
d="M42 544q0 43 15 76t40 55q24 21 54.5 32t61.5 11t61.5 -11t55.5 -32q24 -22 39 -55t15 -76v-376q0 -45 -15 -77t-39 -53q-25 -22 -55.5 -33t-61.5 -11t-61.5 11t-54.5 33q-25 21 -40 53t-15 77v376zM144 168q0 -37 20.5 -54.5t48.5 -17.5t48.5 17.5t20.5 54.5v376
q0 37 -20.5 54.5t-48.5 17.5t-48.5 -17.5t-20.5 -54.5v-376zM76 777v60h274v-60h-274z" />
    <glyph glyph-name="Racute" unicode="&#x154;" horiz-adv-x="426" 
d="M150 616v-222h58q27 0 43 7.5t25 21.5q8 14 11 34.5t3 47.5t-3 47.5t-12 35.5q-19 28 -72 28h-53zM48 0v712h164q180 0 180 -209q0 -63 -19.5 -107t-68.5 -71l110 -325h-108l-95 304h-61v-304h-102zM148 744l90 141h108l-132 -141h-66z" />
    <glyph glyph-name="Sacute" unicode="&#x15a;" horiz-adv-x="406" 
d="M378 507h-102v23q0 35 -16.5 60.5t-55.5 25.5q-21 0 -34 -8t-21 -20q-8 -13 -11 -29.5t-3 -34.5q0 -21 1.5 -35t7.5 -25t17.5 -19t31.5 -16l78 -31q34 -13 55 -30.5t33 -40.5q11 -24 15 -54.5t4 -69.5q0 -45 -9 -83.5t-29 -65.5q-21 -28 -55 -44t-83 -16q-37 0 -69 13
t-55 36t-36.5 53.5t-13.5 66.5v38h102v-32q0 -28 16.5 -50.5t55.5 -22.5q26 0 40.5 7.5t22.5 21.5t9.5 33.5t1.5 43.5q0 28 -2 46t-8 29q-7 11 -18.5 18t-30.5 15l-73 30q-66 27 -88.5 71.5t-22.5 111.5q0 40 11 76t33 62q21 26 53.5 41.5t77.5 15.5q38 0 69.5 -14t54.5 -37
q46 -48 46 -110v-50zM158 744l90 141h108l-132 -141h-66z" />
    <glyph glyph-name="Tcaron" unicode="&#x164;" horiz-adv-x="332" 
d="M115 0v616h-118v96h338v-96h-118v-616h-102zM311 885l-98 -141h-94l-98 141h78l67 -95l67 95h78z" />
    <glyph glyph-name="Uhungarumlaut" unicode="&#x170;" horiz-adv-x="426" 
d="M378 712v-552q0 -35 -12.5 -64.5t-35.5 -52.5t-53 -36t-64 -13t-63.5 13t-52.5 36t-36 52.5t-13 64.5v552h102v-542q0 -38 18 -56t45 -18t45 18t18 56v542h102zM96 744l90 141h108l-132 -141h-66zM258 744l90 141h108l-132 -141h-66z" />
    <glyph glyph-name="Umacron" unicode="&#x16a;" horiz-adv-x="426" 
d="M378 712v-552q0 -35 -12.5 -64.5t-35.5 -52.5t-53 -36t-64 -13t-63.5 13t-52.5 36t-36 52.5t-13 64.5v552h102v-542q0 -38 18 -56t45 -18t45 18t18 56v542h102zM76 777v60h274v-60h-274z" />
    <glyph glyph-name="Uring" unicode="&#x16e;" horiz-adv-x="426" 
d="M378 712v-552q0 -35 -12.5 -64.5t-35.5 -52.5t-53 -36t-64 -13t-63.5 13t-52.5 36t-36 52.5t-13 64.5v552h102v-542q0 -38 18 -56t45 -18t45 18t18 56v542h102zM111 830q0 42 30 72t72 30t72 -30t30 -72t-30 -72t-72 -30t-72 30t-30 72zM152 830q0 -26 17.5 -43.5
t43.5 -17.5t43.5 17.5t17.5 43.5t-17.5 43.5t-43.5 17.5t-43.5 -17.5t-17.5 -43.5z" />
    <glyph glyph-name="Zacute" unicode="&#x179;" horiz-adv-x="333" 
d="M15 0v90l192 526h-182v96h293v-81l-196 -535h196v-96h-303zM121 744l90 141h108l-132 -141h-66z" />
    <glyph glyph-name="Zdotaccent" unicode="&#x17b;" horiz-adv-x="333" 
d="M15 0v90l192 526h-182v96h293v-81l-196 -535h196v-96h-303zM121 756v102h90v-102h-90z" />
    <glyph glyph-name="u040C" unicode="&#x40c;" horiz-adv-x="414" 
d="M404 616q-14 0 -23 -3.5t-17 -12.5t-11 -22t-5 -29l-9 -83q-1 -13 -3 -24q-2 -10 -4 -20.5t-6 -18.5q-6 -14 -14.5 -24.5t-16.5 -16.5l106 -362h-104l-90 317h-57v-317h-102v712h102v-305h34q18 0 29 5t18 14t10 20.5t5 25.5l10 85q1 4 2.5 16.5t5.5 28.5t11 33t18 32
q19 24 46.5 34.5t64.5 10.5v-96zM178 744l90 141h108l-132 -141h-66z" />
    <glyph glyph-name="Aogonek" unicode="&#x104;" horiz-adv-x="407" 
d="M405 -202q-15 -8 -39.5 -15t-57.5 -7q-42 0 -70.5 24.5t-28.5 66.5q0 24 7 43t20 35q13 15 29.5 28t36.5 27h1l-30 153h-139l-30 -153h-102l159 712h85l159 -712h-52q-30 -29 -47 -62t-17 -64q0 -24 14.5 -38t34.5 -14q17 0 29.5 3.5t23.5 9.5zM254 249l-50 258h-2
l-50 -258h102z" />
    <glyph glyph-name="dcaron" unicode="&#x10f;" horiz-adv-x="575" 
d="M144 165q0 -31 12 -50t38 -19q23 0 37 17.5t14 45.5v197q0 24 -14.5 39.5t-36.5 15.5q-29 0 -39.5 -18t-10.5 -42v-186zM245 0v46q-10 -11 -19 -20.5t-20 -16.5t-25 -11t-33 -4q-64 0 -89 48q-9 17 -13 42t-4 67v193q0 55 3 81q6 50 47 75q19 13 57 13q30 0 53.5 -13.5
t40.5 -38.5h2v251h102v-712h-102zM431 536v176h102v-102z" />
    <glyph glyph-name="dcroat" unicode="&#x111;" horiz-adv-x="397" 
d="M245 0v46q-10 -11 -19 -20.5t-20 -16.5t-25 -11t-33 -4q-64 0 -89 48q-9 17 -13 42t-4 67v193q0 55 3 81q6 50 47 75q19 13 57 13q30 0 53.5 -13.5t40.5 -38.5h2v141h-110v60h110v50h102v-50h50v-60h-50v-602h-102zM144 165q0 -31 12 -50t38 -19q23 0 37 17.5t14 45.5
v197q0 24 -14.5 39.5t-36.5 15.5q-29 0 -39.5 -18t-10.5 -42v-186z" />
    <glyph glyph-name="Dcroat" unicode="&#x110;" horiz-adv-x="426" 
d="M150 616v-200h70v-66h-70v-254h47q43 0 61 21.5t18 67.5v343q0 42 -17 65t-62 23h-47zM48 0v350h-48v66h48v296h151q88 0 133.5 -48t45.5 -136v-333q0 -100 -48.5 -147.5t-139.5 -47.5h-142z" />
    <glyph glyph-name="Rcaron" unicode="&#x158;" horiz-adv-x="426" 
d="M150 616v-222h58q27 0 43 7.5t25 21.5q8 14 11 34.5t3 47.5t-3 47.5t-12 35.5q-19 28 -72 28h-53zM48 0v712h164q180 0 180 -209q0 -63 -19.5 -107t-68.5 -71l110 -325h-108l-95 304h-61v-304h-102zM330 885l-98 -141h-94l-98 141h78l67 -95l67 95h78z" />
    <glyph glyph-name="commaaccent" unicode="&#xf6c3;" horiz-adv-x="186" 
d="M42 -234v176h102v-102z" />
    <glyph glyph-name="hookabovecomb" unicode="&#x309;" horiz-adv-x="192" 
d="M62 637q12 0 22.5 1t18.5 4q24 9 24 29q0 18 -19 26q-8 4 -20.5 5.5t-21.5 1.5q-13 0 -25.5 -2.5t-23 -5t-17 -5l-6.5 -2.5l-9 45l32 8q14 3 30 5.5t32 2.5q22 0 45.5 -4t40.5 -12q19 -9 30.5 -24t11.5 -35q0 -18 -8.5 -32t-22.5 -23q-29 -18 -72 -18v-28h-42v63z" />
    <glyph glyph-name="gravedblnosp" unicode="&#x30f;" horiz-adv-x="348" 
d="M68 715l90 -141h-66l-132 141h108zM230 715l90 -141h-66l-132 141h108z" />
    <glyph glyph-name="dotsubnosp" unicode="&#x323;" horiz-adv-x="186" 
d="M48 -160v102h90v-102h-90z" />
    <glyph glyph-name="Scommaaccent" unicode="&#x218;" horiz-adv-x="406" 
d="M378 507h-102v23q0 35 -16.5 60.5t-55.5 25.5q-21 0 -34 -8t-21 -20q-8 -13 -11 -29.5t-3 -34.5q0 -21 1.5 -35t7.5 -25t17.5 -19t31.5 -16l78 -31q34 -13 55 -30.5t33 -40.5q11 -24 15 -54.5t4 -69.5q0 -45 -9 -83.5t-29 -65.5q-21 -28 -55 -44t-83 -16q-37 0 -69 13
t-55 36t-36.5 53.5t-13.5 66.5v38h102v-32q0 -28 16.5 -50.5t55.5 -22.5q26 0 40.5 7.5t22.5 21.5t9.5 33.5t1.5 43.5q0 28 -2 46t-8 29q-7 11 -18.5 18t-30.5 15l-73 30q-66 27 -88.5 71.5t-22.5 111.5q0 40 11 76t33 62q21 26 53.5 41.5t77.5 15.5q38 0 69.5 -14t54.5 -37
q46 -48 46 -110v-50zM152 -234v176h102v-102z" />
    <glyph glyph-name="Eogonek" unicode="&#x118;" 
d="M48 0v712h304v-96h-202v-209h176v-96h-176v-209h202v-102h-304zM352 -202q-15 -8 -39.5 -15t-57.5 -7q-42 0 -70.5 24.5t-28.5 66.5q0 24 7 43t20 35q13 15 29.5 28t36.5 27h51q-30 -29 -47 -62t-17 -64q0 -24 14.5 -38t34.5 -14q17 0 29.5 3.5t23.5 9.5z" />
    <glyph glyph-name="Lcaron" unicode="&#x13d;" 
d="M48 0v712h102v-610h202v-102h-304zM239 536v176h102v-102z" />
    <glyph glyph-name="Tcommaaccent" unicode="&#x21a;" horiz-adv-x="332" 
d="M115 0v616h-118v96h338v-96h-118v-616h-102zM115 -234v176h102v-102z" />
    <glyph glyph-name="aogonek" unicode="&#x105;" 
d="M235 0v52h-2q-20 -28 -40.5 -43t-57.5 -15q-18 0 -36.5 5.5t-35.5 20.5q-17 14 -27.5 40.5t-10.5 68.5q0 43 7 75.5t26 54.5q18 21 49 31.5t79 10.5h11t11 -1t12 -1t15 -1v53q0 26 -11 43t-40 17q-20 0 -36.5 -13t-21.5 -38h-99q4 68 46 110q20 20 48 31.5t63 11.5
q32 0 60 -10t49 -30q20 -20 32 -50t12 -70v-353h-102zM235 218q-17 3 -28 3q-33 0 -56.5 -15.5t-23.5 -56.5q0 -29 14 -47t39 -18q26 0 40.5 17t14.5 48v69zM337 -202q-15 -8 -39.5 -15t-57.5 -7q-42 0 -70.5 24.5t-28.5 66.5q0 24 7 43t20 35q13 15 29.5 28t36.5 27h51
q-30 -29 -47 -62t-17 -64q0 -24 14.5 -38t34.5 -14q17 0 29.5 3.5t23.5 9.5z" />
    <glyph glyph-name="eogonek" unicode="&#x119;" 
d="M276 -202q-15 -8 -39.5 -15t-57.5 -7q-42 0 -70.5 24.5t-28.5 66.5q0 24 7 43t20 35q11 14 26 25.5t32 24.5q-40 4 -68.5 23t-44.5 49q-11 20 -15 46t-4 57v167q0 31 4 57t15 46q18 33 51.5 53t81.5 20q35 0 63.5 -12t48.5 -33q40 -45 40 -113v-140h-202v-69
q0 -24 13.5 -37t36.5 -13q29 0 38.5 17t11.5 34h102q0 -67 -41 -108q-31 -32 -75 -41q-29 -29 -45 -61.5t-16 -62.5q0 -24 14.5 -38t34.5 -14q17 0 29.5 3.5t23.5 9.5zM135 295h100v58q0 29 -13.5 43.5t-36.5 14.5t-36.5 -14.5t-13.5 -43.5v-58z" />
    <glyph glyph-name="lcaron" unicode="&#x13e;" horiz-adv-x="372" 
d="M36 712h102v-569q0 -29 10.5 -39.5t39.5 -13.5v-96q-35 0 -63 5.5t-48 21.5q-20 15 -30.5 42.5t-10.5 72.5v576zM228 536v176h102v-102z" />
    <glyph glyph-name="scommaaccent" unicode="&#x219;" horiz-adv-x="352" 
d="M227 365q-1 26 -16.5 39t-35.5 13q-24 0 -37 -15.5t-13 -35.5q0 -14 7 -27.5t36 -24.5l60 -24q57 -22 78.5 -60t21.5 -83q0 -32 -11.5 -59.5t-31.5 -48.5t-48 -33t-61 -12q-62 0 -104 39q-21 19 -34 47.5t-14 66.5h96q3 -21 14.5 -39t40.5 -18q22 0 39.5 14.5t17.5 40.5
q0 21 -11 36t-40 26l-49 18q-48 18 -75.5 53.5t-27.5 86.5q0 32 12 59.5t33 47.5q20 20 47 30.5t58 10.5t57.5 -11t45.5 -31t30 -47.5t11 -58.5h-96zM125 -234v176h102v-102z" />
    <glyph glyph-name="tcaron" unicode="&#x165;" horiz-adv-x="390" 
d="M42 507v154h102v-154h63v-80h-63v-281q0 -18 3.5 -28t11.5 -15t19.5 -6t28.5 -1v-96h-42q-35 0 -58.5 11t-37.5 28t-20.5 38.5t-6.5 41.5v308h-51v80h51zM246 536v176h102v-102z" />
    <glyph glyph-name="tcommaaccent" unicode="&#x21b;" horiz-adv-x="204" 
d="M42 507v154h102v-154h63v-80h-63v-281q0 -18 3.5 -28t11.5 -15t19.5 -6t28.5 -1v-96h-42q-35 0 -58.5 11t-37.5 28t-20.5 38.5t-6.5 41.5v308h-51v80h51zM51 -234v176h102v-102z" />
    <glyph glyph-name="Gcommaaccent" unicode="&#x122;" horiz-adv-x="426" 
d="M42 544q0 43 15 76t40 55q24 21 54.5 32t61.5 11t61.5 -11t55.5 -32q24 -22 39 -55t15 -76v-36h-102v36q0 37 -20.5 54.5t-48.5 17.5t-48.5 -17.5t-20.5 -54.5v-376q0 -37 20.5 -54.5t48.5 -17.5t48.5 17.5t20.5 54.5v134h-81v90h183v-224q0 -45 -15 -77t-39 -53
q-25 -22 -55.5 -33t-61.5 -11t-61.5 11t-54.5 33q-25 21 -40 53t-15 77v376zM162 -234v176h102v-102z" />
    <glyph glyph-name="gcommaaccent" unicode="&#x123;" horiz-adv-x="389" 
d="M144 -59q1 -18 14.5 -34t39.5 -16q25 0 36 15.5t11 39.5v100h-2q-17 -25 -40.5 -38.5t-54.5 -13.5q-64 0 -89 48q-9 17 -13 42t-4 67v193q0 55 3 81q6 50 47 75q19 13 57 13q19 0 32.5 -4t24.5 -11t20 -16.5t19 -20.5v46h102v-569q0 -26 -8.5 -52.5t-27.5 -47.5
q-19 -22 -48 -35.5t-69 -13.5q-23 0 -48 7.5t-46 25.5q-22 17 -37.5 45.5t-20.5 73.5h102zM144 156q0 -24 10.5 -42t39.5 -18q22 0 36.5 15.5t14.5 39.5v197q0 28 -14 45.5t-37 17.5q-26 0 -38 -19t-12 -50v-186zM235 762v-176h-102v102z" />
    <glyph glyph-name="Iogonek" unicode="&#x12e;" horiz-adv-x="204" 
d="M51 0v712h102v-712h-102zM153 -202q-15 -8 -39.5 -15t-57.5 -7q-42 0 -70.5 24.5t-28.5 66.5q0 24 7 43t20 35q13 15 29.5 28t36.5 27h51q-30 -29 -47 -62t-17 -64q0 -24 14.5 -38t34.5 -14q17 0 29.5 3.5t23.5 9.5z" />
    <glyph glyph-name="iogonek" unicode="&#x12f;" horiz-adv-x="186" 
d="M191 -202q-15 -8 -39.5 -15t-57.5 -7q-42 0 -70.5 24.5t-28.5 66.5q0 24 7 43t20 35q13 15 29.5 28t36.5 27h-46v507h102v-507h-5q-30 -29 -47 -62t-17 -64q0 -24 14.5 -38t34.5 -14q17 0 29.5 3.5t23.5 9.5zM42 610v102h102v-102h-102z" />
    <glyph glyph-name="Kcommaaccent" unicode="&#x136;" horiz-adv-x="426" 
d="M48 0v712h102v-325h2l149 325h102l-139 -285l165 -427h-108l-116 316l-55 -103v-213h-102zM162 -234v176h102v-102z" />
    <glyph glyph-name="Lcommaaccent" unicode="&#x13b;" 
d="M48 0v712h102v-610h202v-102h-304zM134 -234v176h102v-102z" />
    <glyph glyph-name="Ncommaaccent" unicode="&#x145;" horiz-adv-x="444" 
d="M44 0v712h98l154 -429h2v429h102v-712h-96l-156 428h-2v-428h-102zM171 -234v176h102v-102z" />
    <glyph glyph-name="kcommaaccent" unicode="&#x137;" horiz-adv-x="389" 
d="M42 0v712h102v-426h2l123 221h102l-121 -206l146 -301h-111l-92 219l-49 -77v-142h-102zM143 -234v176h102v-102z" />
    <glyph glyph-name="lcommaaccent" unicode="&#x13c;" horiz-adv-x="186" 
d="M36 712h102v-569q0 -29 10.5 -39.5t39.5 -13.5v-96q-35 0 -63 5.5t-48 21.5q-20 15 -30.5 42.5t-10.5 72.5v576zM42 -234v176h102v-102z" />
    <glyph glyph-name="ncommaaccent" unicode="&#x146;" horiz-adv-x="389" 
d="M42 0v507h102v-49h2q16 24 38.5 39.5t57.5 15.5q19 0 38 -6.5t34 -21.5t24 -38.5t9 -57.5v-389h-102v351q0 28 -13 44t-37 16q-29 0 -40 -18t-11 -52v-341h-102zM143 -234v176h102v-102z" />
    <glyph glyph-name="Rcommaaccent" unicode="&#x156;" horiz-adv-x="426" 
d="M150 616v-222h58q27 0 43 7.5t25 21.5q8 14 11 34.5t3 47.5t-3 47.5t-12 35.5q-19 28 -72 28h-53zM48 0v712h164q180 0 180 -209q0 -63 -19.5 -107t-68.5 -71l110 -325h-108l-95 304h-61v-304h-102zM162 -234v176h102v-102z" />
    <glyph glyph-name="Uogonek" unicode="&#x172;" horiz-adv-x="426" 
d="M378 712v-552q0 -35 -12.5 -64.5t-35.5 -52.5t-53 -36t-64 -13t-63.5 13t-52.5 36t-36 52.5t-13 64.5v552h102v-542q0 -38 18 -56t45 -18t45 18t18 56v542h102zM378 -202q-15 -8 -39.5 -15t-57.5 -7q-42 0 -70.5 24.5t-28.5 66.5q0 24 7 43t20 35q13 15 29.5 28t36.5 27
h51q-30 -29 -47 -62t-17 -64q0 -24 14.5 -38t34.5 -14q17 0 29.5 3.5t23.5 9.5z" />
    <glyph glyph-name="rcommaaccent" unicode="&#x157;" horiz-adv-x="278" 
d="M42 0v507h102v-54q31 28 61 44t74 16v-108q-15 6 -31 6t-34.5 -5.5t-33.5 -18.5q-16 -13 -26 -34t-10 -52v-301h-102zM45 -234v176h102v-102z" />
    <glyph glyph-name="uogonek" unicode="&#x173;" horiz-adv-x="389" 
d="M347 -202q-15 -8 -39.5 -15t-57.5 -7q-42 0 -70.5 24.5t-28.5 66.5q0 24 7 43t20 35q13 15 29.5 28t36.5 27h1v49h-2q-16 -24 -38.5 -39.5t-57.5 -15.5q-19 0 -38 6.5t-34 21.5t-24 38.5t-9 57.5v389h102v-351q0 -28 13 -44t37 -16q29 0 40 18t11 52v341h102v-507h-52
q-30 -29 -47 -62t-17 -64q0 -24 14.5 -38t34.5 -14q17 0 29.5 3.5t23.5 9.5z" />
    <glyph glyph-name="Tcedilla" unicode="&#x162;" horiz-adv-x="332" 
d="M115 0v616h-118v96h338v-96h-118v-616h-102zM80 -86l65 86h46l-46 -60q8 1 15.5 1.5t15.5 0.5q25 0 41 -7t26 -18q10 -12 14 -25t4 -25q0 -24 -11.5 -41.5t-29.5 -28.5t-39.5 -16t-42.5 -5q-29 0 -54 7t-39 12l17 42q16 -6 32 -10.5t33 -4.5q8 0 17.5 1.5t17.5 6.5
q19 10 19 33q0 17 -14 27.5t-31 10.5q-22 0 -39 -7z" />
    <glyph glyph-name="hbar" unicode="&#x127;" horiz-adv-x="397" 
d="M152 554v-106h2q16 24 38.5 39.5t57.5 15.5q19 0 38 -6.5t34 -21.5t24 -38.5t9 -57.5v-379h-102v341q0 28 -13 44t-37 16q-29 0 -40 -18t-11 -52v-331h-102v554h-50v60h50v98h102v-98h110v-60h-110z" />
    <glyph glyph-name="Hbar" unicode="&#x126;" horiz-adv-x="431" 
d="M380 587v-587h-102v317h-126v-317h-102v587h-53v70h53v55h102v-55h126v55h102v-55h54v-70h-54zM278 407v180h-126v-180h126z" />
    <glyph glyph-name="Schwa" unicode="&#x18f;" horiz-adv-x="414" 
d="M42 407h228v129q0 36 -14 58t-52 22q-32 0 -46 -20t-14 -50v-38h-102v40q0 37 12.5 68.5t34.5 54.5q45 47 117 47q37 0 67.5 -12.5t52.5 -34.5t34 -52t12 -65v-386q0 -37 -11.5 -69t-33 -55t-52.5 -36.5t-71 -13.5q-34 0 -63.5 12.5t-51.5 34t-34.5 51t-12.5 63.5v252z
M208 96q32 0 47 19t15 50v152h-126v-153q0 -28 16 -48t48 -20z" />
    <glyph glyph-name="u0259" unicode="&#x259;" 
d="M235 292v61q0 29 -13.5 43.5t-36.5 14.5t-36.5 -14.5t-13.5 -45.5h-102q0 72 40 117q20 21 48.5 33t63.5 12q48 0 81.5 -20t51.5 -53q11 -20 15 -46t4 -57v-167q0 -31 -4 -57t-15 -46q-18 -33 -51.5 -53t-81.5 -20q-35 0 -63 12t-48 33q-41 41 -41 107v146h202zM235 212
h-100v-66q2 -17 11.5 -33.5t38.5 -16.5q23 0 36.5 13t13.5 37v66z" />
    <glyph glyph-name="eturn" unicode="&#x1dd;" 
d="M235 292v61q0 29 -13.5 43.5t-36.5 14.5t-36.5 -14.5t-13.5 -45.5h-102q0 72 40 117q20 21 48.5 33t63.5 12q48 0 81.5 -20t51.5 -53q11 -20 15 -46t4 -57v-167q0 -31 -4 -57t-15 -46q-18 -33 -51.5 -53t-81.5 -20q-35 0 -63 12t-48 33q-41 41 -41 107v146h202zM235 212
h-100v-66q2 -17 11.5 -33.5t38.5 -16.5q23 0 36.5 13t13.5 37v66z" />
    <glyph glyph-name="u0410" unicode="&#x410;" horiz-adv-x="407" 
d="M254 249l-50 258h-2l-50 -258h102zM2 0l159 712h85l159 -712h-102l-30 153h-139l-30 -153h-102z" />
    <glyph glyph-name="u0412" unicode="&#x412;" horiz-adv-x="426" 
d="M48 0v712h149q49 0 83.5 -15t56.5 -40t31.5 -57.5t9.5 -67.5v-26q0 -29 -4.5 -49t-13.5 -35q-17 -28 -52 -48q36 -17 53 -50t17 -90v-40q0 -94 -45.5 -144t-145.5 -50h-139zM150 330v-228h44q31 0 48.5 9t26.5 25t11 38t2 48q0 27 -3 47t-12 34q-10 14 -27 20.5t-45 6.5
h-45zM150 616v-196h46q51 0 68.5 25.5t17.5 74.5q0 48 -19.5 72t-70.5 24h-42z" />
    <glyph glyph-name="u0421" unicode="&#x421;" horiz-adv-x="407" 
d="M372 203v-44q0 -33 -12.5 -62.5t-34.5 -52.5t-51.5 -36.5t-63.5 -13.5q-29 0 -59 8t-54 28t-39.5 51.5t-15.5 80.5v392q0 35 12 65t34 52t52.5 34.5t67.5 12.5q72 0 117 -47q22 -23 34.5 -54.5t12.5 -68.5v-40h-102v34q0 30 -17 52t-46 22q-38 0 -50.5 -23.5t-12.5 -59.5
v-364q0 -31 13.5 -52t48.5 -21q10 0 21.5 3.5t21.5 11.5q9 8 15 22t6 35v35h102z" />
    <glyph glyph-name="u0415" unicode="&#x415;" 
d="M48 0v712h304v-96h-202v-209h176v-96h-176v-209h202v-102h-304z" />
    <glyph glyph-name="u0406" unicode="&#x406;" horiz-adv-x="204" 
d="M51 0v712h102v-712h-102z" />
    <glyph glyph-name="u0408" unicode="&#x408;" horiz-adv-x="333" 
d="M285 712v-544q0 -73 -46 -122q-23 -24 -54.5 -38t-73.5 -14q-49 0 -81.5 21.5t-51.5 42.5l80 64q11 -11 25.5 -18.5t30.5 -7.5q9 0 21 3.5t23 13.5q11 9 18 25.5t7 43.5v530h102z" />
    <glyph glyph-name="u041A" unicode="&#x41a;" horiz-adv-x="414" 
d="M404 616q-14 0 -23 -3.5t-17 -12.5t-11 -22t-5 -29l-9 -83q-1 -13 -3 -24q-2 -10 -4 -20.5t-6 -18.5q-6 -14 -14.5 -24.5t-16.5 -16.5l106 -362h-104l-90 317h-57v-317h-102v712h102v-305h34q18 0 29 5t18 14t10 20.5t5 25.5l10 85q1 4 2.5 16.5t5.5 28.5t11 33t18 32
q19 24 46.5 34.5t64.5 10.5v-96z" />
    <glyph glyph-name="u041C" unicode="&#x41c;" horiz-adv-x="556" 
d="M48 0v712h98l131 -377h2l130 377h99v-712h-102v433h-2l-101 -306h-51l-100 306h-2v-433h-102z" />
    <glyph glyph-name="u041D" unicode="&#x41d;" horiz-adv-x="426" 
d="M48 0v712h102v-305h126v305h102v-712h-102v317h-126v-317h-102z" />
    <glyph glyph-name="u041E" unicode="&#x41e;" horiz-adv-x="426" 
d="M42 544q0 43 15 76t40 55q24 21 54.5 32t61.5 11t61.5 -11t55.5 -32q24 -22 39 -55t15 -76v-376q0 -45 -15 -77t-39 -53q-25 -22 -55.5 -33t-61.5 -11t-61.5 11t-54.5 33q-25 21 -40 53t-15 77v376zM144 168q0 -37 20.5 -54.5t48.5 -17.5t48.5 17.5t20.5 54.5v376
q0 37 -20.5 54.5t-48.5 17.5t-48.5 -17.5t-20.5 -54.5v-376z" />
    <glyph glyph-name="u0420" unicode="&#x420;" horiz-adv-x="407" 
d="M48 0v712h153q42 0 74 -11t58 -39t36 -65.5t10 -101.5q0 -48 -5.5 -81t-23.5 -62q-21 -35 -56 -54.5t-92 -19.5h-52v-278h-102zM150 616v-242h49q31 0 48 9t25 25q8 15 9.5 37t1.5 49q0 25 -1 47.5t-9 39.5t-24 26t-46 9h-53z" />
    <glyph glyph-name="u0405" unicode="&#x405;" horiz-adv-x="406" 
d="M378 507h-102v23q0 35 -16.5 60.5t-55.5 25.5q-21 0 -34 -8t-21 -20q-8 -13 -11 -29.5t-3 -34.5q0 -21 1.5 -35t7.5 -25t17.5 -19t31.5 -16l78 -31q34 -13 55 -30.5t33 -40.5q11 -24 15 -54.5t4 -69.5q0 -45 -9 -83.5t-29 -65.5q-21 -28 -55 -44t-83 -16q-37 0 -69 13
t-55 36t-36.5 53.5t-13.5 66.5v38h102v-32q0 -28 16.5 -50.5t55.5 -22.5q26 0 40.5 7.5t22.5 21.5t9.5 33.5t1.5 43.5q0 28 -2 46t-8 29q-7 11 -18.5 18t-30.5 15l-73 30q-66 27 -88.5 71.5t-22.5 111.5q0 40 11 76t33 62q21 26 53.5 41.5t77.5 15.5q38 0 69.5 -14t54.5 -37
q46 -48 46 -110v-50z" />
    <glyph glyph-name="u0422" unicode="&#x422;" horiz-adv-x="332" 
d="M115 0v616h-118v96h338v-96h-118v-616h-102z" />
    <glyph glyph-name="u0425" unicode="&#x425;" horiz-adv-x="389" 
d="M-2 0l144 373l-133 339h108l77 -211l78 211h108l-136 -339l147 -373h-108l-89 240l-88 -240h-108z" />
    <glyph glyph-name="u0430" unicode="&#x430;" 
d="M235 0v52h-2q-20 -28 -40.5 -43t-57.5 -15q-18 0 -36.5 5.5t-35.5 20.5q-17 14 -27.5 40.5t-10.5 68.5q0 43 7 75.5t26 54.5q18 21 49 31.5t79 10.5h11t11 -1t12 -1t15 -1v53q0 26 -11 43t-40 17q-20 0 -36.5 -13t-21.5 -38h-99q4 68 46 110q20 20 48 31.5t63 11.5
q32 0 60 -10t49 -30q20 -20 32 -50t12 -70v-353h-102zM235 218q-17 3 -28 3q-33 0 -56.5 -15.5t-23.5 -56.5q0 -29 14 -47t39 -18q26 0 40.5 17t14.5 48v69z" />
    <glyph glyph-name="u0441" unicode="&#x441;" 
d="M150 146q0 -24 13.5 -37t36.5 -13q29 0 38.5 17t11.5 34h102q0 -67 -41 -108q-20 -21 -48 -33t-63 -12q-48 0 -81.5 20t-51.5 53q-11 20 -15 46t-4 57v167q0 31 4 57t15 46q18 33 51.5 53t81.5 20q35 0 63.5 -12t48.5 -33q40 -45 40 -117h-102q0 31 -13.5 45.5
t-36.5 14.5t-36.5 -14.5t-13.5 -43.5v-207z" />
    <glyph glyph-name="u0435" unicode="&#x435;" 
d="M337 215h-202v-69q0 -24 13.5 -37t36.5 -13q29 0 38.5 17t11.5 34h102q0 -67 -41 -108q-20 -21 -48 -33t-63 -12q-48 0 -81.5 20t-51.5 53q-11 20 -15 46t-4 57v167q0 31 4 57t15 46q18 33 51.5 53t81.5 20q35 0 63.5 -12t48.5 -33q40 -45 40 -113v-140zM135 295h100v58
q0 29 -13.5 43.5t-36.5 14.5t-36.5 -14.5t-13.5 -43.5v-58z" />
    <glyph glyph-name="u0456" unicode="&#x456;" horiz-adv-x="186" 
d="M42 0v507h102v-507h-102zM42 610v102h102v-102h-102z" />
    <glyph glyph-name="u0458" unicode="&#x458;" horiz-adv-x="186" 
d="M42 507h102v-561q0 -75 -47 -113t-119 -38v96q37 0 51 19q8 11 10.5 28.5t2.5 45.5v523zM42 610v102h102v-102h-102z" />
    <glyph glyph-name="u043E" unicode="&#x43e;" 
d="M33 337q0 31 4 57t15 46q18 33 51.5 53t81.5 20t81.5 -20t51.5 -53q11 -20 15 -46t4 -57v-167q0 -31 -4 -57t-15 -46q-18 -33 -51.5 -53t-81.5 -20t-81.5 20t-51.5 53q-11 20 -15 46t-4 57v167zM135 154q0 -29 13.5 -43.5t36.5 -14.5t36.5 14.5t13.5 43.5v199
q0 29 -13.5 43.5t-36.5 14.5t-36.5 -14.5t-13.5 -43.5v-199z" />
    <glyph glyph-name="u0440" unicode="&#x440;" horiz-adv-x="389" 
d="M42 -205v712h102v-46q19 22 39 37t58 15q63 0 89 -48q9 -17 13 -42t4 -67v-193q0 -56 -3 -81q-6 -50 -46 -75q-20 -13 -58 -13q-30 0 -53.5 13.5t-40.5 38.5h-2v-251h-102zM245 342q0 31 -12 50t-38 19q-23 0 -37 -17.5t-14 -45.5v-197q0 -24 14.5 -39.5t36.5 -15.5
q29 0 39.5 18t10.5 42v186z" />
    <glyph glyph-name="u0455" unicode="&#x455;" horiz-adv-x="352" 
d="M227 365q-1 26 -16.5 39t-35.5 13q-24 0 -37 -15.5t-13 -35.5q0 -14 7 -27.5t36 -24.5l60 -24q57 -22 78.5 -60t21.5 -83q0 -32 -11.5 -59.5t-31.5 -48.5t-48 -33t-61 -12q-62 0 -104 39q-21 19 -34 47.5t-14 66.5h96q3 -21 14.5 -39t40.5 -18q22 0 39.5 14.5t17.5 40.5
q0 21 -11 36t-40 26l-49 18q-48 18 -75.5 53.5t-27.5 86.5q0 32 12 59.5t33 47.5q20 20 47 30.5t58 10.5t57.5 -11t45.5 -31t30 -47.5t11 -58.5h-96z" />
    <glyph glyph-name="u0445" unicode="&#x445;" horiz-adv-x="332" 
d="M-11 0l125 259l-119 248h108l63 -144l63 144h108l-121 -248l127 -259h-108l-69 155l-69 -155h-108z" />
    <glyph glyph-name="u0443" unicode="&#x443;" horiz-adv-x="352" 
d="M-1 507h108l70 -316h2l69 316h105l-146 -595q-8 -34 -22.5 -56t-33.5 -36t-40.5 -19.5t-44.5 -5.5h-28v96h23q15 0 26 4t20 18q8 14 15 39.5t16 70.5z" />
    <glyph glyph-name="u04D4" unicode="&#x4d4;" horiz-adv-x="611" 
d="M2 0l202 712h389v-96h-202v-209h176v-96h-176v-209h202v-102h-304v153h-140l-39 -153h-108zM289 249v367h-24l-92 -367h116z" />
    <glyph glyph-name="u04D5" unicode="&#x4d5;" horiz-adv-x="572" 
d="M337 295h100v58q0 29 -13.5 43.5t-36.5 14.5t-36.5 -14.5t-13.5 -43.5v-58zM539 215h-202v-69q0 -24 13.5 -37t36.5 -13q29 0 38.5 17t11.5 34h102q0 -67 -42 -109q-21 -20 -49 -32t-61 -12q-51 -1 -84.5 21t-48.5 51q-18 -36 -49.5 -54t-69.5 -18q-18 0 -36.5 5.5
t-35.5 20.5q-17 14 -27.5 40.5t-10.5 68.5q0 43 7 75.5t26 54.5q18 21 49 31.5t79 10.5h11t11 -1t12 -1t15 -1v53q0 26 -11 43t-40 17q-20 0 -36.5 -13t-21.5 -38h-99q5 69 46 110q20 20 48 31.5t63 11.5q32 0 56.5 -9.5t44.5 -26.5q19 17 46 26.5t56 9.5q35 0 63.5 -12
t48.5 -33q40 -45 40 -113v-140zM235 218q-17 3 -28 3q-33 0 -56.5 -15.5t-23.5 -56.5q0 -29 14 -47t39 -18q26 0 40.5 17t14.5 48v69z" />
    <glyph glyph-name="u04BB" unicode="&#x4bb;" horiz-adv-x="389" 
d="M42 0v712h102v-254h2q16 24 38.5 39.5t57.5 15.5q19 0 38 -6.5t34 -21.5t24 -38.5t9 -57.5v-389h-102v351q0 28 -13 44t-37 16q-29 0 -40 -18t-11 -52v-341h-102z" />
    <glyph glyph-name="cyrhcrossed" unicode="&#xf49f;" horiz-adv-x="397" 
d="M152 554v-106h2q16 24 38.5 39.5t57.5 15.5q19 0 38 -6.5t34 -21.5t24 -38.5t9 -57.5v-379h-102v341q0 28 -13 44t-37 16q-29 0 -40 -18t-11 -52v-331h-102v554h-50v60h50v98h102v-98h110v-60h-110z" />
    <glyph glyph-name="u04C0" unicode="&#x4c0;" horiz-adv-x="204" 
d="M51 0v712h102v-712h-102z" />
    <glyph glyph-name="u04AE" unicode="&#x4ae;" horiz-adv-x="388" 
d="M143 0v301l-140 411h108l82 -283h2l82 283h108l-140 -411v-301h-102z" />
    <glyph glyph-name="u04D8" unicode="&#x4d8;" horiz-adv-x="414" 
d="M42 407h228v129q0 36 -14 58t-52 22q-32 0 -46 -20t-14 -50v-38h-102v40q0 37 12.5 68.5t34.5 54.5q45 47 117 47q37 0 67.5 -12.5t52.5 -34.5t34 -52t12 -65v-386q0 -37 -11.5 -69t-33 -55t-52.5 -36.5t-71 -13.5q-34 0 -63.5 12.5t-51.5 34t-34.5 51t-12.5 63.5v252z
M208 96q32 0 47 19t15 50v152h-126v-153q0 -28 16 -48t48 -20z" />
    <glyph glyph-name="u04D9" unicode="&#x4d9;" 
d="M235 292v61q0 29 -13.5 43.5t-36.5 14.5t-36.5 -14.5t-13.5 -45.5h-102q0 72 40 117q20 21 48.5 33t63.5 12q48 0 81.5 -20t51.5 -53q11 -20 15 -46t4 -57v-167q0 -31 -4 -57t-15 -46q-18 -33 -51.5 -53t-81.5 -20q-35 0 -63 12t-48 33q-41 41 -41 107v146h202zM235 212
h-100v-66q2 -17 11.5 -33.5t38.5 -16.5q23 0 36.5 13t13.5 37v66z" />
    <glyph glyph-name="u0411" unicode="&#x411;" horiz-adv-x="404" 
d="M48 712h292v-96h-190v-196h40q53 0 88.5 -14t57.5 -40q23 -28 29 -60.5t7 -71.5v-40q0 -94 -45.5 -144t-145.5 -50h-133v712zM150 330v-228h38q31 0 48.5 9t26.5 25t11 38t2 48q0 27 -3.5 47.5t-13.5 33.5t-26 20t-44 7h-39z" />
    <glyph glyph-name="u0413" unicode="&#x413;" horiz-adv-x="342" 
d="M48 0v712h284v-96h-182v-616h-102z" />
    <glyph glyph-name="u0414" unicode="&#x414;" horiz-adv-x="467" 
d="M90 0v-110h-88v200h52q9 19 17 43.5t14 51.5t11 55.5t8 55.5q2 21 3.5 47t2.5 53.5t1.5 55t0.5 52.5v208h293v-622h58v-200h-88v110h-285zM208 622v-117q0 -14 -1 -40.5t-3 -57.5t-4 -62.5t-5 -55.5q-2 -20 -6.5 -45.5t-10.5 -52.5t-13 -53.5t-16 -47.5h154v532h-95z" />
    <glyph glyph-name="u0416" unicode="&#x416;" horiz-adv-x="616" 
d="M257 712h102v-305h30q18 0 28.5 5t17 14t9.5 20.5t5 25.5l10 85q1 4 2.5 16.5t6 28t11.5 33t19 31.5q21 26 46.5 36t60.5 10h1v-96h-2q-11 0 -20.5 -3.5t-17.5 -12.5t-10.5 -22t-4.5 -29l-9 -83q-1 -13 -3 -25q-2 -11 -4 -21.5t-5 -16.5q-12 -28 -30 -41l94 -362h-104
l-78 317h-53v-317h-102v317h-53l-78 -317h-104l94 362q-18 13 -30 41q-3 6 -5 16.5t-4 21.5q-2 12 -3 25l-9 83q-2 16 -4.5 29t-10.5 22t-17.5 12.5t-20.5 3.5h-2v96h1q35 0 60.5 -10t46.5 -36q12 -14 19 -31.5t11.5 -33t6 -28t2.5 -16.5l10 -85q2 -14 5 -25.5t9.5 -20.5
t17 -14t28.5 -5h30v305z" />
    <glyph glyph-name="u0417" unicode="&#x417;" horiz-adv-x="427" 
d="M35 532q0 30 12.5 68t38.5 65q23 23 52 38t67 15q45 0 77.5 -15.5t53.5 -41.5q22 -26 32 -62t10 -76q0 -20 -1 -40.5t-7.5 -41t-21 -38.5t-41.5 -33q27 -11 41.5 -28.5t21 -39t7.5 -47t1 -52.5q0 -45 -9.5 -84t-31.5 -65t-55.5 -43t-82.5 -17q-37 0 -69 13t-55 36t-35 59
t-12 72v27h102l1 -28q0 -14 3.5 -27.5t11.5 -24.5t21 -18t33 -7q45 0 60.5 28.5t15.5 77.5q0 28 -2 52.5t-10 38.5q-18 31 -60 31h-39v90h42q19 0 34 7t24 24q8 16 9.5 38t1.5 39q0 18 -3 35.5t-11 30.5q-8 12 -21.5 20t-34.5 8q-19 0 -31.5 -7t-20.5 -18q-9 -12 -13 -31
t-4 -37v-16h-102v25z" />
    <glyph glyph-name="u0418" unicode="&#x418;" horiz-adv-x="436" 
d="M286 0v462h-2l-134 -462h-102v712h102v-463h2l134 463h102v-712h-102z" />
    <glyph glyph-name="u0419" unicode="&#x419;" horiz-adv-x="436" 
d="M286 0v462h-2l-134 -462h-102v712h102v-463h2l134 463h102v-712h-102zM164 855q1 -6 2 -14.5t6.5 -17t16 -14.5t29.5 -6t29.5 6t16 14.5t6.5 17t2 14.5h85q-7 -60 -39.5 -88t-99.5 -28t-99.5 28t-39.5 88h85z" />
    <glyph glyph-name="cyrbreve" unicode="&#xf6d4;" horiz-adv-x="186" 
d="M43 695q1 -6 1.5 -14.5t5 -17t14.5 -14.5t29 -6t29 6t14.5 14.5t5 17t1.5 14.5h85q-5 -56 -36.5 -86t-98.5 -30t-98.5 30.5t-36.5 85.5h85z" />
    <glyph glyph-name="u041B" unicode="&#x41b;" horiz-adv-x="449" 
d="M199 622v-207q0 -16 -1 -54.5t-5 -84.5t-12 -91t-22 -75q-24 -51 -61 -80.5t-90 -29.5h-6v102q30 2 47 18t28 40q9 21 14.5 51t8.5 64t4 70t1 69v298h296v-712h-102v622h-100z" />
    <glyph glyph-name="u041F" unicode="&#x41f;" horiz-adv-x="421" 
d="M48 0v712h325v-712h-102v622h-121v-622h-102z" />
    <glyph glyph-name="u0423" unicode="&#x423;" horiz-adv-x="405" 
d="M60 96q14 0 32 3t28 13q8 8 17.5 25.5t17.5 49.5l9 39l-154 486h108l96 -335h2l75 335h108l-148 -541q-14 -49 -30 -87t-45 -61q-24 -20 -50.5 -24.5t-58.5 -4.5h-14v102h7z" />
    <glyph glyph-name="u0424" unicode="&#x424;" horiz-adv-x="592" 
d="M233 98q-49 0 -87 16t-60 44q-16 20 -26.5 46t-16.5 54t-8.5 57t-2.5 55q0 64 12.5 122.5t41.5 90.5q26 29 65.5 41.5t81.5 12.5h12v75h102v-75h12q42 0 81.5 -12.5t65.5 -41.5q29 -32 41.5 -90.5t12.5 -122.5q0 -26 -2.5 -55t-8.5 -57t-16.5 -54t-26.5 -46
q-22 -28 -60 -44t-87 -16h-12v-98h-102v98h-12zM345 545v-357h22q25 0 42 9t28 24q7 9 12 25.5t8.5 36.5t5 42.5t1.5 43.5q0 20 -2 43t-6 44t-10 38.5t-14 26.5q-14 14 -30.5 18.5t-37.5 5.5h-19zM228 545q-21 -1 -37.5 -5.5t-30.5 -18.5q-8 -9 -14 -26.5t-10 -38.5t-6 -44
t-2 -43q0 -21 1.5 -43.5t5 -42.5t8.5 -36.5t12 -25.5q11 -15 28 -24t42 -9h22v357h-19z" />
    <glyph glyph-name="u0426" unicode="&#x426;" horiz-adv-x="437" 
d="M48 0v712h102v-622h121v622h102v-622h58v-200h-88v110h-295z" />
    <glyph glyph-name="u0427" unicode="&#x427;" horiz-adv-x="408" 
d="M360 0h-102v316l-20 -2.5t-32 -1.5q-35 0 -68 10t-55 31t-32.5 54t-10.5 70v235h102v-223q0 -17 4 -34t15 -28q19 -19 57 -19q8 0 16 0.5t13 1.5q6 1 11 2v300h102v-712z" />
    <glyph glyph-name="u0428" unicode="&#x428;" horiz-adv-x="608" 
d="M150 712v-622h103v622h102v-622h103v622h102v-712h-512v712h102z" />
    <glyph glyph-name="u0429" unicode="&#x429;" horiz-adv-x="624" 
d="M48 0v712h102v-622h103v622h102v-622h103v622h102v-622h58v-200h-88v110h-482z" />
    <glyph glyph-name="u042A" unicode="&#x42a;" horiz-adv-x="460" 
d="M-3 712h211v-292h38q53 0 88.5 -14.5t57.5 -40.5q23 -28 29 -60t7 -71v-40q0 -94 -45.5 -144t-145.5 -50h-131v616h-109v96zM208 330v-228h36q31 0 48.5 9t26.5 25t11 38t2 48q0 27 -3.5 46.5t-12.5 33.5q-10 14 -26.5 21t-44.5 7h-37z" />
    <glyph glyph-name="u042B" unicode="&#x42b;" horiz-adv-x="572" 
d="M48 712h102v-292h38q53 0 88.5 -14.5t57.5 -40.5q23 -28 29 -60t7 -71v-40q0 -94 -45.5 -144t-145.5 -50h-131v712zM150 330v-228h36q31 0 48.5 9t26.5 25t11 38t2 48q0 27 -3 46t-12 33q-10 14 -27 21.5t-45 7.5h-37zM422 0v712h102v-712h-102z" />
    <glyph glyph-name="u042C" unicode="&#x42c;" horiz-adv-x="402" 
d="M48 712h102v-292h38q53 0 88.5 -14.5t57.5 -40.5q23 -28 29.5 -60t6.5 -71v-40q0 -94 -45.5 -144t-145.5 -50h-131v712zM150 330v-228h36q31 0 48.5 9t26.5 25t11 38t2 48q0 55 -17 81q-10 14 -26 20.5t-44 6.5h-37z" />
    <glyph glyph-name="u042D" unicode="&#x42d;" horiz-adv-x="407" 
d="M137 407h126v126q0 36 -13.5 59.5t-50.5 23.5q-31 0 -46.5 -22t-15.5 -52v-34h-102v30q0 37 13.5 73.5t35.5 59.5t52.5 35t62.5 12q35 0 66.5 -12.5t53.5 -34.5t34 -52t12 -65v-382q0 -49 -16 -85t-40 -56t-53.5 -28.5t-58.5 -8.5q-34 0 -64 13.5t-52 36.5t-34 52.5
t-12 62.5v44h102v-35q0 -21 5.5 -35t14.5 -22q10 -8 21.5 -11.5t21.5 -3.5q35 0 49 22t14 53v146h-126v90z" />
    <glyph glyph-name="u042E" unicode="&#x42e;" horiz-adv-x="608" 
d="M228 317h-78v-317h-102v712h102v-305h78v137q0 43 15 76t40 55q24 21 53.5 32t60.5 11q64 0 115 -43q24 -22 39 -55t15 -76v-376q0 -45 -15 -77t-39 -53q-25 -22 -54.5 -33t-60.5 -11t-60.5 11t-53.5 33q-25 21 -40 53t-15 77v149zM330 168q0 -37 19.5 -54.5t47.5 -17.5
t47.5 17.5t19.5 54.5v376q0 37 -19.5 54.5t-47.5 17.5t-47.5 -17.5t-19.5 -54.5v-376z" />
    <glyph glyph-name="u042F" unicode="&#x42f;" horiz-adv-x="418" 
d="M224 616q-54 0 -70.5 -28.5t-16.5 -82.5q0 -27 3 -47.5t11 -34.5q9 -14 25 -21.5t43 -7.5h49v222h-44zM268 0v304h-47l-89 -304h-104l97 317q-24 9 -42 27t-29 41t-15 54t-4 64q0 209 180 209h155v-712h-102z" />
    <glyph glyph-name="u0431" unicode="&#x431;" horiz-adv-x="371" 
d="M333 712q0 -33 -9.5 -55.5t-24.5 -37t-34.5 -24t-39.5 -17.5q-26 -10 -49.5 -20.5t-37.5 -28.5q-11 -14 -13 -32t-2 -46h2q15 25 40.5 43.5t54.5 18.5q30 0 52 -7t39 -27q20 -26 23 -60.5t3 -71.5v-177q0 -31 -4 -57t-15 -46q-18 -33 -51.5 -53t-81.5 -20t-81.5 20
t-51.5 53q-11 20 -15 46t-4 57v262q0 60 7 93.5t29 60.5q22 26 52.5 40.5t54.5 24.5q16 7 26.5 13t16.5 12.5t8.5 15t3.5 20.5h102zM135 154q0 -29 13.5 -43.5t36.5 -14.5t36.5 14.5t13.5 43.5v199q0 29 -13.5 43.5t-36.5 14.5t-36.5 -14.5t-13.5 -43.5v-199z" />
    <glyph glyph-name="u0432" unicode="&#x432;" horiz-adv-x="377" 
d="M42 0v507h132q30 0 62 -6t58 -28q24 -20 33.5 -47t9.5 -59q0 -11 -2 -25.5t-8 -29.5t-17.5 -29.5t-30.5 -24.5q21 -8 34 -20t20.5 -27t10 -31.5t2.5 -32.5q0 -32 -8.5 -59t-28.5 -48q-24 -25 -59 -32.5t-68 -7.5h-140zM144 85h41q11 0 21.5 2.5t19 9.5t13.5 19t5 31
q0 31 -11.5 50.5t-47.5 19.5h-41v-132zM144 297h40q31 0 43 19t12 51q0 23 -14 39t-39 16h-42v-125z" />
    <glyph glyph-name="u0433" unicode="&#x433;" horiz-adv-x="289" 
d="M42 0v507h242v-90h-140v-417h-102z" />
    <glyph glyph-name="u0434" unicode="&#x434;" horiz-adv-x="419" 
d="M88 0v-100h-86v185h46q11 21 19.5 56t13.5 74q4 32 5 66t1 62v164h280v-422h48v-185h-86v100h-241zM183 422v-76q0 -13 -1 -31.5t-2.5 -38t-3 -38t-3.5 -31.5q-4 -26 -12.5 -61.5t-19.5 -60.5h124v337h-82z" />
    <glyph glyph-name="u0436" unicode="&#x436;" horiz-adv-x="558" 
d="M228 507h102v-207h37q23 0 31 16t12 36l10 50q5 23 17 48t33 39q20 13 38.5 15.5t39.5 2.5h2v-90h-1q-15 0 -27 -6.5t-17 -32.5l-9 -53q-1 -3 -2.5 -12t-5.5 -19.5t-10.5 -20.5t-16.5 -15l86 -258h-104l-65 215h-48v-215h-102v215h-48l-65 -215h-104l86 258
q-11 5 -17.5 15t-10 20.5t-5 19.5t-2.5 12l-9 53q-5 26 -17 32.5t-27 6.5h-1v90h2q21 0 39.5 -3t38.5 -15q23 -14 34 -39t16 -48l10 -50q4 -20 12 -36t31 -16h37v207z" />
    <glyph glyph-name="u0437" unicode="&#x437;" horiz-adv-x="366" 
d="M19 365q2 30 13.5 56.5t31 47t46.5 32.5t59 12t61.5 -10.5t50.5 -30.5q20 -19 31.5 -45.5t11.5 -59.5q0 -11 -2 -25.5t-8.5 -29.5t-19 -29.5t-33.5 -24.5q22 -8 36.5 -20t22 -27t10.5 -31.5t3 -32.5q0 -31 -10 -56t-30 -47q-22 -24 -53.5 -37t-68.5 -13q-71 0 -115 47
q-39 42 -42 106h96q2 -27 16.5 -42t43.5 -15q26 0 41.5 15.5t15.5 45.5q0 29 -12.5 46.5t-45.5 17.5h-32v85h28q30 0 43.5 15t13.5 49q0 22 -14 37.5t-39 15.5q-20 0 -36 -11.5t-18 -40.5h-96z" />
    <glyph glyph-name="u0438" unicode="&#x438;" horiz-adv-x="399" 
d="M261 0v322h-2l-113 -322h-104v507h96v-322h2l112 322h105v-507h-96z" />
    <glyph glyph-name="u0439" unicode="&#x439;" horiz-adv-x="399" 
d="M261 0v322h-2l-113 -322h-104v507h96v-322h2l112 322h105v-507h-96zM149 695q1 -6 1.5 -14.5t5 -17t14.5 -14.5t29 -6t29 6t14.5 14.5t5 17t1.5 14.5h85q-5 -56 -36.5 -86t-98.5 -30t-98.5 30.5t-36.5 85.5h85z" />
    <glyph glyph-name="u043A" unicode="&#x43a;" horiz-adv-x="387" 
d="M42 0v507h102v-207h39q23 0 31 16t13 40l11 58q6 23 15.5 41.5t25.5 29.5q17 12 39.5 17t51.5 5h2v-90h-3q-18 0 -30 -6.5t-17 -29.5l-10 -56q-1 -3 -2.5 -12t-5.5 -19.5t-10.5 -20.5t-16.5 -15l102 -258h-104l-81 215h-50v-215h-102z" />
    <glyph glyph-name="u043B" unicode="&#x43b;" horiz-adv-x="405" 
d="M7 96q11 0 22.5 6t23.5 21q10 12 16 34.5t9 47t4 47t1 34.5v221h280v-507h-102v422h-82v-94q0 -35 -2 -70.5t-6.5 -68t-11.5 -60.5t-18 -48q-21 -39 -55 -60t-77 -21h-7v96h5z" />
    <glyph glyph-name="u043C" unicode="&#x43c;" horiz-adv-x="500" 
d="M42 0v507h104l103 -272h2l103 272h104v-507h-98v307h-2l-82 -224h-52l-82 224h-2v-307h-98z" />
    <glyph glyph-name="u043D" unicode="&#x43d;" horiz-adv-x="391" 
d="M42 0v507h102v-207h103v207h102v-507h-102v215h-103v-215h-102z" />
    <glyph glyph-name="u043F" unicode="&#x43f;" horiz-adv-x="385" 
d="M42 0v507h305v-507h-102v422h-101v-422h-102z" />
    <glyph glyph-name="u0442" unicode="&#x442;" horiz-adv-x="302" 
d="M100 0v417h-100v90h302v-90h-100v-417h-102z" />
    <glyph glyph-name="u0444" unicode="&#x444;" horiz-adv-x="546" 
d="M324 467q3 4 9.5 11.5t16.5 15t24 12.5t31 5q29 0 49 -11t34 -34q11 -17 18 -47.5t7 -72.5v-183q0 -27 -3.5 -57t-13.5 -51q-13 -27 -36.5 -43t-53.5 -16t-48.5 11t-31.5 25h-2v-237h-102v237h-2q-13 -14 -31.5 -25t-48.5 -11t-53.5 16t-36.5 43q-10 21 -13.5 51t-3.5 57
v183q0 42 7 72.5t18 47.5q28 45 83 45q17 0 31 -5t24 -12.5t16.5 -15t9.5 -11.5v245h102v-245zM135 156q0 -24 8 -42t37 -18q20 0 32 14t12 25v236q0 13 -13 26.5t-33 13.5q-26 0 -34.5 -19t-8.5 -50v-186zM411 342q0 31 -8.5 50t-34.5 19q-20 0 -33 -13.5t-13 -26.5v-236
q0 -11 12 -25t32 -14q29 0 37 18t8 42v186z" />
    <glyph glyph-name="u0446" unicode="&#x446;" horiz-adv-x="405" 
d="M42 0v507h102v-422h101v422h102v-422h54v-185h-86v100h-273z" />
    <glyph glyph-name="u0447" unicode="&#x447;" horiz-adv-x="383" 
d="M239 0v216q-7 -2 -16 -3q-15 -3 -42 -3q-9 0 -21.5 1t-26.5 4t-27.5 8.5t-25.5 14.5q-29 23 -36.5 49t-7.5 58v162h102v-153q0 -29 15 -44q17 -15 45 -15q20 0 31 3q6 1 10 3v206h102v-507h-102z" />
    <glyph glyph-name="u0448" unicode="&#x448;" horiz-adv-x="556" 
d="M514 507v-507h-472v507h102v-422h83v422h102v-422h83v422h102z" />
    <glyph glyph-name="u0449" unicode="&#x449;" horiz-adv-x="572" 
d="M42 0v507h102v-422h83v422h102v-422h83v422h102v-422h54v-185h-86v100h-440z" />
    <glyph glyph-name="u044A" unicode="&#x44a;" horiz-adv-x="418" 
d="M200 507v-200h29q40 0 71 -7.5t52.5 -25.5t32.5 -48t11 -74q0 -32 -9.5 -61.5t-29.5 -50.5q-24 -25 -59 -32.5t-68 -7.5h-132v417h-98v90h200zM200 85h39q22 0 39.5 14.5t17.5 52.5q0 31 -11.5 50.5t-47.5 19.5h-37v-137z" />
    <glyph glyph-name="u044B" unicode="&#x44b;" horiz-adv-x="520" 
d="M42 0v507h102v-200h25q40 0 70.5 -7.5t51 -25.5t31 -48t10.5 -74q0 -32 -9.5 -61.5t-29.5 -50.5q-24 -25 -57 -32.5t-66 -7.5h-128zM144 85h35q22 0 39.5 14.5t17.5 52.5q0 31 -11.5 50.5t-47.5 19.5h-33v-137zM376 0v507h102v-507h-102z" />
    <glyph glyph-name="u044C" unicode="&#x44c;" horiz-adv-x="362" 
d="M42 0v507h102v-200h29q40 0 71 -7.5t52.5 -25.5t32.5 -48t11 -74q0 -32 -9.5 -61.5t-29.5 -50.5q-24 -25 -59 -32.5t-68 -7.5h-132zM144 85h39q22 0 39.5 14.5t17.5 52.5q0 31 -11.5 50.5t-47.5 19.5h-37v-137z" />
    <glyph glyph-name="u044D" unicode="&#x44d;" horiz-adv-x="359" 
d="M224 300v53q0 29 -14.5 43.5t-37.5 14.5t-37.5 -14.5t-14.5 -45.5h-102q1 33 11.5 62.5t30 51.5t48 35t64.5 13q38 0 67.5 -12.5t49.5 -35.5q23 -26 30 -58t7 -70v-167q0 -32 -6.5 -66t-29.5 -60q-20 -24 -48.5 -37t-67.5 -13q-33 0 -61 11.5t-48.5 31.5t-33 48.5
t-13.5 61.5h102q2 -17 12.5 -34t39.5 -17q23 0 37.5 13t14.5 37v69h-95v85h95z" />
    <glyph glyph-name="u044E" unicode="&#x44e;" horiz-adv-x="539" 
d="M204 215h-60v-215h-102v507h102v-207h60v37q0 31 4 57t15 46q18 33 50.5 53t80.5 20t81.5 -20t51.5 -53q11 -20 15 -46t4 -57v-167q0 -31 -4 -57t-15 -46q-18 -33 -51.5 -53t-81.5 -20t-80.5 20t-50.5 53q-11 20 -15 46t-4 57v45zM304 154q0 -29 13.5 -43.5t36.5 -14.5
t36.5 14.5t13.5 43.5v199q0 29 -13.5 43.5t-36.5 14.5t-36.5 -14.5t-13.5 -43.5v-199z" />
    <glyph glyph-name="u044F" unicode="&#x44f;" horiz-adv-x="373" 
d="M229 0v202h-44l-64 -202h-104l76 217q-23 10 -36.5 28t-20 38t-8 39t-1.5 30q0 32 11 67t37 56q26 22 55.5 27t59.5 5h141v-507h-102zM229 422h-50q-30 0 -40 -22t-10 -52q0 -65 56 -65h44v139z" />
    <glyph glyph-name="u0401" unicode="&#x401;" 
d="M48 0v712h304v-96h-202v-209h176v-96h-176v-209h202v-102h-304zM69 756v102h90v-102h-90zM231 756v102h90v-102h-90z" />
    <glyph glyph-name="u0451" unicode="&#x451;" 
d="M337 215h-202v-69q0 -24 13.5 -37t36.5 -13q29 0 38.5 17t11.5 34h102q0 -67 -41 -108q-20 -21 -48 -33t-63 -12q-48 0 -81.5 20t-51.5 53q-11 20 -15 46t-4 57v167q0 31 4 57t15 46q18 33 51.5 53t81.5 20q35 0 63.5 -12t48.5 -33q40 -45 40 -113v-140zM135 295h100v58
q0 29 -13.5 43.5t-36.5 14.5t-36.5 -14.5t-13.5 -43.5v-58zM59 586v102h90v-102h-90zM221 586v102h90v-102h-90z" />
    <glyph glyph-name="u0402" unicode="&#x402;" horiz-adv-x="464" 
d="M213 330v-330h-102v616h-114v96h361v-96h-145v-196h42q46 0 78 -11t53 -32q26 -26 36 -62.5t10 -80.5v-46q0 -46 -8.5 -82t-28.5 -60.5t-53 -38t-82 -13.5v96h3q26 0 39.5 8t21.5 23q9 17 10.5 42.5t1.5 51.5q0 10 -0.5 23.5t-3 26.5t-7 24.5t-12.5 19.5
q-12 12 -28.5 16.5t-40.5 4.5h-31z" />
    <glyph glyph-name="u0452" unicode="&#x452;" horiz-adv-x="396" 
d="M252 341q0 28 -13 44t-37 16q-29 0 -40 -18t-11 -52v-331h-102v554h-52v60h52v98h102v-98h110v-60h-110v-106h2q16 24 38.5 39.5t57.5 15.5q19 0 38 -6.5t34 -21.5t24 -38.5t9 -57.5v-433q0 -75 -47 -113t-119 -38v96q37 0 51 19q8 11 10.5 28.5t2.5 45.5v357z" />
    <glyph glyph-name="u0403" unicode="&#x403;" horiz-adv-x="342" 
d="M48 0v712h284v-96h-182v-616h-102zM147 744l90 141h108l-132 -141h-66z" />
    <glyph glyph-name="u0453" unicode="&#x453;" horiz-adv-x="289" 
d="M42 0v507h242v-90h-140v-417h-102zM114 574l90 141h108l-132 -141h-66z" />
    <glyph glyph-name="u0409" unicode="&#x409;" horiz-adv-x="651" 
d="M401 712v-292h36q53 0 88.5 -14.5t57.5 -40.5q23 -28 29 -60t7 -71v-40q0 -94 -45.5 -144t-145.5 -50h-129v622h-100v-207q0 -16 -1 -54.5t-5 -84.5t-12 -91t-22 -75q-24 -51 -61 -80.5t-90 -29.5h-6v102q30 2 47 18t28 40q9 21 14.5 51t8.5 64t4 70t1 69v298h296z
M401 330v-228h34q31 0 48.5 9t26.5 25t11 38t2 48q0 27 -3 47t-12 34q-10 14 -27 20.5t-45 6.5h-35z" />
    <glyph glyph-name="u0459" unicode="&#x459;" horiz-adv-x="581" 
d="M363 507v-200h29q40 0 71 -7.5t52.5 -25.5t32.5 -48t11 -74q0 -32 -9.5 -61.5t-29.5 -50.5q-24 -25 -59 -32.5t-68 -7.5h-132v422h-82v-94q0 -35 -2 -70.5t-6.5 -68t-11.5 -60.5t-18 -48q-21 -39 -55 -60t-77 -21h-7v96h5q11 0 22.5 6t23.5 21q10 12 16 34.5t9 47t4 47
t1 34.5v221h280zM363 85h39q22 0 39.5 14.5t17.5 52.5q0 31 -11.5 50.5t-47.5 19.5h-37v-137z" />
    <glyph glyph-name="u040A" unicode="&#x40a;" horiz-adv-x="625" 
d="M272 330h-122v-330h-102v712h102v-292h122v292h102v-292h36q53 0 88.5 -14.5t57.5 -40.5q23 -28 29 -60t7 -71v-40q0 -94 -45.5 -144t-145.5 -50h-129v330zM374 330v-228h34q31 0 48.5 9t26.5 25t11 38t2 48q0 27 -3 47t-12 34q-10 14 -27 20.5t-45 6.5h-35z" />
    <glyph glyph-name="u045A" unicode="&#x45a;" horiz-adv-x="563" 
d="M243 0v222h-99v-222h-102v507h102v-200h99v200h102v-200h29q40 0 71 -7.5t52.5 -25.5t32.5 -48t11 -74q0 -32 -9.5 -61.5t-29.5 -50.5q-24 -25 -59 -32.5t-68 -7.5h-132zM345 85h39q22 0 39.5 14.5t17.5 52.5q0 31 -11.5 50.5t-47.5 19.5h-37v-137z" />
    <glyph glyph-name="u045C" unicode="&#x45c;" horiz-adv-x="387" 
d="M42 0v507h102v-207h39q23 0 31 16t13 40l11 58q6 23 15.5 41.5t25.5 29.5q17 12 39.5 17t51.5 5h2v-90h-3q-18 0 -30 -6.5t-17 -29.5l-10 -56q-1 -3 -2.5 -12t-5.5 -19.5t-10.5 -20.5t-16.5 -15l102 -258h-104l-81 215h-50v-215h-102zM167 574l90 141h108l-132 -141h-66z
" />
    <glyph glyph-name="u040B" unicode="&#x40b;" horiz-adv-x="464" 
d="M213 412q8 1 20 1.5t27 0.5q28 0 63.5 -8t61.5 -31q24 -22 35 -55.5t11 -67.5v-252h-102v238q0 17 -3.5 34t-13.5 29q-11 14 -29 18.5t-32 4.5q-6 0 -12.5 -0.5t-12.5 -0.5q-7 -1 -13 -1v-322h-102v616h-114v96h361v-96h-145v-204z" />
    <glyph glyph-name="u045B" unicode="&#x45b;" horiz-adv-x="397" 
d="M152 554v-106h2q16 24 38.5 39.5t57.5 15.5q19 0 38 -6.5t34 -21.5t24 -38.5t9 -57.5v-379h-102v341q0 28 -13 44t-37 16q-29 0 -40 -18t-11 -52v-331h-102v554h-50v60h50v98h102v-98h110v-60h-110z" />
    <glyph glyph-name="u040F" unicode="&#x40f;" horiz-adv-x="421" 
d="M48 0v712h102v-622h121v622h102v-712h-119v-125h-87v125h-119z" />
    <glyph glyph-name="u045F" unicode="&#x45f;" horiz-adv-x="389" 
d="M42 0v507h102v-422h101v422h102v-507h-110v-110h-86v110h-109z" />
    <glyph glyph-name="u040E" unicode="&#x40e;" horiz-adv-x="405" 
d="M60 96q14 0 32 3t28 13q8 8 17.5 25.5t17.5 49.5l9 39l-154 486h108l96 -335h2l75 335h108l-148 -541q-14 -49 -30 -87t-45 -61q-24 -20 -50.5 -24.5t-58.5 -4.5h-14v102h7zM154 855q1 -6 2 -14.5t6.5 -17t16 -14.5t29.5 -6t29.5 6t16 14.5t6.5 17t2 14.5h85
q-7 -60 -39.5 -88t-99.5 -28t-99.5 28t-39.5 88h85z" />
    <glyph glyph-name="u045E" unicode="&#x45e;" horiz-adv-x="352" 
d="M-1 507h108l70 -316h2l69 316h105l-146 -595q-8 -34 -22.5 -56t-33.5 -36t-40.5 -19.5t-44.5 -5.5h-28v96h23q15 0 26 4t20 18q8 14 15 39.5t16 70.5zM128 695q1 -6 1.5 -14.5t5 -17t14.5 -14.5t29 -6t29 6t14.5 14.5t5 17t1.5 14.5h85q-5 -56 -36.5 -86t-98.5 -30
t-98.5 30.5t-36.5 85.5h85z" />
    <glyph glyph-name="u0490" unicode="&#x490;" horiz-adv-x="352" 
d="M48 0v712h207v104h87v-200h-192v-616h-102z" />
    <glyph glyph-name="u0491" unicode="&#x491;" horiz-adv-x="289" 
d="M42 0v507h156v95h86v-185h-140v-417h-102z" />
    <glyph glyph-name="u0404" unicode="&#x404;" horiz-adv-x="407" 
d="M270 317h-126v-148q0 -31 13.5 -52t48.5 -21q10 0 21.5 3.5t21.5 11.5q9 8 15 22t6 35v35h102v-44q0 -33 -12.5 -62.5t-34.5 -52.5t-51.5 -36.5t-63.5 -13.5q-29 0 -59 8t-54 28t-39.5 51.5t-15.5 80.5v392q0 35 12 65t34 52t52.5 34.5t67.5 12.5q72 0 117 -47
q22 -23 34.5 -54.5t12.5 -68.5v-40h-102v34q0 30 -17 52t-46 22q-38 0 -50.5 -23.5t-12.5 -59.5v-126h126v-90z" />
    <glyph glyph-name="u0454" unicode="&#x454;" horiz-adv-x="359" 
d="M135 300h95v-85h-95v-69q0 -24 14.5 -37t37.5 -13q29 0 39.5 17t12.5 34h102q-1 -35 -13 -63t-32.5 -48t-48 -31t-60.5 -11q-48 0 -82.5 20t-52.5 53q-11 20 -15 46t-4 57v167q0 31 4 57t15 46q18 33 52.5 53t82.5 20q36 0 64.5 -13t48.5 -35t30.5 -51.5t10.5 -62.5h-102
q0 31 -14.5 45.5t-37.5 14.5t-37.5 -14.5t-14.5 -43.5v-53z" />
    <glyph glyph-name="u0407" unicode="&#x407;" horiz-adv-x="204" 
d="M51 0v712h102v-712h-102zM2 756v102h84v-102h-84zM118 756v102h84v-102h-84z" />
    <glyph glyph-name="afii61352" unicode="&#x2116;" horiz-adv-x="700" 
d="M44 0v712h98l154 -429h2v429h102v-712h-96l-156 428h-2v-428h-102zM450 614q0 23 9 42.5t24 33.5q16 14 36.5 21t40.5 7t40.5 -7t36.5 -21q15 -14 24 -33.5t9 -42.5v-75q0 -23 -9 -42.5t-24 -33.5q-16 -14 -36.5 -21t-40.5 -7t-40.5 7t-36.5 21q-15 14 -24 33.5t-9 42.5
v75zM450 324v80h220v-80h-220zM525 540q0 -14 9.5 -24.5t25.5 -10.5q14 0 24.5 9.5t10.5 25.5v73q0 14 -9.5 24.5t-25.5 10.5q-14 0 -24.5 -9t-10.5 -26v-73z" />
    <glyph glyph-name="u0462" unicode="&#x462;" horiz-adv-x="416" 
d="M2 650h60v62h102v-62h140v-90h-140v-140h38q53 0 88.5 -14.5t57.5 -40.5q23 -28 29 -60t7 -71v-40q0 -94 -45.5 -144t-145.5 -50h-131v560h-60v90zM164 330v-228h36q31 0 48.5 9t26.5 25t11 38t2 48q0 27 -3 47t-12 34q-10 14 -27 20.5t-45 6.5h-37z" />
    <glyph glyph-name="u0463" unicode="&#x463;" horiz-adv-x="375" 
d="M55 0v427h-55v80h55v154h102v-154h110v-80h-110v-120h29q40 0 71 -7.5t52.5 -25.5t32.5 -48t11 -74q0 -32 -9.5 -61.5t-29.5 -50.5q-24 -25 -59 -32.5t-68 -7.5h-132zM157 85h39q22 0 39.5 14.5t17.5 52.5q0 31 -11.5 50.5t-47.5 19.5h-37v-137z" />
    <glyph glyph-name="u0472" unicode="&#x472;" horiz-adv-x="426" 
d="M42 544q0 43 15 76t40 55q24 21 54.5 32t61.5 11t61.5 -11t55.5 -32q24 -22 39 -55t15 -76v-376q0 -45 -15 -77t-39 -53q-25 -22 -55.5 -33t-61.5 -11t-61.5 11t-54.5 33q-25 21 -40 53t-15 77v376zM144 168q0 -37 20.5 -54.5t48.5 -17.5t48.5 17.5t20.5 54.5v149h-138
v-149zM144 407h138v137q0 37 -20.5 54.5t-48.5 17.5t-48.5 -17.5t-20.5 -54.5v-137z" />
    <glyph glyph-name="u0473" unicode="&#x473;" 
d="M33 337q0 31 4 57t15 46q18 33 51.5 53t81.5 20t81.5 -20t51.5 -53q11 -20 15 -46t4 -57v-167q0 -31 -4 -57t-15 -46q-18 -33 -51.5 -53t-81.5 -20t-81.5 20t-51.5 53q-11 20 -15 46t-4 57v167zM129 154q0 -29 16.5 -44.5t39.5 -15.5t39.5 15.5t16.5 44.5v62h-112v-62z
M129 299h112v54q0 29 -16.5 44.5t-39.5 15.5t-39.5 -15.5t-16.5 -44.5v-54z" />
    <glyph glyph-name="u0474" unicode="&#x474;" horiz-adv-x="412" 
d="M121 712l81 -497h2l47 281q3 19 7.5 42t11.5 46t16 44t21 36q23 28 51 38t61 10v-96q-16 -1 -26 -5t-18 -12q-13 -13 -21 -52l-106 -547h-90l-145 712h108z" />
    <glyph glyph-name="u0475" unicode="&#x475;" horiz-adv-x="360" 
d="M215 354q19 87 54 120q21 20 46 26.5t52 6.5v-90q-26 0 -37.5 -12t-19.5 -41l-89 -364h-90l-132 507h108l68 -324h2z" />
    <glyph glyph-name="uni20BD" unicode="&#x20bd;" horiz-adv-x="372" 
d="M59 0v163h-55v66h55v49h-55v66h55v368h125q35 0 66.5 -6t62.5 -35q29 -27 38 -69.5t9 -106.5q0 -21 -2.5 -45t-8 -47.5t-14.5 -44t-22 -34.5q-23 -24 -52.5 -35t-77.5 -11h-22v-49h134v-66h-134v-163h-102zM161 622v-254h22q25 0 39.5 7t23.5 21q10 16 14 40.5t4 54.5
q0 13 -0.5 29t-2.5 31.5t-6.5 29.5t-13.5 23q-18 18 -60 18h-20z" />
    <glyph glyph-name="uni20B4" unicode="&#x20b4;" horiz-adv-x="372" 
d="M167 266q-25 -18 -31.5 -44.5t-6.5 -52.5q0 -14 3 -27t10 -23t18.5 -16.5t28.5 -6.5q19 0 31.5 7t19.5 18t10 24.5t3 27.5v28h102v-38q0 -35 -12 -65.5t-34.5 -53.5t-53.5 -36.5t-68 -13.5q-77 0 -119.5 46.5t-42.5 125.5q0 31 9 57t26 43h-48v66h95l47 49h-142v66h194
q18 15 26.5 39t8.5 46q0 15 -2 30t-8 27t-17.5 19.5t-30.5 7.5q-20 0 -31.5 -7t-18.5 -19t-9 -27.5t-2 -33.5v-22h-102v25q0 36 10.5 69.5t31.5 59.5t51 41.5t69 15.5q41 0 71 -13.5t50 -37t30 -56t10 -71.5q0 -24 -7 -49.5t-24 -43.5h48v-66h-96l-46 -49h142v-66h-193z" />
    <glyph glyph-name="u0400" unicode="&#x400;" 
d="M48 0v712h304v-96h-202v-209h176v-96h-176v-209h202v-102h-304zM170 885l90 -141h-66l-132 141h108z" />
    <glyph glyph-name="u040D" unicode="&#x40d;" horiz-adv-x="436" 
d="M286 0v462h-2l-134 -462h-102v712h102v-463h2l134 463h102v-712h-102zM168 885l90 -141h-66l-132 141h108z" />
    <glyph glyph-name="u0460" unicode="&#x460;" horiz-adv-x="602" 
d="M300 66q-21 -40 -50.5 -56t-61.5 -16q-39 0 -67 13.5t-45.5 36.5t-25.5 53.5t-8 64.5v386q0 35 10 64t35 52q22 21 53.5 33.5t66.5 14.5v-102q-37 -2 -50 -24.5t-13 -58.5v-362q0 -31 10.5 -50t42.5 -19q28 0 40.5 18t12.5 50v176h102v-176q0 -32 12.5 -50t40.5 -18
q32 0 42.5 19t10.5 50v362q0 36 -13 58.5t-50 24.5v102q35 -2 66.5 -14.5t53.5 -33.5q25 -23 35 -52t10 -64v-386q0 -34 -8 -64.5t-25.5 -53.5t-45.5 -36.5t-67 -13.5q-32 0 -61.5 16t-50.5 56h-2z" />
    <glyph glyph-name="u0461" unicode="&#x461;" horiz-adv-x="556" 
d="M277 70q-6 -13 -16.5 -26.5t-25 -24t-33.5 -17t-41 -6.5q-35 0 -59.5 15t-41.5 38q-14 20 -20.5 49t-6.5 61v197q0 32 7.5 60.5t29.5 51.5q17 17 47.5 31t75.5 14v-90q-30 0 -45 -18q-13 -16 -13 -51v-198q0 -24 9 -42t37 -18q19 0 32.5 16t13.5 34v144h102v-144
q0 -18 13.5 -34t32.5 -16q28 0 37 18t9 42v198q0 35 -13 51q-15 18 -45 18v90q45 0 75.5 -14t47.5 -31q22 -23 29.5 -51.5t7.5 -60.5v-197q0 -32 -6.5 -61t-20.5 -49q-17 -23 -41.5 -38t-59.5 -15q-23 0 -41.5 6.5t-33 17t-25 24t-16.5 26.5h-2z" />
    <glyph glyph-name="u0450" unicode="&#x450;" 
d="M337 215h-202v-69q0 -24 13.5 -37t36.5 -13q29 0 38.5 17t11.5 34h102q0 -67 -41 -108q-20 -21 -48 -33t-63 -12q-48 0 -81.5 20t-51.5 53q-11 20 -15 46t-4 57v167q0 31 4 57t15 46q18 33 51.5 53t81.5 20q35 0 63.5 -12t48.5 -33q40 -45 40 -113v-140zM135 295h100v58
q0 29 -13.5 43.5t-36.5 14.5t-36.5 -14.5t-13.5 -43.5v-58zM160 715l90 -141h-66l-132 141h108z" />
    <glyph glyph-name="u045D" unicode="&#x45d;" horiz-adv-x="399" 
d="M261 0v322h-2l-113 -322h-104v507h96v-322h2l112 322h105v-507h-96zM158 715l90 -141h-66l-132 141h108z" />
    <glyph glyph-name="u0464" unicode="&#x464;" horiz-adv-x="593" 
d="M558 203v-44q0 -33 -12.5 -62.5t-34.5 -52.5t-51.5 -36.5t-63.5 -13.5q-29 0 -59 8t-54 28t-39.5 51.5t-15.5 80.5v155h-78v-317h-102v712h102v-305h78v147q0 35 12 65t34 52t52.5 34.5t67.5 12.5q72 0 117 -47q22 -23 34.5 -54.5t12.5 -68.5v-40h-102v34q0 30 -17 52
t-46 22q-38 0 -50.5 -23.5t-12.5 -59.5v-126h126v-90h-126v-148q0 -31 13.5 -52t48.5 -21q10 0 21.5 3.5t21.5 11.5q9 8 15 22t6 35v35h102z" />
    <glyph glyph-name="u0465" unicode="&#x465;" horiz-adv-x="530" 
d="M306 300h95v-85h-95v-69q0 -24 14.5 -37t37.5 -13q29 0 39.5 17t12.5 34h102q-1 -35 -13 -63t-32.5 -48t-48 -31t-60.5 -11q-48 0 -82.5 20t-52.5 53q-11 20 -15 46t-4 57v45h-60v-215h-102v507h102v-207h60v37q0 31 4 57t15 46q18 33 52.5 53t82.5 20q36 0 64.5 -13
t48.5 -35t30.5 -51.5t10.5 -62.5h-102q0 31 -14.5 45.5t-37.5 14.5t-37.5 -14.5t-14.5 -43.5v-53z" />
    <glyph glyph-name="u0466" unicode="&#x466;" horiz-adv-x="458" 
d="M2 0l184 712h85l185 -712h-102l-40 159h-40v-159h-90v159h-42l-38 -159h-102zM164 249h128l-63 258h-2z" />
    <glyph glyph-name="u0467" unicode="&#x467;" horiz-adv-x="430" 
d="M173 0v104h-38l-31 -104h-102l168 507h90l168 -507h-102l-32 104h-37v-104h-84zM160 186h110l-54 178h-2z" />
    <glyph glyph-name="u0468" unicode="&#x468;" horiz-adv-x="644" 
d="M196 0l80 317h-126v-317h-102v712h102v-305h149l77 305h85l181 -712h-102l-38 159h-38v-159h-90v159h-39l-37 -159h-102zM356 249h124l-61 258h-2z" />
    <glyph glyph-name="u0469" unicode="&#x469;" horiz-adv-x="600" 
d="M347 0v104h-37l-31 -104h-99l69 215h-105v-215h-102v507h102v-207h133l67 207h90l164 -507h-99l-31 104h-37v-104h-84zM334 186h109l-53 178h-2z" />
    <glyph glyph-name="u046A" unicode="&#x46a;" horiz-adv-x="546" 
d="M225 0v317q-26 0 -46 -8t-31 -19q-24 -26 -24 -81v-209h-96v216q0 42 9.5 72.5t30.5 55.5q18 21 48 37.5t65 23.5l-143 307h470l-143 -307q35 -7 65 -23t48 -37q21 -25 30.5 -56t9.5 -73v-216h-96v209q0 55 -25 82q-11 11 -30.5 18.5t-45.5 7.5v-317h-96zM367 622h-188
l94 -215z" />
    <glyph glyph-name="u046B" unicode="&#x46b;" horiz-adv-x="516" 
d="M207 0v211q-17 0 -32.5 -4.5t-24.5 -12.5q-12 -11 -17 -28t-5 -36v-130h-100v129q0 67 36 108q17 19 44 32t59 17l-122 221h426l-122 -221q32 -4 59 -17t44 -32q36 -41 36 -108v-129h-100v130q0 19 -5 36t-17 28q-9 8 -24.5 12.5t-32.5 4.5v-211h-102zM190 425l68 -139
l68 139h-136z" />
    <glyph glyph-name="u046C" unicode="&#x46c;" horiz-adv-x="736" 
d="M422 0v317q-26 0 -42.5 -8t-27.5 -19q-24 -26 -24 -81v-209h-96v213q0 57 29 104h-111v-317h-102v712h102v-305h227l-142 305h470l-143 -307q35 -7 61.5 -23t44.5 -37q21 -25 30.5 -56t9.5 -73v-216h-96v209q0 55 -25 82q-11 11 -27 18.5t-42 7.5v-317h-96zM564 622h-188
l94 -215z" />
    <glyph glyph-name="u046D" unicode="&#x46d;" horiz-adv-x="692" 
d="M387 0v207q-36 0 -55 -17q-12 -11 -16 -28t-4 -36v-126h-100v125q0 54 20 90h-88v-215h-102v507h102v-207h193l-112 207h426l-122 -225q32 -4 58 -17t43 -32q18 -20 26 -47t8 -61v-125h-100v126q0 19 -4 36t-16 28q-19 17 -55 17v-207h-102zM370 425l68 -143l68 143h-136
z" />
    <glyph glyph-name="u046E" unicode="&#x46e;" horiz-adv-x="420" 
d="M345 853l-98 -141q31 -8 51 -22.5t31 -28.5q22 -26 32 -62t10 -76q0 -20 -1 -40.5t-7.5 -41t-21 -38.5t-41.5 -33q27 -11 41.5 -28.5t21 -39t7.5 -47t1 -52.5q0 -45 -9.5 -84.5t-31.5 -65.5t-53.5 -42.5t-80.5 -16.5h-10q-17 0 -34 -12.5t-17 -39.5q0 -16 10 -30.5
t29 -18.5t50 -4v-100q-35 0 -68.5 7t-60.5 24t-43.5 45.5t-16.5 72.5q0 32 10.5 60t30 49t46.5 33t61 12h14q45 0 58.5 30.5t13.5 79.5q0 28 -2 52.5t-10 38.5q-18 31 -60 31h-39v90h42q19 0 34 7t24 24q8 16 9.5 38t1.5 39q0 18 -3 35.5t-11 30.5q-8 12 -21.5 20t-34.5 8
q-19 0 -31.5 -7t-20.5 -18q-9 -12 -13 -31t-4 -37v-16h-102v25q0 30 12.5 68t38.5 65q9 9 20 18q10 8 23.5 16t32.5 13h-2l-98 141h78l67 -99l67 99h78z" />
    <glyph glyph-name="u046F" unicode="&#x46f;" horiz-adv-x="361" 
d="M308 647l-94 -141q35 -9 62 -34q20 -19 31.5 -45.5t11.5 -59.5q0 -11 -2 -25.5t-8.5 -29.5t-19 -29.5t-33.5 -24.5q22 -8 36.5 -20t22 -27t10.5 -31.5t3 -32.5q0 -31 -9.5 -58.5t-29.5 -49.5q-23 -26 -54.5 -35.5t-60.5 -9.5q-5 0 -13 -1.5t-15.5 -6t-13.5 -14.5t-6 -26
q0 -25 18 -40t63 -15v-96q-34 0 -67.5 10t-59.5 30q-23 19 -37.5 46t-14.5 63q0 29 8 54t25 45q35 41 97 41q35 0 49.5 21t14.5 46q0 29 -12.5 46.5t-45.5 17.5h-32v85h28q30 0 43.5 15t13.5 49q0 22 -14 37.5t-39 15.5q-20 0 -36 -11.5t-18 -40.5h-96q3 48 31 87.5t75 53.5
l-94 141h78l63 -99l63 99h78z" />
    <glyph glyph-name="u0470" unicode="&#x470;" horiz-adv-x="554" 
d="M226 712h102v-373h15q25 0 39.5 6.5t23.5 18.5q14 18 17 48t3 72v228h100v-231q0 -45 -5.5 -87t-25.5 -73q-22 -35 -59 -56.5t-92 -21.5h-16v-243h-102v712zM226 243h-16q-55 0 -92 21.5t-59 56.5q-20 31 -25.5 73t-5.5 87v231h100v-228q0 -42 3 -72t17 -48
q9 -12 23.5 -18.5t39.5 -6.5h15v-96z" />
    <glyph glyph-name="u0471" unicode="&#x471;" horiz-adv-x="534" 
d="M500 179q0 -81 -47 -131t-130 -52v-201h-102v201q-87 0 -131 55t-44 147v151q0 35 -8.5 50.5t-37.5 17.5v90q37 0 65 -8t48 -30q25 -28 30 -64.5t5 -72.5v-154q0 -36 16 -62t57 -27v418h102v-418q36 0 55.5 23t19.5 61v175v23.5t-1.5 38.5t-6 47t-14.5 50h97
q11 -24 16.5 -48.5t8 -46t2.5 -38.5v-26v-169z" />
    <glyph glyph-name="u047A" unicode="&#x47a;" horiz-adv-x="542" 
d="M42 522q0 43 13.5 77.5t38 59.5t58 39t74.5 16v44h89v-44q40 -2 74 -16t58.5 -39t38.5 -59.5t14 -77.5v-334q0 -43 -14 -77.5t-38.5 -59.5t-58.5 -39t-74 -16v-44h-88v44q-41 2 -74.5 16t-58.5 39t-38.5 59.5t-13.5 77.5v334zM226 582v40q-38 -6 -60 -32.5t-22 -64.5
v-340q0 -38 22.5 -64.5t60.5 -32.5v40h88v-40q38 6 60.5 32.5t22.5 64.5v340q0 38 -22.5 64.5t-60.5 32.5v-40h-89z" />
    <glyph glyph-name="u047B" unicode="&#x47b;" horiz-adv-x="450" 
d="M184 -3q-71 10 -111 53t-40 120v167q0 77 40 120t111 53v45h85v-46q69 -10 108.5 -53t39.5 -119v-167q0 -77 -40 -120t-111 -53v-45h-82v45zM135 148q0 -27 13 -43.5t36 -24.5v43h82v-43q22 8 35.5 24t13.5 44v209q0 26 -12.5 43t-33.5 25v-41h-85v42q-23 -8 -36 -24.5
t-13 -44.5v-209z" />
    <glyph glyph-name="u047C" unicode="&#x47c;" horiz-adv-x="602" 
d="M300 66q-21 -40 -50.5 -56t-61.5 -16q-39 0 -67 13.5t-45.5 36.5t-25.5 53.5t-8 64.5v386q0 35 10 64t35 52q22 21 53.5 33.5t66.5 14.5v-102q-37 -2 -50 -24.5t-13 -58.5v-362q0 -31 10.5 -50t42.5 -19q28 0 40.5 18t12.5 50v176h102v-176q0 -32 12.5 -50t40.5 -18
q32 0 42.5 19t10.5 50v362q0 36 -13 58.5t-50 24.5v102q35 -2 66.5 -14.5t53.5 -33.5q25 -23 35 -52t10 -64v-386q0 -34 -8 -64.5t-25.5 -53.5t-45.5 -36.5t-67 -13.5q-32 0 -61.5 16t-50.5 56h-2zM144 782q3 22 13.5 43.5t25.5 38t34.5 26.5t41.5 10q26 0 48 -11.5
t38 -21.5q24 -15 45 -24.5t55 -9.5h15v-51h-20q-37 0 -63 10t-43 20q-20 11 -37 19.5t-37 8.5q-23 0 -37.5 -16.5t-18.5 -41.5h-60zM252 586v176h102v-102z" />
    <glyph glyph-name="u047D" unicode="&#x47d;" horiz-adv-x="556" 
d="M277 70q-6 -13 -16.5 -26.5t-25 -24t-33.5 -17t-41 -6.5q-35 0 -59.5 15t-41.5 38q-14 20 -20.5 49t-6.5 61v197q0 32 7.5 60.5t29.5 51.5q17 17 47.5 31t75.5 14v-90q-30 0 -45 -18q-13 -16 -13 -51v-198q0 -24 9 -42t37 -18q19 0 32.5 16t13.5 34v144h102v-144
q0 -18 13.5 -34t32.5 -16q28 0 37 18t9 42v198q0 35 -13 51q-15 18 -45 18v90q45 0 75.5 -14t47.5 -31q22 -23 29.5 -51.5t7.5 -60.5v-197q0 -32 -6.5 -61t-20.5 -49q-17 -23 -41.5 -38t-59.5 -15q-23 0 -41.5 6.5t-33 17t-25 24t-16.5 26.5h-2zM228 386v176h102v-102z
M120 582q3 22 13.5 43.5t25.5 38t34.5 26.5t41.5 10q26 0 48 -11.5t38 -21.5q24 -15 45 -24.5t55 -9.5h15v-51h-20q-37 0 -63 10t-43 20q-20 11 -37 19.5t-37 8.5q-23 0 -37.5 -16.5t-18.5 -41.5h-60z" />
    <glyph glyph-name="u047E" unicode="&#x47e;" horiz-adv-x="602" 
d="M300 66q-21 -40 -50.5 -56t-61.5 -16q-39 0 -67 13.5t-45.5 36.5t-25.5 53.5t-8 64.5v386q0 35 10 64t35 52q22 21 53.5 33.5t66.5 14.5v-102q-37 -2 -50 -24.5t-13 -58.5v-362q0 -31 10.5 -50t42.5 -19q28 0 40.5 18t12.5 50v176h102v-176q0 -32 12.5 -50t40.5 -18
q32 0 42.5 19t10.5 50v362q0 36 -13 58.5t-50 24.5v102q35 -2 66.5 -14.5t53.5 -33.5q25 -23 35 -52t10 -64v-386q0 -34 -8 -64.5t-25.5 -53.5t-45.5 -36.5t-67 -13.5q-32 0 -61.5 16t-50.5 56h-2zM411 744v43h-84v-43h-52v43h-84v-43h-52v91h324v-91h-52z" />
    <glyph glyph-name="u047F" unicode="&#x47f;" horiz-adv-x="548" 
d="M273 70q-6 -13 -16 -26.5t-23.5 -24t-32 -17t-40.5 -6.5q-35 0 -59.5 15t-41.5 38q-14 20 -20.5 49t-6.5 61v197q0 32 7.5 60.5t29.5 51.5q17 17 47.5 31t75.5 14v-90q-30 0 -45 -18q-13 -16 -13 -51v-198q0 -24 9 -42t37 -18q19 0 30.5 16t11.5 34v144h102v-144
q0 -18 11.5 -34t30.5 -16q28 0 37 18t9 42v198q0 35 -13 51q-15 18 -45 18v90q45 0 75.5 -14t47.5 -31q22 -23 29.5 -51.5t7.5 -60.5v-197q0 -32 -6.5 -61t-20.5 -49q-17 -23 -41.5 -38t-59.5 -15q-23 0 -41 6.5t-31.5 17t-23.5 24t-16 26.5h-2zM384 564v43h-84v-43h-52v43
h-84v-43h-52v91h324v-91h-52z" />
    <glyph glyph-name="u0480" unicode="&#x480;" horiz-adv-x="402" 
d="M179 0v170q-30 3 -63 21.5t-50 53.5q-14 27 -19 59.5t-5 66.5v183q0 35 12 65t34 52t52.5 34.5t67.5 12.5q72 0 117 -47q22 -23 34.5 -54.5t12.5 -68.5v-40h-102v34q0 30 -17 52t-46 22q-38 0 -50.5 -23.5t-12.5 -59.5v-154q0 -54 21.5 -81.5t81.5 -27.5h34v-270h-102z
" />
    <glyph glyph-name="u0481" unicode="&#x481;" 
d="M170 -205v205q-30 5 -52.5 19.5t-37.5 34.5q-32 42 -32 116v167q0 31 4 57t15 46q18 33 51.5 53t81.5 20q35 0 63.5 -12t48.5 -33q40 -45 40 -117h-102q0 31 -13.5 45.5t-36.5 14.5t-36.5 -14.5t-13.5 -43.5v-167q0 -50 25 -70t67 -20h30v-301h-102z" />
    <glyph glyph-name="u0482" unicode="&#x482;" horiz-adv-x="425" 
d="M22 -100l92 200l-102 34l22 62l107 -35l77 166l-118 39l22 62l123 -41l52 113h71l-61 -133l106 -34l-21 -63l-112 37l-77 -167l122 -39l-21 -63l-128 42l-83 -180h-71z" />
    <glyph glyph-name="u0483" unicode="&#x483;" horiz-adv-x="0" 
d="M-296 789v-37h-57v89h233v37h57v-89h-233z" />
    <glyph glyph-name="u0484" unicode="&#x484;" horiz-adv-x="0" 
d="M-121 782v17t-3 19t-9 15.5t-17 6.5q-20 0 -36 -8.5t-36 -19.5q-17 -10 -44 -20t-64 -10h-20v51h15q34 0 57 10t46 25q15 11 36 21.5t47 10.5q45 0 68 -30q15 -20 17.5 -45.5t2.5 -42.5h-60z" />
    <glyph glyph-name="u0485" unicode="&#x485;" horiz-adv-x="0" 
d="M-302.008 878h-51.9971v-126h51.9971v37h227.986v52h-227.986v37z" />
    <glyph glyph-name="u0486" unicode="&#x486;" horiz-adv-x="0" 
d="M-126 878h52v-126h-52v37h-228v52h228v37z" />
    <glyph glyph-name="u0487" unicode="&#x487;" horiz-adv-x="0" 
d="M-366 782q3 22 13.5 43.5t25.5 38t34.5 26.5t41.5 10q26 0 48 -11.5t38 -21.5q24 -15 45 -24.5t55 -9.5h15v-51h-20q-37 0 -63 10t-43 20q-20 11 -37 19.5t-37 8.5q-23 0 -37.5 -16.5t-18.5 -41.5h-60z" />
    <glyph glyph-name="u0488" unicode="&#x488;" horiz-adv-x="0" 
d="M-167 -165q-4 44 -41 44t-41 -44h-40q1 12 5 26.5t13 26.5t24.5 20.5t38.5 8.5t38.5 -8.5t24.5 -20.5t13 -26.5t5 -26.5h-40zM-167 793q-4 44 -41 44t-41 -44h-40q1 12 5 26.5t13 26.5t24.5 20.5t38.5 8.5t38.5 -8.5t24.5 -20.5t13 -26.5t5 -26.5h-40zM-568 329
q-4 44 -41 44t-41 -44h-40q1 12 5 26.5t13 26.5t24.5 20.5t38.5 8.5t38.5 -8.5t24.5 -20.5t13 -26.5t5 -26.5h-40zM234 329q-4 44 -41 44t-41 -44h-40q1 12 5 26.5t13 26.5t24.5 20.5t38.5 8.5t38.5 -8.5t24.5 -20.5t13 -26.5t5 -26.5h-40zM-492 645q-4 44 -41 44t-41 -44
h-40q1 12 5 26.5t13 26.5t24.5 20.5t38.5 8.5t38.5 -8.5t24.5 -20.5t13 -26.5t5 -26.5h-40zM158 645q-4 44 -41 44t-41 -44h-40q1 12 5 26.5t13 26.5t24.5 20.5t38.5 8.5t38.5 -8.5t24.5 -20.5t13 -26.5t5 -26.5h-40zM-492 23q-4 44 -41 44t-41 -44h-40q1 12 5 26.5t13 26.5
t24.5 20.5t38.5 8.5t38.5 -8.5t24.5 -20.5t13 -26.5t5 -26.5h-40zM158 23q-4 44 -41 44t-41 -44h-40q1 12 5 26.5t13 26.5t24.5 20.5t38.5 8.5t38.5 -8.5t24.5 -20.5t13 -26.5t5 -26.5h-40z" />
    <glyph glyph-name="u0489" unicode="&#x489;" horiz-adv-x="0" 
d="M-253 -171v116h78v-72zM-175 885v-116h-78v72zM-716 372h116v-78h-72zM280 294h-116v78h72zM-576 747l82 -82l-55 -55l-51 51zM149 -55l-82 82l55 55l51 -51zM205 692l-82 -82l-55 55l51 51zM-632 0l82 82l55 -55l-51 -51z" />
    <glyph glyph-name="u048A" unicode="&#x48a;" horiz-adv-x="457" 
d="M286 0v462h-2l-134 -462h-102v712h102v-463h2l134 463h102v-612h65l-60 -210h-86l30 110h-51zM164 855q1 -6 2 -14.5t6.5 -17t16 -14.5t29.5 -6t29.5 6t16 14.5t6.5 17t2 14.5h85q-7 -60 -39.5 -88t-99.5 -28t-99.5 28t-39.5 88h85z" />
    <glyph glyph-name="u048B" unicode="&#x48b;" horiz-adv-x="421" 
d="M261 0v322h-2l-113 -322h-104v507h96v-322h2l112 322h105v-407h60l-60 -200h-84l30 100h-42zM149 695q1 -6 1.5 -14.5t5 -17t14.5 -14.5t29 -6t29 6t14.5 14.5t5 17t1.5 14.5h85q-5 -56 -36.5 -86t-98.5 -30t-98.5 30.5t-36.5 85.5h85z" />
    <glyph glyph-name="u048C" unicode="&#x48c;" horiz-adv-x="415" 
d="M2 660h59v52h102v-52h90v-70h-90v-170h38q53 0 88.5 -14.5t57.5 -40.5q23 -28 29 -60t7 -71v-40q0 -94 -45.5 -144t-145.5 -50h-131v590h-59v70zM163 330v-228h36q31 0 48.5 9t26.5 25t11 38t2 48q0 27 -3 47t-12 34q-10 14 -27 20.5t-45 6.5h-37z" />
    <glyph glyph-name="u048D" unicode="&#x48d;" 
d="M50 0v427h-55v80h55v154h102v-154h75v-80h-75v-120h29q40 0 71 -7.5t52.5 -25.5t32.5 -48t11 -74q0 -32 -9.5 -61.5t-29.5 -50.5q-24 -25 -59 -32.5t-68 -7.5h-132zM152 85h39q22 0 39.5 14.5t17.5 52.5q0 31 -11.5 50.5t-47.5 19.5h-37v-137z" />
    <glyph glyph-name="u048E" unicode="&#x48e;" horiz-adv-x="407" 
d="M292 302q-20 -11 -45 -17.5t-55 -6.5h-42v-278h-102v712h153q42 0 74 -11t58 -39t36 -65.5t10 -101.5q0 -42 -9 -80t-29 -67l49 -53l-50 -45zM150 616v-242h49q7 0 13.5 0.5t11.5 1.5l-41 46l50 45l42 -46q5 14 6.5 32t1.5 41q0 25 -1 47.5t-9 39.5t-24 26t-46 9h-53z
" />
    <glyph glyph-name="u048F" unicode="&#x48f;" horiz-adv-x="389" 
d="M288 19q-24 -21 -53 -21q-30 0 -51 12.5t-38 35.5h-2v-251h-102v712h102v-46q19 22 39 37t58 15q63 0 89 -48q9 -17 13 -42t4 -67v-173q0 -27 -5 -56t-16 -55l45 -49l-46 -43zM197 89q12 0 24 5l-53 58l46 43l33 -36v183q0 31 -13 50t-39 19q-23 0 -37 -17.5t-14 -45.5
v-201q0 -24 15.5 -41t37.5 -17z" />
    <glyph glyph-name="u0492" unicode="&#x492;" horiz-adv-x="367" 
d="M73 0v304h-69v96h69v312h284v-96h-182v-216h106v-96h-106v-304h-102z" />
    <glyph glyph-name="u0493" unicode="&#x493;" horiz-adv-x="319" 
d="M4 300h68v207h242v-90h-140v-117h80v-85h-80v-215h-102v215h-68v85z" />
    <glyph glyph-name="u0494" unicode="&#x494;" horiz-adv-x="394" 
d="M48 0v712h274v-96h-172v-196h39q46 0 76 -11t51 -32q26 -26 36 -62.5t10 -80.5v-241q0 -46 -9.5 -83.5t-30.5 -64.5t-53.5 -41.5t-78.5 -14.5v96h3q26 0 39.5 8t21.5 23q9 17 10.5 39.5t1.5 48.5v211q0 10 -0.5 23.5t-3 26t-7 24t-12.5 19.5q-12 12 -27.5 17t-39.5 5h-26
v-330h-102z" />
    <glyph glyph-name="u0495" unicode="&#x495;" horiz-adv-x="376" 
d="M42 0v507h242v-90h-140v-155h2q16 24 38 39.5t55 15.5q19 0 38 -6.5t34 -21.5t24 -38.5t9 -57.5v-247q0 -75 -47 -113t-119 -38v96q37 0 51 19q8 11 10.5 28.5t2.5 45.5v171q0 28 -11 44t-35 16q-27 0 -38.5 -15.5t-13.5 -44.5v-155h-102z" />
    <glyph glyph-name="u0496" unicode="&#x496;" horiz-adv-x="638" 
d="M257 712h102v-305h30q18 0 28.5 5t17 14t9.5 20.5t5 25.5l10 85q1 4 2.5 16.5t6 28t11.5 33t19 31.5q21 26 46.5 36t60.5 10h1v-96h-2q-11 0 -20.5 -3.5t-17.5 -12.5t-10.5 -22t-4.5 -29l-9 -83q-1 -13 -3 -25q-2 -11 -4 -21.5t-5 -16.5q-12 -28 -30 -41l69 -272h65v-200
h-88v110h-56l-78 317h-53v-317h-102v317h-53l-78 -317h-104l94 362q-18 13 -30 41q-3 6 -5 16.5t-4 21.5q-2 12 -3 25l-9 83q-2 16 -4.5 29t-10.5 22t-17.5 12.5t-20.5 3.5h-2v96h1q35 0 60.5 -10t46.5 -36q12 -14 19 -31.5t11.5 -33t6 -28t2.5 -16.5l10 -85q2 -14 5 -25.5
t9.5 -20.5t17 -14t28.5 -5h30v305z" />
    <glyph glyph-name="u0497" unicode="&#x497;" horiz-adv-x="582" 
d="M228 507h102v-207h37q23 0 31 16t12 36l10 50q5 23 17 48t33 39q20 13 38.5 15.5t39.5 2.5h2v-90h-1q-15 0 -27 -6.5t-17 -32.5l-9 -53q-1 -3 -2.5 -12t-5.5 -19.5t-10.5 -20.5t-16.5 -15l56 -173h57v-185h-86v100h-45l-65 215h-48v-215h-102v215h-48l-65 -215h-104
l86 258q-11 5 -17.5 15t-10 20.5t-5 19.5t-2.5 12l-9 53q-5 26 -17 32.5t-27 6.5h-1v90h2q21 0 39.5 -3t38.5 -15q23 -14 34 -39t16 -48l10 -50q4 -20 12 -36t31 -16h37v207z" />
    <glyph glyph-name="u0498" unicode="&#x498;" horiz-adv-x="427" 
d="M337 54q-17 -20 -39 -34.5t-52 -20.5v-124h-87v124q-49 9 -84 44q-23 23 -35 59t-12 72v27h102l1 -28q0 -14 3.5 -27.5t11.5 -24.5t21 -18t33 -7q45 0 60.5 28.5t15.5 77.5q0 28 -2 52.5t-10 38.5q-18 31 -60 31h-39v90h42q19 0 34 7t24 24q8 16 9.5 38t1.5 39
q0 18 -3 35.5t-11 30.5q-8 12 -21.5 20t-34.5 8q-19 0 -31.5 -7t-20.5 -18q-9 -12 -13 -31t-4 -37v-16h-102v25q0 30 12.5 68t38.5 65q23 23 52 38t67 15q45 0 77.5 -15.5t53.5 -41.5q22 -26 32 -62t10 -76q0 -20 -1 -40.5t-7.5 -41t-21 -38.5t-41.5 -33q27 -11 41.5 -28.5
t21 -39t7.5 -47t1 -52.5q0 -45 -9.5 -84t-31.5 -65z" />
    <glyph glyph-name="u0499" unicode="&#x499;" horiz-adv-x="366" 
d="M293 44q-15 -16 -34 -27.5t-41 -16.5v-110h-86v108q-45 9 -76 43q-39 42 -42 106h96q2 -27 16.5 -42t43.5 -15q26 0 41.5 15.5t15.5 45.5q0 29 -12.5 46.5t-45.5 17.5h-32v85h28q30 0 43.5 15t13.5 49q0 22 -14 37.5t-39 15.5q-20 0 -36 -11.5t-18 -40.5h-96
q2 30 13.5 56.5t31 47t46.5 32.5t59 12t61.5 -10.5t50.5 -30.5q20 -19 31.5 -45.5t11.5 -59.5q0 -11 -2 -25.5t-8.5 -29.5t-19 -29.5t-33.5 -24.5q22 -8 36.5 -20t22 -27t10.5 -31.5t3 -32.5q0 -31 -10 -56t-30 -47z" />
    <glyph glyph-name="u049A" unicode="&#x49a;" horiz-adv-x="437" 
d="M404 616q-14 0 -23 -3.5t-17 -12.5t-11 -22t-5 -29l-9 -83q-1 -13 -3 -24q-2 -10 -4 -20.5t-6 -18.5q-6 -14 -14.5 -24.5t-16.5 -16.5l78 -272h60v-200h-88v110h-48l-90 317h-57v-317h-102v712h102v-305h34q18 0 29 5t18 14t10 20.5t5 25.5l10 85q1 4 2.5 16.5t5.5 28.5
t11 33t18 32q19 24 46.5 34.5t64.5 10.5v-96z" />
    <glyph glyph-name="u049B" unicode="&#x49b;" horiz-adv-x="408" 
d="M275 0l-81 215h-50v-215h-102v507h102v-207h39q23 0 31 16t13 40l11 58q6 23 15.5 41.5t25.5 29.5q17 12 40 17t52 5h5v-90h-6q-18 0 -30.5 -6t-17.5 -30l-10 -56q-1 -3 -2.5 -12t-5.5 -19.5t-10.5 -20.5t-16.5 -15l67 -173h56v-185h-86v100h-39z" />
    <glyph glyph-name="u049C" unicode="&#x49c;" horiz-adv-x="471" 
d="M190 210v107h-40v-317h-102v712h102v-305h40v123h67v-122q27 4 35 21.5t12 42.5l10 85q1 4 2.5 16.5t5.5 28.5t11 33t18 32q19 24 45.5 34.5t63.5 10.5v-96q-14 0 -22.5 -3.5t-16.5 -12.5t-10.5 -22t-4.5 -29l-9 -83q-2 -14 -4 -25t-4 -21t-5 -17q-6 -14 -14.5 -24.5
t-16.5 -16.5l108 -362h-104l-90 317h-10v-107h-67z" />
    <glyph glyph-name="u049D" unicode="&#x49d;" horiz-adv-x="435" 
d="M182 120v95h-38v-215h-102v507h102v-207h38v100h62v-100h1q24 0 31.5 16t12.5 40l10 58q9 48 41 71q17 12 36.5 17t48.5 5h2v-90h-3q-16 0 -27 -6.5t-16 -29.5l-9 -56q-1 -3 -2.5 -12t-5.5 -19.5t-10.5 -20.5t-16.5 -15l90 -258h-102l-71 215h-10v-95h-62z" />
    <glyph glyph-name="u049E" unicode="&#x49e;" horiz-adv-x="426" 
d="M2 660h58v52h102v-52h68v-70h-68v-183h34q18 0 29 5t18 14t10 20.5t5 25.5l10 85q1 4 2.5 16.5t5.5 28.5t11 33t18 32q19 24 46.5 34.5t64.5 10.5v-96q-14 0 -23 -3.5t-17 -12.5t-11 -22t-5 -29l-9 -83q-1 -13 -3 -24q-2 -10 -4 -20.5t-6 -18.5q-6 -14 -14.5 -24.5
t-16.5 -16.5l106 -362h-104l-90 317h-57v-317h-102v590h-58v70z" />
    <glyph glyph-name="u049F" unicode="&#x49f;" horiz-adv-x="409" 
d="M4 460h50v47h102v-47h63v-65h-63v-95h49q23 0 31 16t13 40l11 58q6 23 15.5 41.5t25.5 29.5q17 12 39.5 17t51.5 5h2v-90h-3q-18 0 -30 -6.5t-17 -29.5l-10 -56q-1 -3 -2.5 -12t-5.5 -19.5t-10.5 -20.5t-16.5 -15l102 -258h-104l-81 215h-60v-215h-102v395h-50v65z" />
    <glyph glyph-name="u04A0" unicode="&#x4a0;" horiz-adv-x="472" 
d="M462 616q-14 0 -23 -3.5t-17 -12.5t-11 -22t-5 -29l-9 -83q-1 -13 -3 -24q-2 -10 -4 -20.5t-6 -18.5q-6 -14 -14.5 -24.5t-16.5 -16.5l106 -362h-104l-90 317h-57v-317h-102v616h-109v96h211v-305h34q18 0 29 5t18 14t10 20.5t5 25.5l10 85q1 4 2.5 16.5t5.5 28.5t11 33
t18 32q19 24 46.5 34.5t64.5 10.5v-96z" />
    <glyph glyph-name="u04A1" unicode="&#x4a1;" horiz-adv-x="439" 
d="M196 507v-207h39q23 0 31 16t13 40l11 58q6 23 15.5 41.5t25.5 29.5q17 12 39.5 17t51.5 5h2v-90h-3q-18 0 -30 -6.5t-17 -29.5l-10 -56q-1 -3 -2.5 -12t-5.5 -19.5t-10.5 -20.5t-16.5 -15l102 -258h-104l-81 215h-50v-215h-102v417h-94v90h196z" />
    <glyph glyph-name="u04A2" unicode="&#x4a2;" horiz-adv-x="442" 
d="M276 0v317h-126v-317h-102v712h102v-305h126v305h102v-622h58v-200h-88v110h-72z" />
    <glyph glyph-name="u04A3" unicode="&#x4a3;" horiz-adv-x="405" 
d="M245 0v215h-101v-215h-102v507h102v-207h101v207h102v-422h54v-185h-86v100h-70z" />
    <glyph glyph-name="u04A4" unicode="&#x4a4;" horiz-adv-x="551" 
d="M378 0h-102v317h-126v-317h-102v712h102v-305h126v305h265v-96h-163v-616z" />
    <glyph glyph-name="u04A5" unicode="&#x4a5;" horiz-adv-x="487" 
d="M245 0v215h-101v-215h-102v507h102v-207h101v207h237v-90h-135v-417h-102z" />
    <glyph glyph-name="u04A6" unicode="&#x4a6;" horiz-adv-x="617" 
d="M373 330v-330h-102v622h-121v-622h-102v712h325v-292h39q46 0 76 -11t51 -32q26 -26 36 -62.5t10 -80.5v-241q0 -46 -9.5 -83.5t-30.5 -64.5t-53.5 -41.5t-78.5 -14.5v96h3q26 0 39.5 8t21.5 23q9 17 10.5 39.5t1.5 48.5v211q0 10 -0.5 23.5t-3 26t-7 24t-12.5 19.5
q-12 12 -27.5 17t-39.5 5h-26z" />
    <glyph glyph-name="u04A7" unicode="&#x4a7;" horiz-adv-x="579" 
d="M42 0v507h305v-235h2q16 24 38 39.5t55 15.5q19 0 38 -6.5t34 -21.5t24 -38.5t9 -57.5v-257q0 -75 -47 -113t-119 -38v96q37 0 51 19q8 11 10.5 28.5t2.5 45.5v181q0 28 -11 44t-35 16q-27 0 -38.5 -15.5t-13.5 -44.5v-165h-102v422h-101v-422h-102z" />
    <glyph glyph-name="u04A8" unicode="&#x4a8;" horiz-adv-x="482" 
d="M138 171q0 -13 3.5 -27t12.5 -26t25 -21t41 -11q-12 20 -15 37.5t-3 37.5v311q0 21 1 37t3 29t6.5 24.5t10.5 22.5q14 23 41 36.5t56 13.5t56.5 -13t41.5 -36q13 -23 17.5 -47t4.5 -67v-300q0 -12 -1.5 -30t-9 -37.5t-23.5 -39t-45 -34.5q8 -5 21 -7t24 -2h11t11 2
l-10 -84q-6 -1 -10 -1.5t-10 -0.5q-39 -1 -70.5 11.5t-59.5 42.5q-49 -1 -91 10.5t-66 28.5q-69 49 -69 137v368q0 85 43.5 132.5t121.5 49.5v-94q-32 -3 -50.5 -23t-18.5 -58v-372zM288 161q0 -17 3 -34.5t14 -34.5q16 7 26 17t15 21t6.5 23t1.5 22v319q0 19 -4 29.5t-9 15
t-10.5 5.5t-8.5 1t-9 -1t-11.5 -5.5t-9.5 -15t-4 -29.5v-333z" />
    <glyph glyph-name="u04A9" unicode="&#x4a9;" horiz-adv-x="439" 
d="M125 165q0 -13 3 -27t11 -26t23.5 -20.5t39.5 -10.5q-12 20 -15.5 37t-3.5 37v141q0 64 33 100q14 15 33 24.5t42 9.5q50 0 81 -33q16 -17 24.5 -41t8.5 -60v-124q0 -12 -0.5 -29.5t-6.5 -37t-20.5 -39t-41.5 -35.5q8 -5 21.5 -8t24.5 -3h11.5t9.5 2l-10 -82
q-6 -1 -10.5 -1.5t-10.5 -0.5q-39 -1 -73 14t-57 42q-49 -1 -84.5 9.5t-60.5 27.5q-34 23 -49 58t-15 79v166q0 85 42.5 132t118.5 47v-85q-32 -3 -50.5 -24t-18.5 -59v-180zM265 155q0 -17 2.5 -35.5t14.5 -33.5q16 7 24.5 17.5t12 21.5t4 22.5t0.5 21.5v127q0 17 -3 27
t-7.5 14.5t-10 5.5t-9.5 1t-9 -1t-9 -6t-7 -14.5t-3 -26.5v-141z" />
    <glyph glyph-name="u04AA" unicode="&#x4aa;" horiz-adv-x="407" 
d="M325 44q-17 -17 -36.5 -28.5t-42.5 -16.5v-124h-87v125q-35 8 -62 30q-24 20 -39.5 51.5t-15.5 80.5v392q0 35 12 65t34 52t52.5 34.5t67.5 12.5q72 0 117 -47q22 -23 34.5 -54.5t12.5 -68.5v-40h-102v34q0 30 -17 52t-46 22q-38 0 -50.5 -23.5t-12.5 -59.5v-364
q0 -31 13.5 -52t48.5 -21q10 0 21.5 3.5t21.5 11.5q9 8 15 22t6 35v35h102v-44q0 -33 -12.5 -62.5t-34.5 -52.5z" />
    <glyph glyph-name="u04AB" unicode="&#x4ab;" 
d="M311 39q-30 -30 -67 -40v-109h-86v109q-32 7 -54.5 24.5t-36.5 43.5q-11 20 -15 46t-4 57v167q0 31 4 57t15 46q18 33 51.5 53t81.5 20q35 0 63.5 -12t48.5 -33q40 -45 40 -117h-102q0 31 -13.5 45.5t-36.5 14.5t-36.5 -14.5t-13.5 -43.5v-207q0 -24 13.5 -37t36.5 -13
q29 0 38.5 17t11.5 34h102q0 -67 -41 -108z" />
    <glyph glyph-name="u04AC" unicode="&#x4ac;" horiz-adv-x="332" 
d="M115 0v616h-118v96h338v-96h-118v-526h58v-200h-88v110h-72z" />
    <glyph glyph-name="u04AD" unicode="&#x4ad;" horiz-adv-x="302" 
d="M100 417h-100v90h302v-90h-100v-332h54v-185h-86v100h-70v417z" />
    <glyph glyph-name="u04AF" unicode="&#x4af;" horiz-adv-x="354" 
d="M0 507h108l68 -316h2l68 316h108l-126 -484v-228h-102v228z" />
    <glyph glyph-name="u04B0" unicode="&#x4b0;" horiz-adv-x="388" 
d="M54 305h87l-138 407h108l82 -288h2l82 288h108l-139 -407h89v-90h-90v-215h-102v215h-89v90z" />
    <glyph glyph-name="u04B1" unicode="&#x4b1;" horiz-adv-x="354" 
d="M34 85h80l-114 422h108l68 -316h2l68 316h108l-114 -422h80v-85h-92v-205h-102v205h-92v85z" />
    <glyph glyph-name="u04B2" unicode="&#x4b2;" horiz-adv-x="415" 
d="M283 0l-89 240l-88 -240h-108l144 373l-133 339h108l77 -211l78 211h108l-136 -339l111 -283h58v-200h-88v110h-42z" />
    <glyph glyph-name="u04B3" unicode="&#x4b3;" horiz-adv-x="349" 
d="M235 0l-69 155l-69 -155h-108l125 259l-119 248h108l63 -144l63 144h108l-121 -248l84 -174h55v-185h-86v100h-34z" />
    <glyph glyph-name="u04B4" unicode="&#x4b4;" horiz-adv-x="497" 
d="M202 90h131v622h102v-622h58v-200h-88v110h-305v616h-103v96h293v-96h-88v-526z" />
    <glyph glyph-name="u04B5" unicode="&#x4b5;" horiz-adv-x="455" 
d="M184 85h111v422h102v-422h54v-185h-86v100h-283v417h-82v90h254v-90h-70v-332z" />
    <glyph glyph-name="u04B6" unicode="&#x4b6;" horiz-adv-x="424" 
d="M258 0v316l-20 -2.5t-32 -1.5q-35 0 -68 10t-55 31t-32.5 54t-10.5 70v235h102v-223q0 -17 4 -34t15 -28q19 -19 57 -19q8 0 16 0.5t13 1.5q6 1 11 2v300h102v-622h58v-200h-88v110h-72z" />
    <glyph glyph-name="u04B7" unicode="&#x4b7;" horiz-adv-x="399" 
d="M239 0v216q-7 -2 -16 -3q-15 -3 -42 -3q-9 0 -21.5 1t-26.5 4t-27.5 8.5t-25.5 14.5q-29 23 -36.5 49t-7.5 58v162h102v-153q0 -29 15 -44q17 -15 45 -15q20 0 31 3q6 1 10 3v206h102v-422h54v-185h-86v100h-70z" />
    <glyph glyph-name="u04B8" unicode="&#x4b8;" horiz-adv-x="449" 
d="M192 210v103q-34 3 -62 14t-48 31t-31 49.5t-11 69.5v235h102v-223q0 -63 50 -76v117h67v-122q8 0 15.5 0.5t12.5 1.5l12 2v300h102v-712h-102v316l-40 -3v-103h-67z" />
    <glyph glyph-name="u04B9" unicode="&#x4b9;" horiz-adv-x="424" 
d="M180 120v91q-30 2 -56.5 10t-46 24.5t-30.5 43t-11 64.5v154h100v-150q0 -26 11.5 -40t32.5 -19v102h62v-105q8 1 15.5 2t12.5 2q6 1 10 2v206h102v-507h-102v216q-5 -1 -11 -2q-5 -1 -12 -1.5t-15 -1.5v-91h-62z" />
    <glyph glyph-name="u04BA" unicode="&#x4ba;" horiz-adv-x="408" 
d="M48 0v712h102v-300q8 1 20 1.5t27 0.5q28 0 63.5 -8t61.5 -31q24 -22 35 -55.5t11 -67.5v-252h-102v238q0 19 -3 35t-14 29q-19 22 -61 22q-6 0 -12.5 -0.5t-12.5 -0.5q-7 -1 -13 -1v-322h-102z" />
    <glyph glyph-name="u04BC" unicode="&#x4bc;" horiz-adv-x="500" 
d="M465 203v-44q0 -33 -12.5 -62.5t-34.5 -52.5t-51.5 -36.5t-63.5 -13.5q-29 0 -59 8t-54 28t-39.5 51.5t-15.5 80.5v157q-40 3 -65.5 16.5t-40.5 32.5t-21 41.5t-6 44.5v30h82v-18q0 -9 1 -19t6.5 -19t15.5 -15t28 -6v147q0 35 12 65t34 52t52.5 34.5t67.5 12.5
q72 0 117 -47q22 -23 34.5 -54.5t12.5 -68.5v-231h-228v-148q0 -31 13.5 -52t48.5 -21q10 0 21.5 3.5t21.5 11.5q9 8 15 22t6 35v35h102zM363 542q0 30 -17 52t-46 22q-38 0 -50.5 -23.5t-12.5 -59.5v-126h126v135z" />
    <glyph glyph-name="u04BD" unicode="&#x4bd;" horiz-adv-x="466" 
d="M129 337q0 31 4 57t15 46q18 33 51.5 53t81.5 20q35 0 63.5 -12t48.5 -33q40 -45 40 -113v-140h-202v-69q0 -24 13.5 -37t36.5 -13q29 0 38.5 17t11.5 34h102q0 -67 -41 -108q-20 -21 -48 -33t-63 -12q-48 0 -81.5 20t-51.5 53q-11 20 -15 46t-4 57v45q-40 2 -64.5 15.5
t-38.5 33t-19 42.5t-5 45v3h80v-6q0 -6 0.5 -15.5t4.5 -18t14 -14t28 -5.5v42zM231 295h100v58q0 29 -13.5 43.5t-36.5 14.5t-36.5 -14.5t-13.5 -43.5v-58z" />
    <glyph glyph-name="u04BE" unicode="&#x4be;" horiz-adv-x="500" 
d="M465 203v-44q0 -33 -12 -63t-34 -53q-15 -15 -33.5 -26.5t-39.5 -16.5v-125h-87v124q-55 13 -89.5 55t-34.5 108v157q-40 3 -65.5 16.5t-40.5 32.5t-21 41.5t-6 44.5v30h82v-18q0 -9 1 -19t6.5 -19t15.5 -15t28 -6v147q0 35 12 65t34 52t52.5 34.5t67.5 12.5
q72 0 117 -47q22 -23 34.5 -54.5t12.5 -68.5v-231h-228v-148q0 -31 14.5 -52t48.5 -21q10 0 21 3.5t21 11.5q9 8 15 22t6 35v35h102zM363 542q0 30 -17 52t-46 22q-38 0 -50.5 -23.5t-12.5 -59.5v-126h126v135z" />
    <glyph glyph-name="u04BF" unicode="&#x4bf;" horiz-adv-x="466" 
d="M129 337q0 31 4 57t15 46q18 33 51.5 53t81.5 20q35 0 63.5 -12t48.5 -33q40 -45 40 -113v-140h-202v-69q0 -24 13.5 -37t36.5 -13q29 0 38.5 17t11.5 34h102q0 -67 -41 -108q-25 -27 -64 -39v-110h-86v108q-66 14 -94 69q-11 20 -15 46t-4 57v45q-40 2 -64.5 15.5
t-38.5 33t-19 42.5t-5 45v3h80v-6q0 -6 0.5 -15.5t4.5 -18t14 -14t28 -5.5v42zM231 295h100v58q0 29 -13.5 43.5t-36.5 14.5t-36.5 -14.5t-13.5 -43.5v-58z" />
    <glyph glyph-name="u04C1" unicode="&#x4c1;" horiz-adv-x="616" 
d="M257 712h102v-305h30q18 0 28.5 5t17 14t9.5 20.5t5 25.5l10 85q1 4 2.5 16.5t6 28t11.5 33t19 31.5q21 26 46.5 36t60.5 10h1v-96h-2q-11 0 -20.5 -3.5t-17.5 -12.5t-10.5 -22t-4.5 -29l-9 -83q-1 -13 -3 -25q-2 -11 -4 -21.5t-5 -16.5q-12 -28 -30 -41l94 -362h-104
l-78 317h-53v-317h-102v317h-53l-78 -317h-104l94 362q-18 13 -30 41q-3 6 -5 16.5t-4 21.5q-2 12 -3 25l-9 83q-2 16 -4.5 29t-10.5 22t-17.5 12.5t-20.5 3.5h-2v96h1q35 0 60.5 -10t46.5 -36q12 -14 19 -31.5t11.5 -33t6 -28t2.5 -16.5l10 -85q2 -14 5 -25.5t9.5 -20.5
t17 -14t28.5 -5h30v305zM254 855q1 -6 2 -14.5t6.5 -17t16 -14.5t29.5 -6t29.5 6t16 14.5t6.5 17t2 14.5h85q-7 -60 -39.5 -88t-99.5 -28t-99.5 28t-39.5 88h85z" />
    <glyph glyph-name="u04C2" unicode="&#x4c2;" horiz-adv-x="558" 
d="M228 507h102v-207h37q23 0 31 16t12 36l10 50q5 23 17 48t33 39q20 13 38.5 15.5t39.5 2.5h2v-90h-1q-15 0 -27 -6.5t-17 -32.5l-9 -53q-1 -3 -2.5 -12t-5.5 -19.5t-10.5 -20.5t-16.5 -15l86 -258h-104l-65 215h-48v-215h-102v215h-48l-65 -215h-104l86 258
q-11 5 -17.5 15t-10 20.5t-5 19.5t-2.5 12l-9 53q-5 26 -17 32.5t-27 6.5h-1v90h2q21 0 39.5 -3t38.5 -15q23 -14 34 -39t16 -48l10 -50q4 -20 12 -36t31 -16h37v207zM229 695q1 -6 1.5 -14.5t5 -17t14.5 -14.5t29 -6t29 6t14.5 14.5t5 17t1.5 14.5h85q-5 -56 -36.5 -86
t-98.5 -30t-98.5 30.5t-36.5 85.5h85z" />
    <glyph glyph-name="u04C3" unicode="&#x4c3;" horiz-adv-x="424" 
d="M404 616q-14 0 -23 -3.5t-17 -12.5t-11 -22t-5 -29l-9 -83q-1 -11 -3 -25t-6.5 -28t-12.5 -27.5t-23 -23.5q25 -9 39.5 -23.5t22 -32.5t9.5 -39.5t2 -43.5v-230q0 -46 -9.5 -83.5t-30.5 -64.5t-53.5 -41.5t-78.5 -14.5v96h3q26 0 39.5 8t21.5 23q9 17 10.5 39.5t1.5 48.5
v202q0 21 -3.5 47.5t-19.5 41.5q-24 22 -64 22h-34v-317h-102v712h102v-305h41q31 0 41.5 19.5t13.5 45.5l10 85q1 4 2.5 16.5t5.5 28.5t11 33t18 32q19 24 46.5 34.5t64.5 10.5v-96z" />
    <glyph glyph-name="u04C4" unicode="&#x4c4;" horiz-adv-x="384" 
d="M42 0v507h102v-207h33q15 0 23.5 5.5t14 14t8 18t4.5 18.5l11 58q6 23 15.5 41.5t25.5 29.5q17 12 39.5 17t51.5 5h2v-90h-3q-18 0 -30 -6.5t-17 -29.5l-10 -56q0 -2 -1.5 -10t-5.5 -18t-10.5 -21t-16.5 -18q32 -13 46.5 -37t14.5 -64v-211q0 -75 -47 -113t-119 -38v96
q37 0 51 19q8 11 10.5 28.5t2.5 45.5v164q0 28 -13 47.5t-47 19.5h-33v-215h-102z" />
    <glyph glyph-name="u04C5" unicode="&#x4c5;" horiz-adv-x="470" 
d="M299 0v622h-100v-207q0 -16 -1 -54.5t-5 -84.5t-12 -91t-22 -75q-24 -51 -61 -80.5t-90 -29.5h-6v102q30 2 47 18t28 40q9 21 14.5 51t8.5 64t4 70t1 69v298h296v-612h65l-60 -210h-86l30 110h-51z" />
    <glyph glyph-name="u04C6" unicode="&#x4c6;" horiz-adv-x="427" 
d="M261 0v422h-82v-94q0 -35 -2 -70.5t-6.5 -68t-11.5 -60.5t-18 -48q-21 -39 -55 -60t-77 -21h-7v96h5q11 0 22.5 6t23.5 21q10 12 16 34.5t9 47t4 47t1 34.5v221h280v-407h60l-60 -200h-84l30 100h-48z" />
    <glyph glyph-name="u04C7" unicode="&#x4c7;" horiz-adv-x="426" 
d="M276 317h-126v-317h-102v712h102v-305h126v305h102v-747q0 -42 -13 -76.5t-43 -60.5q-23 -20 -59 -29.5t-73 -9.5h-20v96h20q18 0 37 5t28 15q11 11 16 28t5 45v339z" />
    <glyph glyph-name="u04C8" unicode="&#x4c8;" horiz-adv-x="389" 
d="M245 215h-101v-215h-102v507h102v-207h101v207h102v-551q0 -37 -14.5 -70t-36.5 -52q-23 -20 -54 -29.5t-68 -9.5h-10v96h10q18 0 33 4.5t23 15.5t11.5 28t3.5 45v231z" />
    <glyph glyph-name="u04C9" unicode="&#x4c9;" horiz-adv-x="447" 
d="M276 0v317h-126v-317h-102v712h102v-305h126v305h102v-612h65l-60 -210h-86l30 110h-51z" />
    <glyph glyph-name="u04CA" unicode="&#x4ca;" horiz-adv-x="411" 
d="M245 0v215h-101v-215h-102v507h102v-207h101v207h102v-407h60l-60 -200h-84l30 100h-48z" />
    <glyph glyph-name="u04CB" unicode="&#x4cb;" horiz-adv-x="408" 
d="M258 316l-20 -2.5t-32 -1.5q-35 0 -68 10t-55 31t-32.5 54t-10.5 70v235h102v-223q0 -17 4 -34t15 -28q19 -19 57 -19q8 0 16 0.5t13 1.5q6 1 11 2v300h102v-712h-83v-110h-88v200h69v226z" />
    <glyph glyph-name="u04CC" unicode="&#x4cc;" horiz-adv-x="383" 
d="M239 216q-7 -2 -16 -3q-15 -3 -42 -3q-9 0 -21.5 1t-26.5 4t-27.5 8.5t-25.5 14.5q-29 23 -36.5 49t-7.5 58v162h102v-153q0 -29 15 -44q17 -15 45 -15q20 0 31 3q6 1 10 3v206h102v-507h-80v-100h-86v185h64v131z" />
    <glyph glyph-name="u04CD" unicode="&#x4cd;" horiz-adv-x="577" 
d="M406 0v433h-2l-101 -306h-51l-100 306h-2v-433h-102v712h98l131 -377h2l130 377h99v-612h65l-60 -210h-86l30 110h-51z" />
    <glyph glyph-name="u04CE" unicode="&#x4ce;" horiz-adv-x="522" 
d="M360 0v307h-2l-82 -224h-52l-82 224h-2v-307h-98v507h104l103 -272h2l103 272h104v-407h60l-60 -200h-84l30 100h-44z" />
    <glyph glyph-name="u04CF" unicode="&#x4cf;" horiz-adv-x="204" 
d="M51 0v712h102v-712h-102z" />
    <glyph glyph-name="u04D0" unicode="&#x4d0;" horiz-adv-x="407" 
d="M254 249l-50 258h-2l-50 -258h102zM2 0l159 712h85l159 -712h-102l-30 153h-139l-30 -153h-102zM149 855q1 -6 2 -14.5t6.5 -17t16 -14.5t29.5 -6t29.5 6t16 14.5t6.5 17t2 14.5h85q-7 -60 -39.5 -88t-99.5 -28t-99.5 28t-39.5 88h85z" />
    <glyph glyph-name="u04D1" unicode="&#x4d1;" 
d="M235 0v52h-2q-20 -28 -40.5 -43t-57.5 -15q-18 0 -36.5 5.5t-35.5 20.5q-17 14 -27.5 40.5t-10.5 68.5q0 43 7 75.5t26 54.5q18 21 49 31.5t79 10.5h11t11 -1t12 -1t15 -1v53q0 26 -11 43t-40 17q-20 0 -36.5 -13t-21.5 -38h-99q4 68 46 110q20 20 48 31.5t63 11.5
q32 0 60 -10t49 -30q20 -20 32 -50t12 -70v-353h-102zM235 218q-17 3 -28 3q-33 0 -56.5 -15.5t-23.5 -56.5q0 -29 14 -47t39 -18q26 0 40.5 17t14.5 48v69zM135 695q1 -6 1.5 -14.5t5 -17t14.5 -14.5t29 -6t29 6t14.5 14.5t5 17t1.5 14.5h85q-5 -56 -36.5 -86t-98.5 -30
t-98.5 30.5t-36.5 85.5h85z" />
    <glyph glyph-name="u04D2" unicode="&#x4d2;" horiz-adv-x="407" 
d="M254 249l-50 258h-2l-50 -258h102zM2 0l159 712h85l159 -712h-102l-30 153h-139l-30 -153h-102zM78 756v102h90v-102h-90zM240 756v102h90v-102h-90z" />
    <glyph glyph-name="u04D3" unicode="&#x4d3;" 
d="M235 0v52h-2q-20 -28 -40.5 -43t-57.5 -15q-18 0 -36.5 5.5t-35.5 20.5q-17 14 -27.5 40.5t-10.5 68.5q0 43 7 75.5t26 54.5q18 21 49 31.5t79 10.5h11t11 -1t12 -1t15 -1v53q0 26 -11 43t-40 17q-20 0 -36.5 -13t-21.5 -38h-99q4 68 46 110q20 20 48 31.5t63 11.5
q32 0 60 -10t49 -30q20 -20 32 -50t12 -70v-353h-102zM235 218q-17 3 -28 3q-33 0 -56.5 -15.5t-23.5 -56.5q0 -29 14 -47t39 -18q26 0 40.5 17t14.5 48v69zM59 586v102h90v-102h-90zM221 586v102h90v-102h-90z" />
    <glyph glyph-name="u04D6" unicode="&#x4d6;" 
d="M48 0v712h304v-96h-202v-209h176v-96h-176v-209h202v-102h-304zM157 855q1 -6 2 -14.5t6.5 -17t16 -14.5t29.5 -6t29.5 6t16 14.5t6.5 17t2 14.5h85q-7 -60 -39.5 -88t-99.5 -28t-99.5 28t-39.5 88h85z" />
    <glyph glyph-name="u04D7" unicode="&#x4d7;" 
d="M337 215h-202v-69q0 -24 13.5 -37t36.5 -13q29 0 38.5 17t11.5 34h102q0 -67 -41 -108q-20 -21 -48 -33t-63 -12q-48 0 -81.5 20t-51.5 53q-11 20 -15 46t-4 57v167q0 31 4 57t15 46q18 33 51.5 53t81.5 20q35 0 63.5 -12t48.5 -33q40 -45 40 -113v-140zM135 295h100v58
q0 29 -13.5 43.5t-36.5 14.5t-36.5 -14.5t-13.5 -43.5v-58zM135 695q1 -6 1.5 -14.5t5 -17t14.5 -14.5t29 -6t29 6t14.5 14.5t5 17t1.5 14.5h85q-5 -56 -36.5 -86t-98.5 -30t-98.5 30.5t-36.5 85.5h85z" />
    <glyph glyph-name="u04DA" unicode="&#x4da;" horiz-adv-x="414" 
d="M42 407h228v129q0 36 -14 58t-52 22q-32 0 -46 -20t-14 -50v-38h-102v40q0 37 12.5 68.5t34.5 54.5q45 47 117 47q37 0 67.5 -12.5t52.5 -34.5t34 -52t12 -65v-386q0 -37 -11.5 -69t-33 -55t-52.5 -36.5t-71 -13.5q-34 0 -63.5 12.5t-51.5 34t-34.5 51t-12.5 63.5v252z
M208 96q32 0 47 19t15 50v152h-126v-153q0 -28 16 -48t48 -20zM81 756v102h90v-102h-90zM243 756v102h90v-102h-90z" />
    <glyph glyph-name="u04DB" unicode="&#x4db;" 
d="M235 292v61q0 29 -13.5 43.5t-36.5 14.5t-36.5 -14.5t-13.5 -45.5h-102q0 72 40 117q20 21 48.5 33t63.5 12q48 0 81.5 -20t51.5 -53q11 -20 15 -46t4 -57v-167q0 -31 -4 -57t-15 -46q-18 -33 -51.5 -53t-81.5 -20q-35 0 -63 12t-48 33q-41 41 -41 107v146h202zM235 212
h-100v-66q2 -17 11.5 -33.5t38.5 -16.5q23 0 36.5 13t13.5 37v66zM59 586v102h90v-102h-90zM221 586v102h90v-102h-90z" />
    <glyph glyph-name="u04DC" unicode="&#x4dc;" horiz-adv-x="616" 
d="M257 712h102v-305h30q18 0 28.5 5t17 14t9.5 20.5t5 25.5l10 85q1 4 2.5 16.5t6 28t11.5 33t19 31.5q21 26 46.5 36t60.5 10h1v-96h-2q-11 0 -20.5 -3.5t-17.5 -12.5t-10.5 -22t-4.5 -29l-9 -83q-1 -13 -3 -25q-2 -11 -4 -21.5t-5 -16.5q-12 -28 -30 -41l94 -362h-104
l-78 317h-53v-317h-102v317h-53l-78 -317h-104l94 362q-18 13 -30 41q-3 6 -5 16.5t-4 21.5q-2 12 -3 25l-9 83q-2 16 -4.5 29t-10.5 22t-17.5 12.5t-20.5 3.5h-2v96h1q35 0 60.5 -10t46.5 -36q12 -14 19 -31.5t11.5 -33t6 -28t2.5 -16.5l10 -85q2 -14 5 -25.5t9.5 -20.5
t17 -14t28.5 -5h30v305zM182 756v102h90v-102h-90zM344 756v102h90v-102h-90z" />
    <glyph glyph-name="u04DD" unicode="&#x4dd;" horiz-adv-x="558" 
d="M228 507h102v-207h37q23 0 31 16t12 36l10 50q5 23 17 48t33 39q20 13 38.5 15.5t39.5 2.5h2v-90h-1q-15 0 -27 -6.5t-17 -32.5l-9 -53q-1 -3 -2.5 -12t-5.5 -19.5t-10.5 -20.5t-16.5 -15l86 -258h-104l-65 215h-48v-215h-102v215h-48l-65 -215h-104l86 258
q-11 5 -17.5 15t-10 20.5t-5 19.5t-2.5 12l-9 53q-5 26 -17 32.5t-27 6.5h-1v90h2q21 0 39.5 -3t38.5 -15q23 -14 34 -39t16 -48l10 -50q4 -20 12 -36t31 -16h37v207zM153 586v102h90v-102h-90zM315 586v102h90v-102h-90z" />
    <glyph glyph-name="u04DE" unicode="&#x4de;" horiz-adv-x="427" 
d="M35 532q0 30 12.5 68t38.5 65q23 23 52 38t67 15q45 0 77.5 -15.5t53.5 -41.5q22 -26 32 -62t10 -76q0 -20 -1 -40.5t-7.5 -41t-21 -38.5t-41.5 -33q27 -11 41.5 -28.5t21 -39t7.5 -47t1 -52.5q0 -45 -9.5 -84t-31.5 -65t-55.5 -43t-82.5 -17q-37 0 -69 13t-55 36t-35 59
t-12 72v27h102l1 -28q0 -14 3.5 -27.5t11.5 -24.5t21 -18t33 -7q45 0 60.5 28.5t15.5 77.5q0 28 -2 52.5t-10 38.5q-18 31 -60 31h-39v90h42q19 0 34 7t24 24q8 16 9.5 38t1.5 39q0 18 -3 35.5t-11 30.5q-8 12 -21.5 20t-34.5 8q-19 0 -31.5 -7t-20.5 -18q-9 -12 -13 -31
t-4 -37v-16h-102v25zM87 756v102h90v-102h-90zM249 756v102h90v-102h-90z" />
    <glyph glyph-name="u04DF" unicode="&#x4df;" horiz-adv-x="366" 
d="M19 365q2 30 13.5 56.5t31 47t46.5 32.5t59 12t61.5 -10.5t50.5 -30.5q20 -19 31.5 -45.5t11.5 -59.5q0 -11 -2 -25.5t-8.5 -29.5t-19 -29.5t-33.5 -24.5q22 -8 36.5 -20t22 -27t10.5 -31.5t3 -32.5q0 -31 -10 -56t-30 -47q-22 -24 -53.5 -37t-68.5 -13q-71 0 -115 47
q-39 42 -42 106h96q2 -27 16.5 -42t43.5 -15q26 0 41.5 15.5t15.5 45.5q0 29 -12.5 46.5t-45.5 17.5h-32v85h28q30 0 43.5 15t13.5 49q0 22 -14 37.5t-39 15.5q-20 0 -36 -11.5t-18 -40.5h-96zM47 586v102h90v-102h-90zM209 586v102h90v-102h-90z" />
    <glyph glyph-name="u04E0" unicode="&#x4e0;" horiz-adv-x="422" 
d="M245 423q65 -14 96 -55q19 -24 26 -57.5t7 -78.5v-29q0 -45 -9.5 -84t-31.5 -65t-54.5 -43t-81.5 -17q-37 0 -68 13t-54 36t-35 55.5t-12 68.5v34h100v-22q0 -14 3.5 -28.5t11 -26.5t20.5 -20t33 -8q46 0 61 28.5t15 77.5v25q0 27 -3 45.5t-17 35.5q-10 12 -32.5 19
t-47.5 7h-35v79l112 203h-195v96h306v-81z" />
    <glyph glyph-name="u04E1" unicode="&#x4e1;" horiz-adv-x="341" 
d="M211 252q31 -8 51 -21.5t31.5 -32t15.5 -41t4 -49.5v-133q0 -38 -9 -71.5t-28.5 -59t-50 -40.5t-72.5 -15q-32 0 -58.5 11.5t-46 32t-31 48.5t-13.5 60h96q4 -24 16.5 -40t41.5 -16q28 0 38.5 18t10.5 48v150q0 32 -15.5 53t-52.5 21h-32v75l89 167h-164v90h275v-81z" />
    <glyph glyph-name="u04E2" unicode="&#x4e2;" horiz-adv-x="436" 
d="M286 0v462h-2l-134 -462h-102v712h102v-463h2l134 463h102v-712h-102zM81 777v60h274v-60h-274z" />
    <glyph glyph-name="u04E3" unicode="&#x4e3;" horiz-adv-x="399" 
d="M261 0v322h-2l-113 -322h-104v507h96v-322h2l112 322h105v-507h-96zM62 607v60h274v-60h-274z" />
    <glyph glyph-name="u04E4" unicode="&#x4e4;" horiz-adv-x="436" 
d="M286 0v462h-2l-134 -462h-102v712h102v-463h2l134 463h102v-712h-102zM92 756v102h90v-102h-90zM254 756v102h90v-102h-90z" />
    <glyph glyph-name="u04E5" unicode="&#x4e5;" horiz-adv-x="399" 
d="M261 0v322h-2l-113 -322h-104v507h96v-322h2l112 322h105v-507h-96zM73 586v102h90v-102h-90zM235 586v102h90v-102h-90z" />
    <glyph glyph-name="u04E6" unicode="&#x4e6;" horiz-adv-x="426" 
d="M42 544q0 43 15 76t40 55q24 21 54.5 32t61.5 11t61.5 -11t55.5 -32q24 -22 39 -55t15 -76v-376q0 -45 -15 -77t-39 -53q-25 -22 -55.5 -33t-61.5 -11t-61.5 11t-54.5 33q-25 21 -40 53t-15 77v376zM144 168q0 -37 20.5 -54.5t48.5 -17.5t48.5 17.5t20.5 54.5v376
q0 37 -20.5 54.5t-48.5 17.5t-48.5 -17.5t-20.5 -54.5v-376zM87 756v102h90v-102h-90zM249 756v102h90v-102h-90z" />
    <glyph glyph-name="u04E7" unicode="&#x4e7;" 
d="M33 337q0 31 4 57t15 46q18 33 51.5 53t81.5 20t81.5 -20t51.5 -53q11 -20 15 -46t4 -57v-167q0 -31 -4 -57t-15 -46q-18 -33 -51.5 -53t-81.5 -20t-81.5 20t-51.5 53q-11 20 -15 46t-4 57v167zM135 154q0 -29 13.5 -43.5t36.5 -14.5t36.5 14.5t13.5 43.5v199
q0 29 -13.5 43.5t-36.5 14.5t-36.5 -14.5t-13.5 -43.5v-199zM59 586v102h90v-102h-90zM221 586v102h90v-102h-90z" />
    <glyph glyph-name="u04E8" unicode="&#x4e8;" horiz-adv-x="426" 
d="M42 544q0 43 15 76t40 55q24 21 54.5 32t61.5 11t61.5 -11t55.5 -32q24 -22 39 -55t15 -76v-376q0 -45 -15 -77t-39 -53q-25 -22 -55.5 -33t-61.5 -11t-61.5 11t-54.5 33q-25 21 -40 53t-15 77v376zM144 168q0 -37 20.5 -54.5t48.5 -17.5t48.5 17.5t20.5 54.5v149h-138
v-149zM144 407h138v137q0 37 -20.5 54.5t-48.5 17.5t-48.5 -17.5t-20.5 -54.5v-137z" />
    <glyph glyph-name="u04E9" unicode="&#x4e9;" 
d="M33 337q0 31 4 57t15 46q18 33 51.5 53t81.5 20t81.5 -20t51.5 -53q11 -20 15 -46t4 -57v-167q0 -31 -4 -57t-15 -46q-18 -33 -51.5 -53t-81.5 -20t-81.5 20t-51.5 53q-11 20 -15 46t-4 57v167zM129 154q0 -29 16.5 -44.5t39.5 -15.5t39.5 15.5t16.5 44.5v62h-112v-62z
M129 299h112v54q0 29 -16.5 44.5t-39.5 15.5t-39.5 -15.5t-16.5 -44.5v-54z" />
    <glyph glyph-name="u04EA" unicode="&#x4ea;" horiz-adv-x="426" 
d="M42 544q0 43 15 76t40 55q24 21 54.5 32t61.5 11t61.5 -11t55.5 -32q24 -22 39 -55t15 -76v-376q0 -45 -15 -77t-39 -53q-25 -22 -55.5 -33t-61.5 -11t-61.5 11t-54.5 33q-25 21 -40 53t-15 77v376zM144 168q0 -37 20.5 -54.5t48.5 -17.5t48.5 17.5t20.5 54.5v149h-138
v-149zM144 407h138v137q0 37 -20.5 54.5t-48.5 17.5t-48.5 -17.5t-20.5 -54.5v-137zM87 756v102h90v-102h-90zM249 756v102h90v-102h-90z" />
    <glyph glyph-name="u04EB" unicode="&#x4eb;" 
d="M33 337q0 31 4 57t15 46q18 33 51.5 53t81.5 20t81.5 -20t51.5 -53q11 -20 15 -46t4 -57v-167q0 -31 -4 -57t-15 -46q-18 -33 -51.5 -53t-81.5 -20t-81.5 20t-51.5 53q-11 20 -15 46t-4 57v167zM129 154q0 -29 16.5 -44.5t39.5 -15.5t39.5 15.5t16.5 44.5v62h-112v-62z
M129 299h112v54q0 29 -16.5 44.5t-39.5 15.5t-39.5 -15.5t-16.5 -44.5v-54zM59 586v102h90v-102h-90zM221 586v102h90v-102h-90z" />
    <glyph glyph-name="u04EC" unicode="&#x4ec;" horiz-adv-x="407" 
d="M137 407h126v126q0 36 -13.5 59.5t-50.5 23.5q-31 0 -46.5 -22t-15.5 -52v-34h-102v30q0 37 13.5 73.5t35.5 59.5t52.5 35t62.5 12q35 0 66.5 -12.5t53.5 -34.5t34 -52t12 -65v-382q0 -49 -16 -85t-40 -56t-53.5 -28.5t-58.5 -8.5q-34 0 -64 13.5t-52 36.5t-34 52.5
t-12 62.5v44h102v-35q0 -21 5.5 -35t14.5 -22q10 -8 21.5 -11.5t21.5 -3.5q35 0 49 22t14 53v146h-126v90zM77 756v102h90v-102h-90zM239 756v102h90v-102h-90z" />
    <glyph glyph-name="u04ED" unicode="&#x4ed;" horiz-adv-x="359" 
d="M224 300v53q0 29 -14.5 43.5t-37.5 14.5t-37.5 -14.5t-14.5 -45.5h-102q1 33 11.5 62.5t30 51.5t48 35t64.5 13q38 0 67.5 -12.5t49.5 -35.5q23 -26 30 -58t7 -70v-167q0 -32 -6.5 -66t-29.5 -60q-20 -24 -48.5 -37t-67.5 -13q-33 0 -61 11.5t-48.5 31.5t-33 48.5
t-13.5 61.5h102q2 -17 12.5 -34t39.5 -17q23 0 37.5 13t14.5 37v69h-95v85h95zM53 586v102h90v-102h-90zM215 586v102h90v-102h-90z" />
    <glyph glyph-name="u04EE" unicode="&#x4ee;" horiz-adv-x="405" 
d="M60 96q14 0 32 3t28 13q8 8 17.5 25.5t17.5 49.5l9 39l-154 486h108l96 -335h2l75 335h108l-148 -541q-14 -49 -30 -87t-45 -61q-24 -20 -50.5 -24.5t-58.5 -4.5h-14v102h7zM65 777v60h274v-60h-274z" />
    <glyph glyph-name="u04EF" unicode="&#x4ef;" horiz-adv-x="352" 
d="M-1 507h108l70 -316h2l69 316h105l-146 -595q-8 -34 -22.5 -56t-33.5 -36t-40.5 -19.5t-44.5 -5.5h-28v96h23q15 0 26 4t20 18q8 14 15 39.5t16 70.5zM36 607v60h274v-60h-274z" />
    <glyph glyph-name="u04F0" unicode="&#x4f0;" horiz-adv-x="405" 
d="M60 96q14 0 32 3t28 13q8 8 17.5 25.5t17.5 49.5l9 39l-154 486h108l96 -335h2l75 335h108l-148 -541q-14 -49 -30 -87t-45 -61q-24 -20 -50.5 -24.5t-58.5 -4.5h-14v102h7zM76 756v102h90v-102h-90zM238 756v102h90v-102h-90z" />
    <glyph glyph-name="u04F1" unicode="&#x4f1;" horiz-adv-x="352" 
d="M-1 507h108l70 -316h2l69 316h105l-146 -595q-8 -34 -22.5 -56t-33.5 -36t-40.5 -19.5t-44.5 -5.5h-28v96h23q15 0 26 4t20 18q8 14 15 39.5t16 70.5zM50 586v102h90v-102h-90zM212 586v102h90v-102h-90z" />
    <glyph glyph-name="u04F2" unicode="&#x4f2;" horiz-adv-x="405" 
d="M60 96q14 0 32 3t28 13q8 8 17.5 25.5t17.5 49.5l9 39l-154 486h108l96 -335h2l75 335h108l-148 -541q-14 -49 -30 -87t-45 -61q-24 -20 -50.5 -24.5t-58.5 -4.5h-14v102h7zM92 744l90 141h108l-132 -141h-66zM254 744l90 141h108l-132 -141h-66z" />
    <glyph glyph-name="u04F3" unicode="&#x4f3;" horiz-adv-x="352" 
d="M-1 507h108l70 -316h2l69 316h105l-146 -595q-8 -34 -22.5 -56t-33.5 -36t-40.5 -19.5t-44.5 -5.5h-28v96h23q15 0 26 4t20 18q8 14 15 39.5t16 70.5zM56 574l90 141h108l-132 -141h-66zM218 574l90 141h108l-132 -141h-66z" />
    <glyph glyph-name="u04F4" unicode="&#x4f4;" horiz-adv-x="408" 
d="M360 0h-102v316l-20 -2.5t-32 -1.5q-35 0 -68 10t-55 31t-32.5 54t-10.5 70v235h102v-223q0 -17 4 -34t15 -28q19 -19 57 -19q8 0 16 0.5t13 1.5q6 1 11 2v300h102v-712zM78 756v102h90v-102h-90zM240 756v102h90v-102h-90z" />
    <glyph glyph-name="u04F5" unicode="&#x4f5;" horiz-adv-x="383" 
d="M239 0v216q-7 -2 -16 -3q-15 -3 -42 -3q-9 0 -21.5 1t-26.5 4t-27.5 8.5t-25.5 14.5q-29 23 -36.5 49t-7.5 58v162h102v-153q0 -29 15 -44q17 -15 45 -15q20 0 31 3q6 1 10 3v206h102v-507h-102zM65 586v102h90v-102h-90zM227 586v102h90v-102h-90z" />
    <glyph glyph-name="u04F6" unicode="&#x4f6;" horiz-adv-x="342" 
d="M48 0v712h284v-96h-182v-526h63v-200h-88v110h-77z" />
    <glyph glyph-name="u04F7" unicode="&#x4f7;" horiz-adv-x="289" 
d="M42 0v507h242v-90h-140v-332h54v-185h-86v100h-70z" />
    <glyph glyph-name="u04F8" unicode="&#x4f8;" horiz-adv-x="572" 
d="M48 712h102v-292h38q53 0 88.5 -14.5t57.5 -40.5q23 -28 29 -60t7 -71v-40q0 -94 -45.5 -144t-145.5 -50h-131v712zM150 330v-228h36q31 0 48.5 9t26.5 25t11 38t2 48q0 27 -3 46t-12 33q-10 14 -27 21.5t-45 7.5h-37zM422 0v712h102v-712h-102zM160 756v102h90v-102h-90
zM322 756v102h90v-102h-90z" />
    <glyph glyph-name="u04F9" unicode="&#x4f9;" horiz-adv-x="520" 
d="M42 0v507h102v-200h25q40 0 70.5 -7.5t51 -25.5t31 -48t10.5 -74q0 -32 -9.5 -61.5t-29.5 -50.5q-24 -25 -57 -32.5t-66 -7.5h-128zM144 85h35q22 0 39.5 14.5t17.5 52.5q0 31 -11.5 50.5t-47.5 19.5h-33v-137zM376 0v507h102v-507h-102zM134 586v102h90v-102h-90z
M296 586v102h90v-102h-90z" />
    <glyph glyph-name="u04FA" unicode="&#x4fa;" horiz-adv-x="367" 
d="M73 0v304h-69v96h69v312h284v-96h-182v-216h106v-96h-106v-214h63v-97q0 -15 -0.5 -35t-3.5 -41.5t-11 -42.5t-23 -39q-29 -33 -61 -39.5t-60 -6.5h-35v85h29q18 0 34 5t25 15q11 12 14.5 29.5t3.5 34.5v42h-77z" />
    <glyph glyph-name="u04FB" unicode="&#x4fb;" horiz-adv-x="319" 
d="M4 300h68v207h242v-90h-140v-117h80v-85h-80v-130h54v-86q0 -15 -0.5 -35t-3.5 -41.5t-11 -42.5t-23 -39q-29 -33 -60 -39.5t-59 -6.5h-35v85h29q18 0 34 5t25 15q11 12 14.5 29.5t3.5 34.5v36h-70v215h-68v85z" />
    <glyph glyph-name="u04FC" unicode="&#x4fc;" horiz-adv-x="385" 
d="M106 0h-108l144 373l-133 339h108l77 -211l78 211h108l-136 -339l114 -290q6 -14 15.5 -48t10.5 -73q1 -40 -10 -70.5t-35 -54.5t-59.5 -36t-79.5 -12h-20v96h20q39 0 60 21q20 20 20 66q0 10 -3.5 33.5t-17.5 59.5l-65 175z" />
    <glyph glyph-name="u04FD" unicode="&#x4fd;" horiz-adv-x="332" 
d="M97 0h-108l125 259l-119 248h108l63 -144l63 144h108l-121 -248l91 -194q7 -17 13 -35q5 -16 9 -35.5t4 -40.5q0 -44 -12.5 -72.5t-34.5 -47.5q-23 -20 -54 -29.5t-68 -9.5h-10v96h10q33 0 50 16q19 17 19 52q0 12 -3.5 27.5t-8 30.5t-9 26.5t-6.5 16.5l-40 95z" />
    <glyph glyph-name="u04FE" unicode="&#x4fe;" horiz-adv-x="389" 
d="M44 407h84l-119 305h108l77 -221l78 221h108l-123 -305h88v-90h-79l125 -317h-108l-89 250l-88 -250h-108l122 317h-76v90z" />
    <glyph glyph-name="u04FF" unicode="&#x4ff;" horiz-adv-x="332" 
d="M22 300h72l-99 207h108l63 -154l63 154h108l-101 -207h74v-85h-73l106 -215h-108l-69 160l-69 -160h-108l104 215h-71v85z" />
    <glyph glyph-name="u0500" unicode="&#x500;" horiz-adv-x="402" 
d="M354 0h-131q-100 0 -145.5 48t-45.5 142v40q0 39 7.5 71.5t30.5 60.5q22 26 56.5 42t87.5 16h38v292h102v-712zM215 330q-28 0 -43.5 -8.5t-25.5 -22.5q-18 -27 -18 -81q0 -26 3 -47.5t12 -37.5q18 -31 79 -31h30v228h-37z" />
    <glyph glyph-name="u0501" unicode="&#x501;" horiz-adv-x="389" 
d="M144 165q0 -31 12 -50t38 -19q23 0 37 17.5t14 45.5v197q0 24 -14.5 39.5t-36.5 15.5q-29 0 -39.5 -18t-10.5 -42v-186zM245 0v46q-10 -11 -19 -20.5t-20 -16.5t-25 -11t-33 -4q-64 0 -89 48q-9 17 -13 42t-4 67v193q0 55 3 81q6 50 47 75q19 13 57 13q30 0 53.5 -13.5
t40.5 -38.5h2v251h102v-712h-102z" />
    <glyph glyph-name="u0502" unicode="&#x502;" horiz-adv-x="556" 
d="M392 -6q-28 0 -51 10t-43 33h-2q-19 -22 -44.5 -29.5t-45.5 -7.5q-87 0 -130.5 51t-43.5 139v40q0 39 7.5 71.5t30.5 60.5q22 26 56.5 42t87.5 16h38v292h102v-556q0 -38 13 -49t28 -11t28 11t13 49v251h96v-247q0 -85 -40 -125.5t-100 -40.5zM215 330q-28 0 -43.5 -8.5
t-25.5 -22.5q-18 -27 -18 -81q0 -26 3 -47.5t12 -37.5q18 -31 79 -31h30v228h-37z" />
    <glyph glyph-name="u0503" unicode="&#x503;" horiz-adv-x="547" 
d="M347 150q0 -58 42 -58t42 58v150h96v-150q0 -31 -8 -57.5t-25 -49.5t-45 -36t-60 -13q-40 0 -72.5 18.5t-49.5 57.5h-2q-23 -40 -51 -58t-62 -18q-35 0 -56.5 13.5t-33.5 35.5t-16 50t-4 58v193q0 55 3 81q6 50 47 75q19 13 57 13q30 0 53.5 -13.5t40.5 -38.5h2v251h102
v-562zM144 165q0 -31 12 -50t38 -19q22 0 35.5 15.5t15.5 41.5v203q0 24 -14.5 39.5t-36.5 15.5q-29 0 -39.5 -18t-10.5 -42v-186z" />
    <glyph glyph-name="u0504" unicode="&#x504;" horiz-adv-x="565" 
d="M401 -6q-60 0 -100 40.5t-40 125.5v62q0 27 -3 47t-12 34q-10 14 -27 20.5t-45 6.5h-38v90h43q49 0 65 23.5t17 69.5v10q0 17 -3 34.5t-11 30.5q-8 12 -21.5 20t-34.5 8q-19 0 -31.5 -7t-20.5 -18q-9 -12 -13 -31t-4 -37v-16h-102v25q0 30 12.5 68t38.5 65q23 23 52 38
t67 15q45 0 77.5 -15.5t53.5 -41.5q20 -25 31 -58.5t11 -70.5v-26q0 -29 -4.5 -49t-13.5 -35q-17 -28 -52 -48q36 -17 53 -50t17 -90v-78q0 -38 13.5 -49t27.5 -11t27.5 11t13.5 49v251h96v-247q0 -85 -40 -125.5t-100 -40.5z" />
    <glyph glyph-name="u0505" unicode="&#x505;" horiz-adv-x="528" 
d="M14 365q2 30 13.5 56.5t31 47t46.5 32.5t59 12t61.5 -10.5t50.5 -30.5q20 -19 31.5 -45.5t11.5 -59.5q0 -11 -2 -25.5t-8.5 -29.5t-19 -29.5t-33.5 -24.5q22 -7 36 -18t22 -24.5t11 -28.5t3 -30v-16q0 -49 42 -49t42 58v150h96v-150q0 -31 -8 -57.5t-25 -49.5t-45 -36
t-60 -13q-30 0 -56.5 9.5t-46 27.5t-30.5 43.5t-11 57.5v19q0 29 -14.5 46.5t-47.5 17.5h-32v85h28q30 0 43.5 15t13.5 49q0 22 -14 37.5t-39 15.5q-20 0 -36 -11.5t-18 -40.5h-96z" />
    <glyph glyph-name="u0506" unicode="&#x506;" horiz-adv-x="427" 
d="M261 0v222q0 27 -3 47t-12 34q-10 14 -27 20.5t-45 6.5h-38v90h43q49 0 65 23.5t17 69.5v10q0 17 -3 34.5t-11 30.5q-8 12 -21.5 20t-34.5 8q-19 0 -31.5 -7t-20.5 -18q-9 -12 -13 -31t-4 -37v-16h-102v25q0 30 12.5 68t38.5 65q23 23 52 38t67 15q45 0 77.5 -15.5
t53.5 -41.5q20 -25 31 -58.5t11 -70.5v-26q0 -29 -4.5 -49t-13.5 -35q-17 -28 -52 -48q36 -17 53 -50t17 -90v-144h58v-200h-88v110h-72z" />
    <glyph glyph-name="u0507" unicode="&#x507;" horiz-adv-x="386" 
d="M226 0v151q0 29 -14.5 46.5t-47.5 17.5h-32v85h28q30 0 43.5 15t13.5 49q0 22 -14 37.5t-39 15.5q-20 0 -36 -11.5t-18 -40.5h-96q2 30 13.5 56.5t31 47t46.5 32.5t59 12t61.5 -10.5t50.5 -30.5q20 -19 31.5 -45.5t11.5 -59.5q0 -11 -2 -25.5t-8.5 -29.5t-19 -29.5
t-33.5 -24.5q24 -7 38.5 -19.5t22 -27.5t9.5 -31.5t2 -32.5v-62h54v-185h-86v100h-70z" />
    <glyph glyph-name="u0508" unicode="&#x508;" horiz-adv-x="601" 
d="M199 622v-207q0 -16 -1 -54.5t-5 -84.5t-12 -91t-22 -75q-24 -51 -61 -80.5t-90 -29.5h-6v102q30 2 47 18t28 40q9 21 14.5 51t8.5 64t4 70t1 69v298h294v-556q0 -38 13.5 -49t27.5 -11t27.5 11t13.5 49v251h96v-247q0 -85 -40 -125.5t-100 -40.5t-100 40.5t-40 125.5
v462h-98z" />
    <glyph glyph-name="u0509" unicode="&#x509;" horiz-adv-x="563" 
d="M261 422h-82v-94q0 -35 -2 -70.5t-6.5 -68t-11.5 -60.5t-18 -48q-21 -39 -55 -60t-77 -21h-7v96h5q11 0 22.5 6t23.5 21q10 12 16 34.5t9 47t4 47t1 34.5v221h280v-357q0 -58 42 -58t42 58v150h96v-150q0 -31 -8 -57.5t-25 -49.5t-45 -36t-60 -13t-59.5 10.5t-45.5 30.5
q-38 41 -39 115v272z" />
    <glyph glyph-name="u050A" unicode="&#x50a;" horiz-adv-x="580" 
d="M416 -6q-60 0 -100 40.5t-40 125.5v157h-126v-317h-102v712h102v-305h126v305h102v-556q0 -38 13.5 -49t27.5 -11t27.5 11t13.5 49v251h96v-247q0 -85 -40 -125.5t-100 -40.5z" />
    <glyph glyph-name="u050B" unicode="&#x50b;" horiz-adv-x="545" 
d="M243 215h-99v-215h-102v507h102v-207h99v207h102v-357q0 -58 42 -58t42 58v150h96v-150q0 -31 -8 -57.5t-25 -49.5t-45 -36t-60 -13t-59.5 10.5t-45.5 30.5q-38 41 -39 115v65z" />
    <glyph glyph-name="u050C" unicode="&#x50c;" horiz-adv-x="426" 
d="M42 544q0 43 15 76t40 55q24 21 54.5 32t61.5 11t61.5 -11t55.5 -32q24 -22 39 -55t15 -76v-36h-102v36q0 37 -20.5 54.5t-48.5 17.5t-48.5 -17.5t-20.5 -54.5v-376q0 -37 18.5 -54.5t46.5 -17.5q30 0 52 25q9 11 15 29.5t6 38.5v113h-61v90h163v-204q0 -84 -47 -137
q-23 -26 -55 -41.5t-73 -15.5q-31 0 -60 10t-53 32q-25 21 -39.5 56.5t-14.5 80.5v371z" />
    <glyph glyph-name="u050D" unicode="&#x50d;" horiz-adv-x="374" 
d="M356 280v-113q0 -38 -12 -70t-32.5 -55t-48.5 -35.5t-61 -12.5q-39 0 -67.5 13t-47.5 36q-23 27 -31 57t-8 70v167q0 31 4 57t15 46q18 33 52.5 53t82.5 20q36 0 64.5 -13t48.5 -35t30.5 -51.5t10.5 -62.5h-102q0 31 -14.5 45.5t-37.5 14.5t-37.5 -14.5t-14.5 -43.5v-207
q0 -24 13 -39t36 -15q29 0 43 19t14 44v40h-51v85h151z" />
    <glyph glyph-name="u050E" unicode="&#x50e;" horiz-adv-x="419" 
d="M255 -6q-60 0 -100 40.5t-40 125.5v456h-118v96h338v-96h-118v-460q0 -38 13 -49t28 -11t28 11t13 49v251h96v-247q0 -85 -40 -125.5t-100 -40.5z" />
    <glyph glyph-name="u050F" unicode="&#x50f;" horiz-adv-x="402" 
d="M100 417h-100v90h302v-90h-100v-267q0 -58 42 -58t42 58v150h96v-150q0 -31 -8 -57.5t-25 -49.5t-45 -36t-60 -13t-59.5 10.5t-45.5 30.5q-38 41 -39 115v267z" />
    <glyph glyph-name="u0510" unicode="&#x510;" horiz-adv-x="430" 
d="M395 507h-102v16q0 18 -4 37t-13 31q-8 11 -20.5 18t-31.5 7q-21 0 -34.5 -8t-21.5 -20q-8 -13 -11 -30.5t-3 -35.5q0 -17 1.5 -39t9.5 -38q9 -17 24 -24t34 -7h42v-90h-39q-20 0 -36 -7t-26 -24q-8 -14 -11 -38.5t-3 -52.5q0 -49 15.5 -77.5t60.5 -28.5q19 0 33 7
t22.5 18t13 24.5t4.5 27.5l1 28h102v-27q0 -36 -12 -72t-35 -59t-57 -36t-71 -13q-49 0 -82.5 17t-55.5 43t-31.5 65t-9.5 84q0 27 1.5 52.5t9 47t22.5 39t42 28.5q-27 15 -41.5 33t-21 38.5t-7.5 41t-1 40.5q0 40 12.5 76t34.5 62q21 26 53.5 41.5t77.5 15.5q38 0 67 -15
t52 -38q26 -27 36 -65t10 -68v-25z" />
    <glyph glyph-name="u0511" unicode="&#x511;" horiz-adv-x="366" 
d="M251 365q-2 29 -18 40.5t-36 11.5q-25 0 -39 -15.5t-14 -37.5q0 -34 13.5 -49t43.5 -15h28v-85h-32q-33 0 -45.5 -18t-12.5 -47q0 -30 15.5 -45t41.5 -15q29 0 43.5 15t16.5 42h96q-3 -64 -42 -106q-21 -23 -50.5 -35t-64.5 -12q-37 0 -68.5 11.5t-53.5 35.5
q-20 22 -30 47t-10 56q0 16 3 33t11 32.5t22 28t36 20.5q-21 10 -33.5 24t-19 28.5t-8.5 29t-2 25.5q0 32 12 59t33 47t49 31t61 11q65 0 105 -41t45 -107h-96z" />
    <glyph glyph-name="u0512" unicode="&#x512;" horiz-adv-x="449" 
d="M299 622h-100v-207q0 -16 -1 -54.5t-5 -84.5t-12 -91t-22 -75q-24 -51 -61 -80.5t-90 -29.5h-6v102q30 2 47 18t28 40q9 21 14.5 51t8.5 64t4 70t1 69v298h296v-747q0 -42 -13 -76.5t-43 -60.5q-23 -20 -59 -29.5t-73 -9.5h-20v96h20q18 0 37 5t28 15q11 11 16 28t5 45
v644z" />
    <glyph glyph-name="u0513" unicode="&#x513;" horiz-adv-x="405" 
d="M261 422h-82v-94q0 -35 -2 -70.5t-6.5 -68t-11.5 -60.5t-18 -48q-21 -39 -55 -60t-77 -21h-7v96h5q11 0 22.5 6t23.5 21q10 12 16 34.5t9 47t4 47t1 34.5v221h280v-551q0 -37 -14.5 -70t-36.5 -52q-23 -20 -54 -29.5t-68 -9.5h-10v96h10q18 0 33 4.5t23 15.5t11.5 28
t3.5 45v438z" />
    <glyph glyph-name="u0514" unicode="&#x514;" horiz-adv-x="633" 
d="M242 0l144 373l-98 249h-89v-207q0 -16 -1 -54.5t-5 -84.5t-12 -91t-22 -75q-24 -51 -61 -80.5t-90 -29.5h-6v102q30 2 47 18t28 40q9 21 14.5 51t8.5 64t4 70t1 69v298h256l77 -211l78 211h108l-136 -339l147 -373h-108l-89 240l-88 -240h-108z" />
    <glyph glyph-name="u0515" unicode="&#x515;" horiz-adv-x="547" 
d="M204 0l125 259l-78 163h-72v-94q0 -35 -2 -70.5t-6.5 -68t-11.5 -60.5t-18 -48q-21 -39 -55 -60t-77 -21h-7v96h5q11 0 22.5 6t23.5 21q10 12 16 34.5t9 47t4 47t1 34.5v221h235l63 -144l63 144h108l-121 -248l127 -259h-108l-69 155l-69 -155h-108z" />
    <glyph glyph-name="u0516" unicode="&#x516;" horiz-adv-x="562" 
d="M48 0v712h147q42 0 74 -11t58 -39q26 -27 34.5 -68.5t9.5 -102.5l79 221h108l-136 -339l142 -373h-108l-123 336q-21 -28 -53.5 -43t-83.5 -15h-46v-278h-102zM150 616v-242h43q31 0 48 9t25 25q8 15 9.5 37t1.5 49q0 25 -1 47.5t-9 39.5t-24 26t-46 9h-47z" />
    <glyph glyph-name="u0517" unicode="&#x517;" horiz-adv-x="513" 
d="M337 155q0 -29 -4 -57.5t-14.5 -51.5t-29 -37.5t-49.5 -14.5q-30 0 -53.5 13.5t-40.5 38.5h-2v-251h-102v712h102v-46q19 22 39 37t58 15q30 0 48.5 -12t29 -33t14.5 -49.5t4 -62.5v7l77 144h104l-135 -248l141 -259h-104zM247 342q0 31 -13 50t-39 19q-23 0 -37 -17.5
t-14 -45.5v-197q0 -24 14.5 -39.5t36.5 -15.5q29 0 40.5 18t11.5 42v186z" />
    <glyph glyph-name="u0518" unicode="&#x518;" horiz-adv-x="580" 
d="M268 0v304h-47l-89 -304h-104l97 317q-24 9 -42 27t-29 41t-15 54t-4 64q0 209 180 209h347v-96h-192v-221h166v-96h-166v-197h192v-102h-294zM224 616q-54 0 -70.5 -28.5t-16.5 -82.5q0 -27 3 -47.5t11 -34.5q9 -14 25 -21.5t43 -7.5h49v222h-44z" />
    <glyph glyph-name="u0519" unicode="&#x519;" horiz-adv-x="566" 
d="M533 215h-202v-69q0 -24 13.5 -37t36.5 -13q29 0 38.5 17t11.5 34h102q0 -67 -41 -108q-20 -21 -48 -33t-63 -12q-48 0 -81.5 20t-51.5 53q-11 20 -15 46t-4 57v32h-44l-64 -202h-104l76 217q-23 10 -36.5 28t-20 38t-8 39t-1.5 30q0 32 11 67t37 56q26 22 55.5 27
t59.5 5h121v-41q17 26 42.5 36.5t48.5 10.5q30 0 53.5 -9.5t43.5 -30.5q17 -19 25.5 -52t8.5 -66v-140zM229 422h-50q-30 0 -40 -22t-10 -52q0 -65 56 -65h44v139zM331 295h100v58q0 29 -13.5 43.5t-36.5 14.5q-47 0 -50 -53v-63z" />
    <glyph glyph-name="u051A" unicode="&#x51a;" horiz-adv-x="426" 
d="M144 168q0 -37 20.5 -54.5t48.5 -17.5q14 0 22 4l-46 37l52 62l41 -33v2v376q0 37 -20.5 54.5t-48.5 17.5t-48.5 -17.5t-20.5 -54.5v-376zM42 544q0 43 15 76t40 55q24 21 54.5 32t61.5 11t61.5 -11t55.5 -32q24 -22 39 -55t15 -76v-376q0 -42 -15 -73l63 -51l-52 -62
l-60 49q-46 -37 -107 -37q-31 0 -61.5 11t-54.5 33q-25 21 -40 53t-15 77v376z" />
    <glyph glyph-name="u051B" unicode="&#x51b;" horiz-adv-x="389" 
d="M245 -205v251h-2q-17 -25 -40.5 -38.5t-53.5 -13.5q-37 0 -57.5 13t-33.5 33q-10 16 -13 42q-3 25 -3 81v193q0 42 4 67t13 42q25 48 89 48q19 0 33 -4t25 -11t20 -16.5t19 -20.5v46h102v-712h-102zM144 156q0 -24 10.5 -42t39.5 -18q22 0 36.5 15.5t14.5 39.5v197
q0 28 -14 45.5t-37 17.5q-26 0 -38 -19t-12 -50v-186z" />
    <glyph glyph-name="u051C" unicode="&#x51c;" horiz-adv-x="593" 
d="M577 712l-106 -712h-96l-78 462h-2l-77 -462h-96l-106 712h108l51 -452h2l80 452h78l83 -463h2l49 463h108z" />
    <glyph glyph-name="u051D" unicode="&#x51d;" horiz-adv-x="536" 
d="M535 507l-120 -507h-90l-56 301h-2l-56 -301h-90l-120 507h108l62 -315h2l57 315h80l54 -315h2l61 315h108z" />
    <glyph glyph-name="u051E" unicode="&#x51e;" horiz-adv-x="431" 
d="M341 484l-2 -19q-1 -13 -3 -24q-2 -10 -4.5 -21t-6.5 -19q-6 -14 -14 -23.5t-16 -15.5l106 -362h-104l-90 317h-57v-317h-102v712h102v-305h34q36 0 48 19t16 46l3 31l-61 13l14 64l55 -12q1 8 3 20t5.5 25.5t10 27.5t15.5 26q19 24 46.5 34.5t64.5 10.5v-96
q-14 0 -23 -3.5t-17 -12.5t-11.5 -22t-5.5 -29l62 -13l-13 -64z" />
    <glyph glyph-name="u051F" unicode="&#x51f;" horiz-adv-x="387" 
d="M311 331l-1 -6q-1 -3 -2 -11t-4.5 -18t-10 -20.5t-16.5 -17.5l102 -258h-104l-81 215h-50v-215h-102v507h102v-207h39q21 0 30 13.5t14 35.5l-48 10l14 57l46 -10l1 5q5 23 16 43t27 31q17 12 37.5 17t49.5 5h2v-90h-3q-17 0 -29.5 -5.5t-17.5 -23.5l50 -10l-13 -57z" />
    <glyph glyph-name="u0520" unicode="&#x520;" horiz-adv-x="645" 
d="M401 330v-330h-102v622h-100v-207q0 -16 -1 -54.5t-5 -84.5t-12 -91t-22 -75q-24 -51 -61 -80.5t-90 -29.5h-6v102q30 2 47 18t28 40q9 21 14.5 51t8.5 64t4 70t1 69v298h296v-292h39q46 0 76 -11t51 -32q26 -26 36 -62.5t10 -80.5v-241q0 -46 -9.5 -83.5t-30.5 -64.5
t-53.5 -41.5t-78.5 -14.5v96h3q26 0 39.5 8t21.5 23q9 17 10.5 39.5t1.5 48.5v211q0 10 -0.5 23.5t-3 26t-7 24t-12.5 19.5q-12 12 -27.5 17t-39.5 5h-26z" />
    <glyph glyph-name="u0521" unicode="&#x521;" horiz-adv-x="595" 
d="M7 96q11 0 22.5 6t23.5 21q10 12 16 34.5t9 47t4 47t1 34.5v221h280v-235h2q16 24 38 39.5t55 15.5q19 0 38 -6.5t34 -21.5t24 -38.5t9 -57.5v-257q0 -75 -47 -113t-119 -38v96q37 0 51 19q8 11 10.5 28.5t2.5 45.5v181q0 28 -11 44t-35 16q-29 0 -40.5 -18t-11.5 -52
v-155h-102v422h-82v-94q0 -35 -2 -70.5t-6.5 -68t-11.5 -60.5t-18 -48q-21 -39 -55 -60t-77 -21h-7v96h5z" />
    <glyph glyph-name="u0522" unicode="&#x522;" horiz-adv-x="618" 
d="M374 330v-330h-102v330h-122v-330h-102v712h102v-292h122v292h102v-292h39q46 0 76 -11t51 -32q26 -26 36 -62.5t10 -80.5v-241q0 -46 -9.5 -83.5t-30.5 -64.5t-53.5 -41.5t-78.5 -14.5v96h3q26 0 39.5 8t21.5 23q9 17 10.5 39.5t1.5 48.5v211q0 10 -0.5 23.5t-3 26
t-7 24t-12.5 19.5q-12 12 -27.5 17t-39.5 5h-26z" />
    <glyph glyph-name="u0523" unicode="&#x523;" horiz-adv-x="581" 
d="M42 0v507h102v-207h103v207h102v-225h2q16 24 38 39.5t55 15.5q19 0 38 -6.5t34 -21.5t24 -38.5t9 -57.5v-267q0 -75 -47 -113t-119 -38v96q37 0 51 19q8 11 10.5 28.5t2.5 45.5v191q0 28 -11 44t-35 16q-27 0 -38.5 -15.5t-13.5 -44.5v-175h-102v215h-103v-215h-102z
" />
    <glyph glyph-name="u0524" unicode="&#x524;" horiz-adv-x="437" 
d="M271 0v622h-121v-622h-102v712h325v-622h58v-200h-88v110h-72z" />
    <glyph glyph-name="u0525" unicode="&#x525;" horiz-adv-x="405" 
d="M245 0v422h-101v-422h-102v507h305v-422h54v-185h-86v100h-70z" />
    <glyph glyph-name="u0526" unicode="&#x526;" horiz-adv-x="432" 
d="M266 0v238q0 19 -3 35t-14 29q-19 22 -61 22q-6 0 -12.5 -0.5t-12.5 -0.5q-7 -1 -13 -1v-322h-102v712h102v-300q8 1 20 1.5t27 0.5q28 0 63.5 -8t61.5 -31q24 -22 35 -55.5t11 -67.5v-162h58v-200h-88v110h-72z" />
    <glyph glyph-name="u0527" unicode="&#x527;" horiz-adv-x="405" 
d="M245 0v311q0 28 -13 44t-37 16q-29 0 -40 -18t-11 -52v-301h-102v712h102v-294h2q16 24 38.5 39.5t57.5 15.5q19 0 38 -6.5t34 -21.5t24 -38.5t9 -57.5v-264h54v-185h-86v100h-70z" />
    <glyph glyph-name="u0528" unicode="&#x528;" horiz-adv-x="444" 
d="M66 712h102v-305h126v305h102v-712h-102v317h-126v-342q0 -37 -10 -73.5t-33 -61.5q-51 -51 -130 -51h-5v96h6q35 0 52 18q11 11 14.5 29t3.5 46v734z" />
    <glyph glyph-name="u0529" unicode="&#x529;" horiz-adv-x="403" 
d="M54 507h102v-207h103v207h102v-507h-102v215h-103v-263q0 -34 -10 -61.5t-27 -47.5q-44 -48 -125 -48v96q18 0 28.5 4t18.5 15t10.5 28.5t2.5 45.5v523z" />
    <glyph glyph-name="u052A" unicode="&#x52a;" horiz-adv-x="891" 
d="M403 90h58v-200h-88v110h-283v-110h-88v200h52q9 19 17 43.5t14 51.5t11 55.5t8 55.5q2 21 3.5 47t2.5 53.5t1.5 55t0.5 52.5v208h291v-305h124v305h102v-305h32q18 0 29 5t18 14t10 20.5t5 25.5l10 85q1 4 2.5 16.5t5.5 28.5t11 33t18 32q19 24 46.5 34.5t64.5 10.5v-96
q-14 0 -23 -3.5t-17 -12.5t-11 -22t-5 -29l-9 -83q-1 -13 -3 -24q-2 -10 -4 -20.5t-6 -18.5q-6 -14 -14.5 -24.5t-16.5 -16.5l106 -362h-104l-90 317h-55v-317h-102v317h-124v-227zM208 622v-117q0 -14 -1 -40.5t-3 -57.5t-4 -62.5t-5 -55.5q-2 -20 -6.5 -45.5t-10.5 -52.5
t-13 -53.5t-16 -47.5h152v532h-93z" />
    <glyph glyph-name="u052B" unicode="&#x52b;" horiz-adv-x="813" 
d="M365 85h48v-185h-86v100h-239v-100h-86v185h46q11 21 19.5 56t13.5 74q4 32 5 66t1 62v164h278v-207h103v207h102v-207h39q23 0 31 16t13 40l11 58q6 23 15.5 41.5t25.5 29.5q17 12 39.5 17t51.5 5h2v-90h-3q-18 0 -30 -6.5t-17 -29.5l-10 -56q-1 -3 -2.5 -12t-5.5 -19.5
t-10.5 -20.5t-16.5 -15l102 -258h-104l-81 215h-50v-215h-102v215h-103v-130zM183 422v-76q0 -13 -1 -31.5t-2.5 -38t-3 -38t-3.5 -31.5q-4 -26 -12.5 -61.5t-19.5 -60.5h124v337h-82z" />
    <glyph glyph-name="u052C" unicode="&#x52c;" horiz-adv-x="562" 
d="M185 0v-110h-88v200h52q7 17 15 41t15.5 51.5t14 57t10.5 56.5l3 21q-51 8 -89 29q-35 20 -56.5 55t-21.5 90v221h102v-211q0 -17 6.5 -38.5t25.5 -35.5q15 -12 43 -18q4 49 5 90.5t1 74.5v138h277v-622h58v-200h-88v110h-285zM398 90v231q-13 -3 -38.5 -5.5t-58.5 -3.5
l-3 -20q-3 -20 -9 -46t-13 -53.5t-15 -54.5t-17 -48h154zM318 622v-57q0 -25 -2 -71t-6 -94q32 0 54.5 1.5t33.5 3.5v217h-80z" />
    <glyph glyph-name="u052D" unicode="&#x52d;" horiz-adv-x="524" 
d="M193 0v-100h-86v185h46q15 32 24.5 63.5t15.5 63.5q-21 3 -41 8.5t-40 14.5q-32 14 -54 45t-22 77v150h100v-133q0 -14 5 -32.5t23 -31.5q8 -5 18 -9t22 -7q1 17 1.5 34.5t0.5 34.5v144h266v-422h48v-185h-86v100h-241zM370 85v130q-17 -3 -41.5 -5t-47.5 -2
q-7 -32 -15.5 -63.5t-19.5 -59.5h124zM296 422v-66q0 -17 -1 -34.5t-3 -35.5q17 0 34.5 1t43.5 4v131h-74z" />
    <glyph glyph-name="u052E" unicode="&#x52e;" horiz-adv-x="465" 
d="M299 0v622h-100v-207q0 -16 -1 -54.5t-5 -84.5t-12 -91t-22 -75q-24 -51 -61 -80.5t-90 -29.5h-6v102q30 2 47 18t28 40q9 21 14.5 51t8.5 64t4 70t1 69v298h296v-622h58v-200h-88v110h-72z" />
    <glyph glyph-name="u052F" unicode="&#x52f;" horiz-adv-x="421" 
d="M261 0v422h-82v-94q0 -35 -2 -70.5t-6.5 -68t-11.5 -60.5t-18 -48q-21 -39 -55 -60t-77 -21h-7v96h5q11 0 22.5 6t23.5 21q10 12 16 34.5t9 47t4 47t1 34.5v221h280v-422h54v-185h-86v100h-70z" />
    <glyph glyph-name="Ohorn" unicode="&#x1a0;" horiz-adv-x="493" 
d="M384 168q0 -45 -15 -77t-39 -53q-25 -22 -55.5 -33t-61.5 -11t-61.5 11t-54.5 33q-25 21 -40 53t-15 77v376q0 43 15 76t40 55q24 21 54.5 32t61.5 11t61.5 -11t55.5 -32q13 -12 23.5 -27.5t18.5 -34.5q28 0 33.5 17.5t5.5 43.5v38h77v-40q0 -22 -3 -43.5t-13.5 -39.5
t-31 -30.5t-56.5 -16.5v-374zM144 168q0 -37 20.5 -54.5t48.5 -17.5t48.5 17.5t20.5 54.5v376q0 37 -20.5 54.5t-48.5 17.5t-48.5 -17.5t-20.5 -54.5v-376z" />
    <glyph glyph-name="ohorn" unicode="&#x1a1;" horiz-adv-x="440" 
d="M33 337q0 31 4 57t15 46q18 33 51.5 53t81.5 20t81.5 -20t51.5 -53q7 -15 12 -33q20 4 25 20.5t5 39.5v40h75v-40q0 -22 -2.5 -43t-12.5 -38.5t-29.5 -30t-53.5 -17.5v-1v-167q0 -31 -4 -57t-15 -46q-18 -33 -51.5 -53t-81.5 -20t-81.5 20t-51.5 53q-11 20 -15 46t-4 57
v167zM135 154q0 -29 13.5 -43.5t36.5 -14.5t36.5 14.5t13.5 43.5v199q0 29 -13.5 43.5t-36.5 14.5t-36.5 -14.5t-13.5 -43.5v-199z" />
    <glyph glyph-name="Uhorn" unicode="&#x1af;" horiz-adv-x="516" 
d="M378 160q0 -35 -12.5 -64.5t-35.5 -52.5t-53 -36t-64 -13t-63.5 13t-52.5 36t-36 52.5t-13 64.5v552h102v-542q0 -38 18 -56t45 -18t45 18t18 56v542h102v-99h7q28 0 38.5 17.5t10.5 43.5v38h77v-40q0 -23 -5 -50t-27 -48q-18 -17 -43.5 -24t-57.5 -8v-382z" />
    </font>
</defs>
</svg>
